<ttFont>
          <CharString index="0">
            1.52587890625e-05 -11.620010376 8.30000305176 -7.63999938965 11.6199951172 0 rrcurveto
            40.0399932861 hlineto
            11.6199951172 7.63999938965 6.63999938965 12.6199951172 hvcurveto
            58.6999969482 vlineto
            1.52587890625e-05 11.620010376 -6.63999938965 8.95999145508 -12.6199951172 0 rrcurveto
            -40.0399932861 hlineto
            -13.2799987793 -1.52587890625e-05 -6.63999938965 -7.95999145508 0 -12.6199951172 rrcurveto
            return
          </CharString>
          <CharString index="1">
            9.63999938965 -134 39.7200012207 0 8.63999938965 134 0 67 -58 0 rlineto
            return
          </CharString>
          <CharString index="2">
            -85 29 -40 98 vhcurveto
            101 hlineto
            101 28 40 85 hvcurveto
            133 vlineto
            85 -29 40 -98 vhcurveto
            -101 hlineto
            -101 -28 -40 -85 hvcurveto
            return
          </CharString>
          <CharString index="3">
            133 vlineto
            59.9600067139 15.8600006104 17.0399932861 65.1399993896 vhcurveto
            101 hlineto
            60.2599945068 18.7400054932 -18.1399993896 -58.8600006104 hvcurveto
            -133 vlineto
            -59.9600067139 -16.5400085449 -17.0399932861 -64.4599914551 vhcurveto
            -101 hlineto
            -57.5400085449 -21.4599914551 15.4199981689 61.5800018311 hvcurveto
            return
          </CharString>
          <CharString index="4">
            -85 29 -40 98 vhcurveto
            101 hlineto
            101 28 40 85 hvcurveto
            133 vlineto
            return
          </CharString>
          <CharString index="5">
            85 -29 40 -98 vhcurveto
            -101 hlineto
            -101 -28 -40 -85 hvcurveto
            return
          </CharString>
          <CharString index="6">
            133 vlineto
            59.9600067139 15.8600006104 17.0399932861 65.1399993896 vhcurveto
            101 hlineto
            60.2600097656 18.7399902344 -18.1399993896 -58.8600006104 hvcurveto
            -133 vlineto
            -59.9599914551 -16.5399932861 -17.0400085449 -64.4600067139 vhcurveto
            -101 hlineto
            -57.5399932861 -21.4600067139 15.4199981689 61.5800018311 hvcurveto
            return
          </CharString>
          <CharString index="7">
            -316 159 -220 0 vhcurveto
            62.9799957275 hlineto
            0 -164.980010986 236 300 272 164.63999939 262 0 hvcurveto
            -62.6399993896 hlineto
            0 -159 -260 -274 hvcurveto
            return
          </CharString>
          <CharString index="8">
            62.6399993896 hlineto
            1.52587890625e-05 159 220 316 274 -159 260 0 hvcurveto
            -62.6399993896 hlineto
            0 164.63999939 -262 -272 -300 -164.63999939 -236 0 hvcurveto
            return
          </CharString>
          <CharString index="9">
            -11.620010376 8.30000305176 -7.63999938965 11.6199951172 vhcurveto
            38.7200012207 hlineto
            11.6199951172 8.95999145508 4.66000366211 14.5999908447 hvcurveto
            58.6999969482 vlineto
            12.9400024414 -5.97999572754 7.63999938965 -14.6000061035 vhcurveto
            -38.7200012207 hlineto
            -13.2800140381 -1.52587890625e-05 -6.63999938965 -7.95999145508 0 -12.6199951172 rrcurveto
            return
          </CharString>
          <CharString index="10">
            26.5200042725 -32.9199981689 375.199996948 0 0 -193.5 57 0 0 193.5 rlineto
            return
          </CharString>
          <CharString index="11">
            90 15.9400024414 0 43.6999969482 -90 0 0 291.86000061 -29.1799926758 0 -27.8200073242 -75 rlineto
            return
          </CharString>
          <CharString index="12">
            -216.86000061 -315.960006714 vlineto
            297.740005493 476.86000061 -67.2599945068 0 rlineto
            return
          </CharString>
          <CharString index="13">
            -22 -440.100006104 51.7200012207 0 rlineto
            58.0800018311 50.4799957275 33.9199981689 46.1399993896 vhcurveto
            153.660003662 hlineto
            101.580001831 5.41999816895 -72.2200012207 -38.7799987793 hvcurveto
            -104.899993896 vlineto
            -63.0399932861 -37.3199920654 -48.6600036621 -69.3400115967 vhcurveto
            -304 hlineto
            return
          </CharString>
          <CharString index="14">
            -74 0 -110.799987793 -7.59999084473 -85 -10 1.31999206543 93.5200042725 20.0399932861 184.899993896 103.240005493 0 rrcurveto
            return
          </CharString>
          <CharString index="15">
            282.199996948 41.3999938965 hlineto
            return
          </CharString>
          <CharString index="16">
            402.899993896 0 -251.199996948 -675 67.6000061035 0 255.820007324 692.5 -23.2599945068 39.5 -451.86000061 0 rlineto
            return
          </CharString>
          <CharString index="17">
            -41 4 -113 172 vhcurveto
            134.800003052 hlineto
            63.9999847412 99 24 130 hvcurveto
            98 vlineto
            0.65998840332 49.8000030518 -22 66.7799987793 -59.4400024414 13.3999938965 66.5599975586 11.2600097656 14.8800048828 72.879989624 -0.660003662109 32.8800048828 rrcurveto
            65 vlineto
            -1.52587890625e-05 123 -55 50 -107 0 rrcurveto
            -135.800003052 hlineto
            -103 -73 -39 -134 hvcurveto
            -65 vlineto
            0 -53 18.620010376 -65 71.4799957275 -19.6199951172 -39.6600036621 -8.58000183105 -50.4400024414 -25.7799987793 0 -74.6800079346 rrcurveto
            return
          </CharString>
          <CharString index="18">
            105 vlineto
            68.8000030518 62 20.6999969482 46 vhcurveto
            148.800003052 hlineto
            46.0399780273 56.9600067139 -15.8399963379 -73.6600036621 hvcurveto
            -105 vlineto
            -1.52587890625e-05 -67.6199951172 -56.8800048828 -26.3800048828 -49.1199951172 0 rrcurveto
            -134.800003052 hlineto
            -77.0800018311 -41.9199981689 30.0399932861 63.9600067139 hvcurveto
            return
          </CharString>
          <CharString index="19">
            68 vlineto
            94.7599945068 39.6999969482 23.2400054932 79.3000030518 vhcurveto
            135.800003052 hlineto
            70.5599822998 34.4400024414 -31.7599945068 -86.2400054932 hvcurveto
            -68 vlineto
            -1.52587890625e-05 -39.3999938965 -21.8399963379 -53.1000061035 -81.1600036621 0 rrcurveto
            -148.800003052 hlineto
            -44.879989624 -63.120010376 13.9400024414 78.5599975586 hvcurveto
            return
          </CharString>
          <CharString index="20">
            -1.52587890625e-05 -79.3600006104 25.6800079346 -68.620010376 135.319992065 0 rrcurveto
            return
          </CharString>
          <CharString index="21">
            74 0 110.800003052 7.60000610352 85 10 -1.32000732422 -93.5200042725 -20.0399932861 -184.899993896 -103.240005493 0 rrcurveto
            -282.199996948 hlineto
            return
          </CharString>
          <CharString index="22">
            120.919998169 vlineto
            -1.52587890625e-05 82.2200164795 50.2599945068 13.0599975586 54.7400054932 0 rrcurveto
            138.800003052 hlineto
            return
          </CharString>
          <CharString index="23">
            121.559997559 1.52587890625e-05 9.44000244141 -191.760009766 0 -115.079986572 rrcurveto
            return
          </CharString>
          <CharString index="24">
            -269.800003052 hlineto
            -56.200012207 1.52587890625e-05 -48.8000030518 14.6799926758 0 75.9600067139 rrcurveto
            return
          </CharString>
          <CharString index="25">
            364.460006714 -184.199996948 0 63.6399993896 -288.919998169 150.36000061 288.919998169 140.020004272 0 61.9799957275 -364.460006714 -172.199996948 rlineto
            return
          </CharString>
          <CharString index="26">
            -116 66 -62 102 vhcurveto
            338.800003052 hlineto
            138 39 80 98 hvcurveto
            512 vlineto
            0 125 -71 61 -106 2 rrcurveto
            -110.899993896 hlineto
            return
          </CharString>
          <CharString index="27">
            -126 1 -114 -12.2200012207 -48 -10 rrcurveto
            -35.7799987793 vlineto
            return
          </CharString>
          <CharString index="28">
            11.6199951172 -64 42.3999938965 0 rlineto
            return
          </CharString>
          <CharString index="29">
            372 vlineto
            110 -82 30 -71 vhcurveto
            -209.899993896 hlineto
            -166 -2 -128 -36 hvcurveto
            return
          </CharString>
          <CharString index="30">
            338.539993286 8.30000305176 0 43.6999969482 rlineto
            return
          </CharString>
          <CharString index="31">
            -338.539993286 8.30000305176 0 209.179992676 rlineto
            1.52587890625e-05 43.3200073242 13.5999908447 29.6799926758 55.4000091553 0 rrcurveto
            return
          </CharString>
          <CharString index="32">
            309.539993286 43.0399932861 hlineto
            return
          </CharString>
          <CharString index="33">
            -309.539993286 13.9600067139 rlineto
            -65.9779815674 2.71200561523 -60.0220031738 -34.7120056152 0 -98 rrcurveto
            return
          </CharString>
          <CharString index="34">
            57 732 -57 hlineto
            return
          </CharString>
          <CharString index="35">
            17.3599853516 -97.9600067139 120.440002441 -24.6199951172 72 27 rrcurveto
            60.9600067139 vlineto
            -58.3399963379 -20.6600036621 -61.2599945068 -1.63999938965 -51.120010376 56.9199981689 rrcurveto
            return
          </CharString>
          <CharString index="36">
            133 -133 50.3000030518 0 -111.759994507 133 rlineto
            return
          </CharString>
          <CharString index="37">
            -122 33.0599975586 -147 145 vhcurveto
            68 0 102 44.3000030518 26 20.6999969482 rrcurveto
            return
          </CharString>
          <CharString index="38">
            16.6000061035 -59 39.3999938965 0 rlineto
            return
          </CharString>
          <CharString index="39">
            785 -55.3200073242 -286 vlineto
            -63.9999847412 26 -87.6800079346 14 -45 0 rrcurveto
            -151 -27.0599975586 -140 -136 hvcurveto
            return
          </CharString>
          <CharString index="40">
            178.63999939 50.2600097656 40.3600006104 70.799987793 vhcurveto
            77 0 50 -9.36000061035 69 -18 rrcurveto
            -354.580001831 vlineto
            -53.6599884033 -23.6999969482 -63.3400115967 -25.3600006104 -79 0 rrcurveto
            -71.799987793 -49.2600097656 64.6600036621 147.339996338 hvcurveto
            return
          </CharString>
          <CharString index="41">
            93.6000061035 -474 57 hlineto
            return
          </CharString>
          <CharString index="42">
            142.000015259 23 126.839996338 60 hvcurveto
            0 87.2799987793 -27.8200073242 26.4400024414 -13.379989624 18.2799987793 rrcurveto
            return
          </CharString>
          <CharString index="43">
            91.1999969482 15.2799987793 0 41.7200012207 rlineto
            return
          </CharString>
          <CharString index="44">
            -1.52587890625e-05 69.6199951172 20.7400054932 62.3800048828 91.5199890137 0 rrcurveto
            109.720001221 hlineto
            return
          </CharString>
          <CharString index="45">
            69.1399993896 0 27.5600128174 -47.0399932861 1.97999572754 -84.9600067139 1.31999206543 -56.1799926758 -24.4399871826 -73.3200073242 -89.5200042725 0 rrcurveto
            -99.3600006104 hlineto
            -79.7199859619 -28.9400024414 61.1199951172 68.3800048828 hvcurveto
            return
          </CharString>
          <CharString index="46">
            57 531 -57 hlineto
            return
          </CharString>
          <CharString index="47">
            -161.800003052 148 -42.3999938965 hlineto
            return
          </CharString>
          <CharString index="48">
            -14.6000061035 -148 rlineto
            return
          </CharString>
          <CharString index="49">
            -93.8999938965 -14.6000061035 rlineto
            return
          </CharString>
          <CharString index="50">
            17.9199981689 -62 39.0800018311 0 rlineto
            return
          </CharString>
          <CharString index="51">
            1.52587890625e-05 -134 47.7599945068 -234 184 0 rrcurveto
            265.240005493 hlineto
            151.000015259 58.0999908447 175 193 124 -13.0999908447 240 -196 hvcurveto
            -265.240005493 hlineto
            -192 -39.7599945068 -201 -163 hvcurveto
            return
          </CharString>
          <CharString index="52">
            1.02000427246 251.86000061 87.2600097656 65.1399993896 96.4799957275 0 rrcurveto
            265.240005493 hlineto
            137.800003052 24.3000030518 -172.86000061 -144.13999939 hvcurveto
            0 -213.179992676 -72.1999969482 -107.160003662 -89.8999938965 -0.660003662109 rrcurveto
            -265.240005493 hlineto
            -128.279998779 0.660003662109 -57.1600036621 172.580001831 0.68000793457 147.759994507 rrcurveto
            return
          </CharString>
          <CharString index="53">
            314 57 -314 hlineto
            return
          </CharString>
          <CharString index="54">
            -57 46 -45 56 56 44.6600036621 45 57 57 -44.6600036621 46 -56 -56 -46 -46 -57 vhcurveto
            return
          </CharString>
          <CharString index="55">
            36.1199951172 30.1000061035 30.1000061035 36.1199951172 36.120010376 28.7599945068 -30.1000061035 -36.1199951172 -36.1199951172 -28.7599945068 -29.1000061035 -36.120010376 -36.1199951172 -30.1000061035 29.1000061035 36.1199951172 vhcurveto
            return
          </CharString>
          <CharString index="56">
            405.800003052 57 -405.800003052 hlineto
            return
          </CharString>
          <CharString index="57">
            173.699996948 hlineto
            70.9199981689 1.52587890625e-05 19.0199890137 -33.5200042725 0 -58.4400024414 0 -110.619995117 -193.63999939 -135.340011597 -67 -54 rrcurveto
            -43.0399932861 309 47.0399932861 -222.86000061 vlineto
            40.6399841309 33.299987793 183.220001221 141.680007935 0 123.979995728 0 78 -32 58 -98 0 rrcurveto
            return
          </CharString>
          <CharString index="58">
            -72 0 -45 -4.2799987793 -66 -8 rrcurveto
            -1 1 -1 -35.7599945068 2 0 rrcurveto
            return
          </CharString>
          <CharString index="59">
            188.720001221 hlineto
            46.700012207 34.879989624 -17.3199920654 -53.2200012207 hvcurveto
            -26.4199981689 vlineto
            -1.52587890625e-05 -43.4000091553 -33.5200042725 -25.0599975586 -50.7799987793 -2 rrcurveto
            -142 -5.97999572754 0 -34.4199981689 142 -4.66000366211 rlineto
            40.7799987793 -1.00001525879 42.1800079346 -21.0800018311 0 -54.0599975586 rrcurveto
            -23 vlineto
            1.52587890625e-05 -56.9199981689 -23.4400024414 -19.0400085449 -63.5200042725 0 rrcurveto
            0 -156.220001221 -0.65998840332 -21.1199951172 vhcurveto
            -0.660003662109 -30.7599945068 rlineto
            51.9000091553 -16.2599945068 60.0999908447 0.639999389648 74 0 rrcurveto
            99 27.3400115967 48 71 hvcurveto
            28 vlineto
            1.52587890625e-05 53.7599945068 -35.6000061035 29.0200042725 -24.9600067139 12.5800018311 24.9800109863 7.2799987793 35.5800018311 31.3399963379 0 50.4000091553 rrcurveto
            35 vlineto
            1.52587890625e-05 60 -34 54.6199951172 -87 0 rrcurveto
            return
          </CharString>
          <CharString index="60">
            -76 0 -66.0800018311 1.66000366211 -53.2600097656 -16.2600097656 rrcurveto
            return
          </CharString>
          <CharString index="61">
            50.3000030518 0 133 133 -71.5399932861 0 rlineto
            return
          </CharString>
          <CharString index="62">
            128 38.7400054932 0 -424.339996338 47.0399932861 0 0 476 -47.0399932861 0 -128 -55 rlineto
            return
          </CharString>
          <CharString index="63">
            49.0200042725 0 360.919998169 744.919998169 -49.0200042725 0 rlineto
            return
          </CharString>
          <CharString index="64">
            15.8800048828 -19.2400054932 257.960006714 0 0 -135.63999939 47.0399932861 0 0 135.63999939 rlineto
            return
          </CharString>
          <CharString index="65">
            59 12.3200073242 0 37.0399932861 -59 0 0 169 -25.5 0 -21.5399932861 -48 rlineto
            return
          </CharString>
          <CharString index="66">
            133 -133 50.2998046875 0 -111.759765625 133 rlineto
            return
          </CharString>
          <CharString index="67">
            68.8994140625 0 75.5205078125 220.66015625 305.939453125 0 72.5205078125 -220.66015625 66.919921875 0 -258.700195312 732 -60.400390625 0 rlineto
            return
          </CharString>
          <CharString index="68">
            134.939453125 371.599609375 129.900390625 -371.599609375 rlineto
            return
          </CharString>
          <CharString index="69">
            50.2998046875 0 133 133 -71.5400390625 0 rlineto
            return
          </CharString>
          <CharString index="70">
            53.6396484375 0 93.6396484375 85.9599609375 84.9404296875 -85.9599609375 52.98046875 0 -109.440429688 130 -53.66015625 0 rlineto
            return
          </CharString>
          <CharString index="71">
            34.9794921875 0.66015625 27.240234375 -45.9404296875 51.240234375 -1.9794921875 42 -1.3203125 36.939453125 36.259765625 33 27.720703125 rrcurveto
            -16.5595703125 30.099609375 rlineto
            -28.9404296875 -17.6796875 -36.01953125 -24.759765625 -29.1005859375 0.6591796875 rrcurveto
            return
          </CharString>
          <CharString index="72">
            -29.359375 0.66015625 -37.8408203125 45.2802734375 -46.259765625 1.9794921875 rrcurveto
            -40.3193359375 0 -35.640625 -29.9794921875 -37.9599609375 -31.98046875 rrcurveto
            return
          </CharString>
          <CharString index="73">
            -21.8798828125 17.5595703125 -17.900390625 21.8798828125 21.8798828125 16.900390625 17.900390625 21.8798828125 21.8798828125 -16.900390625 16.8994140625 -21.8798828125 -21.8798828125 -17.5595703125 -16.8994140625 -21.8798828125 vhcurveto
            return
          </CharString>
          <CharString index="74">
            -21.8798828125 17.900390625 -17.900390625 21.8798828125 21.8798828125 16.900390625 17.900390625 21.8798828125 21.8798828125 -16.900390625 16.8994140625 -21.8798828125 -21.8798828125 -17.900390625 -16.8994140625 -21.8798828125 vhcurveto
            return
          </CharString>
          <CharString index="75">
            -57 46 -45 56 56 44.66015625 45 57 57 -44.66015625 46 -56 -56 -46 -46 -57 vhcurveto
            return
          </CharString>
          <CharString index="76">
            36.1201171875 30.099609375 30.099609375 36.1201171875 36.1201171875 28.759765625 -30.099609375 -36.1201171875 -36.1201171875 -28.759765625 -29.099609375 -36.1201171875 -36.1201171875 -30.099609375 29.099609375 36.1201171875 vhcurveto
            return
          </CharString>
          <CharString index="77">
            -26.7998046875 43.8603515625 vlineto
            81.01953125 19.98046875 34.6796875 101.3203125 hvcurveto
            -50 hlineto
            0.6796875 -61.7998046875 -13.1796875 -25.16015625 -36.5 -10.6396484375 rrcurveto
            return
          </CharString>
          <CharString index="78">
            -215 58.66015625 -159 185 vhcurveto
            52 0 111.799804688 9 70 13 rrcurveto
            43.7001953125 vlineto
            0 -128.459960938 -8.7001953125 -105 -139.459960938 -47.5400390625 129.240234375 185.759765625 255.580078125 54.1796875 61.419921875 132.48046875 vhcurveto
            92 0 140.799804688 -11.3603515625 1 0 rrcurveto
            43.7001953125 vlineto
            -70 13 -111.799804688 11.66015625 -52 0 rrcurveto
            -200.360351562 -43.2998046875 -139.360351562 -232.639648438 hvcurveto
            return
          </CharString>
          <CharString index="79">
            0 -113 69.9912109375 -16.421875 66.0087890625 3.421875 rrcurveto
            return
          </CharString>
          <CharString index="80">
            299.540039062 14.6201171875 0 42.3798828125 rlineto
            return
          </CharString>
          <CharString index="81">
            -299.540039062 hlineto
            -37.83984375 0 -40.5 2.740234375 -0.66015625 66.259765625 rrcurveto
            0 209.51953125 rlineto
            return
          </CharString>
          <CharString index="82">
            338.540039062 8.30078125 0 43.69921875 rlineto
            return
          </CharString>
          <CharString index="83">
            -338.540039062 8.30078125 0 209.1796875 rlineto
            43.3203125 13.6005859375 29.6796875 55.3994140625 vhcurveto
            return
          </CharString>
          <CharString index="84">
            309.540039062 43.0400390625 hlineto
            return
          </CharString>
          <CharString index="85">
            -309.540039062 13.9599609375 rlineto
            -65.9775390625 2.7119140625 -60.0224609375 -34.7119140625 0 -98 rrcurveto
            return
          </CharString>
          <CharString index="86">
            53.6396484375 0 93.640625 85.9599609375 84.939453125 -85.9599609375 52.98046875 0 -109.440429688 130 -53.66015625 0 rlineto
            return
          </CharString>
          <CharString index="87">
            -21.8798828125 17.560546875 -17.900390625 21.8798828125 21.8798828125 16.900390625 17.900390625 21.8798828125 21.8798828125 -16.900390625 16.900390625 -21.8798828125 -21.8798828125 -17.560546875 -16.900390625 -21.8798828125 vhcurveto
            return
          </CharString>
          <CharString index="88">
            -21.8798828125 17.900390625 -17.900390625 21.8798828125 21.8798828125 16.900390625 17.900390625 21.8798828125 21.8798828125 -16.900390625 16.900390625 -21.8798828125 -21.8798828125 -17.900390625 -16.900390625 -21.8798828125 vhcurveto
            return
          </CharString>
          <CharString index="89">
            -21.8798828125 17.5595703125 -17.900390625 21.8798828125 21.880859375 16.8994140625 17.900390625 21.8798828125 21.8798828125 -16.8994140625 16.8994140625 -21.880859375 -21.8798828125 -17.5595703125 -16.8994140625 -21.8798828125 vhcurveto
            return
          </CharString>
          <CharString index="90">
            -21.8798828125 17.8994140625 -17.900390625 21.8798828125 21.880859375 16.8994140625 17.900390625 21.8798828125 21.8798828125 -16.8994140625 16.8994140625 -21.880859375 -21.8798828125 -17.8994140625 -16.8994140625 -21.8798828125 vhcurveto
            return
          </CharString>
          <CharString index="91">
            15.220703125 -29.779296875 rlineto
            36.66015625 18.080078125 18.759765625 21.359375 41.9599609375 0.66015625 rrcurveto
            return
          </CharString>
          <CharString index="92">
            34.9794921875 0.66015625 27.240234375 -45.9404296875 51.240234375 -1.9794921875 42 -1.3203125 36.939453125 36.259765625 33 27.720703125 rrcurveto
            -16.5595703125 30.099609375 rlineto
            -28.9404296875 -17.6796875 -36.01953125 -24.759765625 -29.099609375 0.6591796875 rrcurveto
            return
          </CharString>
          <CharString index="93">
            -29.3603515625 0.66015625 -37.83984375 45.2802734375 -46.2607421875 1.9794921875 rrcurveto
            -40.3193359375 0 -35.640625 -29.9794921875 -37.9599609375 -31.98046875 rrcurveto
            return
          </CharString>
          <CharString index="94">
            57.66015625 625.280273438 hlineto
            408 -625.280273438 57 0 0 732 -57 0 0 -625.280273438 -407 625.280273438 -58.66015625 0 rlineto
            return
          </CharString>
          <CharString index="95">
            133 -133 50.2998046875 0 -111.760742188 133 rlineto
            return
          </CharString>
          <CharString index="96">
            -333 98.5595703125 -32 180 180 97.240234375 42 323 343 -104.240234375 33 -173 -169.360351562 -109.19921875 -33 -343 vhcurveto
            return
          </CharString>
          <CharString index="97">
            311.919921875 83.4599609375 7.080078125 138.099609375 144.16015625 76.080078125 -11.5 -307.5 -264.98046875 -59.1396484375 -43.01953125 -161.100585938 -165.139648438 -56.419921875 37.0595703125 270.940429688 vhcurveto
            return
          </CharString>
          <CharString index="98">
            15.2197265625 -29.779296875 rlineto
            36.66015625 18.080078125 18.759765625 21.359375 41.9609375 0.66015625 rrcurveto
            return
          </CharString>
          <CharString index="99">
            -21.8798828125 17.560546875 -17.900390625 21.8798828125 21.8798828125 16.900390625 17.900390625 21.8798828125 21.8798828125 -16.900390625 16.8994140625 -21.8798828125 -21.8798828125 -17.560546875 -16.8994140625 -21.8798828125 vhcurveto
            return
          </CharString>
          <CharString index="100">
            133 -133 50.30078125 0 -111.760742188 133 rlineto
            return
          </CharString>
          <CharString index="101">
            -331.639648438 129.900390625 6.6396484375 136 121 139.900390625 2 323 vhcurveto
            412 -57.66015625 -412 vlineto
            -261.240234375 -95.400390625 -6.759765625 -107.83984375 -123.459960938 -85.4404296875 -3.2802734375 271.280273438 vhcurveto
            412 -57 vlineto
            return
          </CharString>
          <CharString index="102">
            50.30078125 0 133 133 -71.5400390625 0 rlineto
            return
          </CharString>
          <CharString index="103">
            53.6396484375 0 93.6396484375 85.9599609375 84.9404296875 -85.9599609375 52.9794921875 0 -109.439453125 130 -53.66015625 0 rlineto
            return
          </CharString>
          <CharString index="104">
            236.399414062 -472 0 -260 57 0 0 260 256.400390625 472 -62.640625 0 -222.259765625 -403.379882812 -202.259765625 403.379882812 rlineto
            return
          </CharString>
          <CharString index="105">
            -85 60 -47 73 vhcurveto
            93.3798828125 0 133.419921875 70 2 0 rrcurveto
            return
          </CharString>
          <CharString index="106">
            15.6005859375 -64 41.3994140625 0 rlineto
            return
          </CharString>
          <CharString index="107">
            387 vlineto
            0 110 -70 45 -83 -1 -99.33984375 -1 -83.2197265625 -11.3798828125 -66.240234375 -17.9599609375 rrcurveto
            -40.400390625 vlineto
            94.9599609375 9.3798828125 79.5205078125 6.7001953125 72 -0.33984375 67.33984375 -0.33984375 30.9794921875 -34.9404296875 0 -63.7197265625 1 -1 -1 -66 0 0 rrcurveto
            -1 -228.799804688 1 0 -82.66015625 -50.33984375 -51.2998046875 -81.7001953125 vhcurveto
            return
          </CharString>
          <CharString index="108">
            52.0400390625 vlineto
            0 41.8603515625 20.080078125 34.439453125 55.919921875 3.66015625 rrcurveto
            228.799804688 13.9599609375 0 -171.900390625 rlineto
            0 0 -148.799804688 -54.7392578125 -80 0.6796875 -39.099609375 0.33984375 -36.900390625 19.080078125 0 60.580078125 rrcurveto
            return
          </CharString>
          <CharString index="109">
            -29.3603515625 0.66015625 -37.83984375 45.2802734375 -46.259765625 1.9794921875 rrcurveto
            -40.3203125 0 -35.6396484375 -29.9794921875 -37.9599609375 -31.98046875 rrcurveto
            return
          </CharString>
          <CharString index="110">
            -21.8798828125 17.5595703125 -17.900390625 21.8798828125 21.8798828125 16.900390625 17.900390625 21.8798828125 21.8798828125 -16.900390625 16.900390625 -21.8798828125 -21.8798828125 -17.5595703125 -16.900390625 -21.8798828125 vhcurveto
            return
          </CharString>
          <CharString index="111">
            -21.8798828125 17.8994140625 -17.900390625 21.8798828125 21.8798828125 16.900390625 17.900390625 21.8798828125 21.8798828125 -16.900390625 16.900390625 -21.8798828125 -21.8798828125 -17.8994140625 -16.900390625 -21.8798828125 vhcurveto
            return
          </CharString>
          <CharString index="112">
            0 -203.919921875 39.3203125 -68.400390625 135.33984375 -0.6796875 83 -0.33984375 75.7998046875 5.33984375 81 23 rrcurveto
            42.400390625 vlineto
            -75 -11 -72.7998046875 -2.400390625 -92 0 rrcurveto
            -81.060546875 -36.599609375 30.3203125 151.1796875 hvcurveto
            230.799804688 hlineto
            92.599609375 44.060546875 35.8203125 77.6796875 176 -79.0205078125 12 -123.639648438 -158.559570312 -63.240234375 -31.01953125 -235.98046875 hvcurveto
            return
          </CharString>
          <CharString index="113">
            177.639648438 43.6201171875 10.8603515625 121.83984375 111.400390625 33.599609375 -10.7001953125 -120.299804688 -45.580078125 -31.580078125 -11.919921875 -48.080078125 vhcurveto
            return
          </CharString>
          <CharString index="114">
            53.6396484375 0 93.640625 85.9599609375 84.939453125 -85.9599609375 52.98046875 0 -109.440429688 130 -53.6591796875 0 rlineto
            return
          </CharString>
          <CharString index="115">
            -21.8798828125 17.8994140625 -17.900390625 21.8798828125 21.8798828125 16.900390625 17.900390625 21.8798828125 21.8798828125 -16.900390625 16.8994140625 -21.8798828125 -21.8798828125 -17.8994140625 -16.8994140625 -21.8798828125 vhcurveto
            return
          </CharString>
          <CharString index="116">
            15.2197265625 -29.779296875 rlineto
            36.66015625 18.080078125 18.759765625 21.359375 41.9599609375 0.66015625 rrcurveto
            return
          </CharString>
          <CharString index="117">
            34.98046875 0.66015625 27.240234375 -45.9404296875 51.2392578125 -1.9794921875 42 -1.3203125 36.9404296875 36.259765625 33 27.720703125 rrcurveto
            -16.5595703125 30.099609375 rlineto
            -28.9404296875 -17.6796875 -36.0205078125 -24.759765625 -29.099609375 0.6591796875 rrcurveto
            return
          </CharString>
          <CharString index="118">
            57 424.639648438 hlineto
            75.98046875 38.0205078125 44.099609375 20.33984375 82.720703125 0 rrcurveto
            63.919921875 43.080078125 -42.580078125 -70.419921875 hvcurveto
            -370 57 370 vlineto
            88 -58 82 -106 vhcurveto
            -81 0 -61.8203125 -34.98046875 -59.98046875 -36.01953125 rrcurveto
            return
          </CharString>
          <CharString index="119">
            -17.919921875 62 -39.080078125 0 rlineto
            return
          </CharString>
          <CharString index="120">
            -190 50.580078125 -73 177.979492188 175.260742188 53.9794921875 67.01953125 195.98046875 202.83984375 -52.2802734375 75.16015625 -176.959960938 -168.899414062 -59.66015625 -61 -217 vhcurveto
            return
          </CharString>
          <CharString index="121">
            204.940429688 56.83984375 16.0595703125 114.719726562 118.360351562 53.8798828125 -21.8203125 -199.1796875 -184.1796875 -57.439453125 -21.8203125 -114.80078125 -111.16015625 -60.3994140625 17.4404296875 188.559570312 vhcurveto
            return
          </CharString>
          <CharString index="122">
            -88 58 -82 106 vhcurveto
            81 0 61.8203125 34.98046875 59.9794921875 36.01953125 rrcurveto
            return
          </CharString>
          <CharString index="123">
            17.919921875 -62 39.080078125 0 rlineto
            return
          </CharString>
          <CharString index="124">
            531 -57 -424.639648438 vlineto
            -75.9794921875 -38.0205078125 -44.1005859375 -20.33984375 -82.7197265625 0 rrcurveto
            -63.919921875 -43.080078125 42.580078125 70.419921875 hvcurveto
            370 -57 vlineto
            return
          </CharString>
          <CharString index="125">
            136.799804688 -421 rlineto
            32.3203125 -105.620117188 65.66015625 -4.0400390625 21 -0.33984375 rrcurveto
            -91.6201171875 -270 34.4404296875 0 65.1396484375 102 233.66015625 699 -63.2802734375 0 -158.459960938 -471.6796875 rlineto
            1 0 -54.4404296875 -15.9599609375 -24.4599609375 72.6396484375 rrcurveto
            -135.459960938 415 rlineto
            return
          </CharString>
          <CharString index="126">
            -15.9400024414 10.3000030518 -7.63999938965 12.6199951172 vhcurveto
            return
          </CharString>
          <CharString index="127">
            -15.9400024414 10.9599914551 -7.63999938965 12.620010376 vhcurveto
            return
          </CharString>
          <CharString index="128">
            -1.52587890625e-05 -100 58 -10 59 0 rrcurveto
            117 hlineto
            63.9999847412 49 14 96 hvcurveto
            255 vlineto
            -1.52587890625e-05 67 -30 43 -83 0 rrcurveto
            -117 hlineto
            -71.0000152588 -46 -26 -84 hvcurveto
            return
          </CharString>
          <CharString index="129">
            247 vlineto
            44.9400024414 14.8200073242 22.0200042725 58.4799957275 vhcurveto
            109 hlineto
            56.8399810791 1.52587890625e-05 13.7799987793 -22.4400024414 0 -44.5200042725 rrcurveto
            -247 vlineto
            -1.52587890625e-05 -45.8800048828 -8.39999389648 -21.0800018311 -62.2200012207 0 rrcurveto
            -109 hlineto
            -55.8000183105 -1.52587890625e-05 -17.5 13.3600006104 0 53.6000061035 rrcurveto
            return
          </CharString>
          <CharString index="130">
            -121 -200.320007324 vlineto
            182.020004272 289 -53.6600036621 0 rlineto
            return
          </CharString>
          <CharString index="131">
            69.6600036621 -11.9400024414 64.3400115967 0.320007324219 81 0 rrcurveto
            63 46 32 82 hvcurveto
            64 vlineto
            1.52587890625e-05 71 -32 42.1999969482 -77 0 -49 0 -87.3200073242 10.6800079346 -29.3199920654 -39.8800048828 rrcurveto
            9.36000061035 169.960006714 251.279998779 0 0 47.0399932861 -295 0 -15 -292 40.4400024414 0 rlineto
            0.34001159668 35.6799926758 26.1399993896 21.4800109863 32.1399993896 0 rrcurveto
            113.300003052 hlineto
            63.5399932861 1.05999755859 -38.6399993896 -31.5200042725 hvcurveto
            -56 vlineto
            -1.52587890625e-05 -44.8999938965 -22.1199951172 -25.0600128174 -43.8399963379 0 rrcurveto
            return
          </CharString>
          <CharString index="132">
            -2 -213 62 -37 72 0 rrcurveto
            107 hlineto
            61 44 33 72 hvcurveto
            73 vlineto
            51 -17 42.5199890137 -88 vhcurveto
            return
          </CharString>
          <CharString index="133">
            -48 0 -88.9599914551 -5.61999511719 -55 -6 1 78.1199951172 9.44000244141 94.9400024414 67.5 0 rrcurveto
            return
          </CharString>
          <CharString index="134">
            203.020004272 37.0800018311 hlineto
            return
          </CharString>
          <CharString index="135">
            188.979995728 hlineto
            38.1599884033 -1.52587890625e-05 22.7799987793 -6.31999206543 0 -43.1400146484 rrcurveto
            -64.7400054932 vlineto
            1.52587890625e-05 -42.8000030518 -19.4400024414 -20.4400024414 -41.5 0 rrcurveto
            -106 hlineto
            -67.0400085449 -1.52587890625e-05 -15.9400024414 95.8200073242 0 81.6199951172 rrcurveto
            return
          </CharString>
          <CharString index="136">
            276.080001831 0 -174.399993896 -428.960006714 52.3200073242 0 182.339996338 450.440002441 -14.6199951172 25.5599975586 -321.720001221 0 rlineto
            return
          </CharString>
          <CharString index="137">
            -54 17 -50 92 vhcurveto
            120 hlineto
            55 50 20 84 hvcurveto
            58 vlineto
            0 33.7799987793 -21.5 45.5200042725 -34.3200073242 6 47.3399963379 7.95999145508 9.13999938965 47.9400024414 -0.65998840332 20.8000030518 rrcurveto
            40 vlineto
            86 -38 31 -70 vhcurveto
            -110 hlineto
            -67 -49 -25 -92 hvcurveto
            -40 vlineto
            0 -34 14.6999969482 -42 46.4199981689 -12.6399993896 -26.3399963379 -5.61999511719 -34.7799987793 -19.7400054932 0 -48 rrcurveto
            return
          </CharString>
          <CharString index="138">
            50.6799926758 vlineto
            1.52587890625e-05 40.6800079346 25.8000030518 18.4600067139 38.1600036621 0 rrcurveto
            118.399993896 hlineto
            29 28.5599975586 -17.3800048828 -42.4400024414 hvcurveto
            -50 vlineto
            -45.5599975586 -23.4199981689 -14.7400054932 -38.5399932861 vhcurveto
            -112 hlineto
            -50.8600006104 -1.52587890625e-05 -15.1000061035 17.0800018311 0 43.2200012207 rrcurveto
            return
          </CharString>
          <CharString index="139">
            32 vlineto
            1.52587890625e-05 57.5599975586 20.1399993896 16.4000091553 52.8200073242 0 rrcurveto
            97 hlineto
            47.5199890137 1.52587890625e-05 22.4400024414 -13.7200012207 0 -60.2400054932 rrcurveto
            -32 vlineto
            -32.5200042725 -16.9400024414 -29.9599914551 -44.6199951172 vhcurveto
            -117.800003052 hlineto
            -29.8200073242 1.52587890625e-05 -30.7400054932 15.4199981689 0 47.0599975586 rrcurveto
            return
          </CharString>
          <CharString index="140">
            -51 17 -42.5200042725 88 vhcurveto
            return
          </CharString>
          <CharString index="141">
            48 0 88.9599914551 5.62001037598 55 6 -1 -78.120010376 -10.0999908447 -94.9400024414 -67.5 0 rrcurveto
            return
          </CharString>
          <CharString index="142">
            -202.36000061 -37.0800018311 hlineto
            return
          </CharString>
          <CharString index="143">
            64.7400054932 vlineto
            -1.52587890625e-05 42.8000030518 19.4400024414 20.4400024414 41.5 0 rrcurveto
            107.979995728 hlineto
            return
          </CharString>
          <CharString index="144">
            67.0400085449 1.52587890625e-05 13.9599914551 -95.8200073242 0 -81.6199951172 rrcurveto
            return
          </CharString>
          <CharString index="145">
            -188.979995728 hlineto
            -38.1600189209 1.52587890625e-05 -22.7799987793 6.31999206543 0 43.1399993896 rrcurveto
            return
          </CharString>
          <CharString index="146">
            112.920013428 -18.5799865723 67.0799865723 -0.660003662109 124 0 rrcurveto
            62 101.660003662 33 137 hvcurveto
            108.899993896 vlineto
            97 -45.6600036621 69 -118 vhcurveto
            -31 0 -58.879989624 4.61999511719 -60.4600067139 -4.61999511719 -45.5999908447 -2.63999938965 -33.4400024414 -23.2799987793 -11.9600067139 -16.3199920654 rrcurveto
            13.6999969482 276.339996338 369.63999939 0 0 57 -422.339996338 0 rlineto
            return
          </CharString>
          <CharString index="147">
            -22 -440.100006104 51.7200012207 0 rlineto
            58.0800018311 50.4799957275 33.9199981689 46.1399993896 vhcurveto
            153.660003662 hlineto
            101.580001831 5.41999816895 -72.2200012207 -38.7799987793 hvcurveto
            -104.899993896 vlineto
            -63.0400085449 -37.3199920654 -48.6599884033 -69.3400115967 vhcurveto
            return
          </CharString>
          <CharString index="148">
            -1.52587890625e-05 -79.3599853516 25.6800079346 -68.6199951172 135.319992065 0 rrcurveto
            return
          </CharString>
          <CharString index="149">
            74 0 110.800003052 7.59999084473 85 10 -1.32000732422 -93.5200042725 -20.0399932861 -184.899993896 -103.240005493 0 rrcurveto
            return
          </CharString>
          <CharString index="150">
            -282.199996948 -41.3999938965 hlineto
            return
          </CharString>
          <CharString index="151">
            84.759979248 -14.2600097656 106.040008545 -1.33999633789 101 0 86.0599975586 0 85.9400024414 91.3800048828 0 262.619995117 0 310.919998169 -79 73.4199981689 -109 0.660003662109 rrcurveto
            -138.800003052 hlineto
            -94.0000152588 -67 -37 -112 hvcurveto
            return
          </CharString>
          <CharString index="152">
            120.919998169 vlineto
            -1.52587890625e-05 82.2200012207 50.2599945068 13.0599975586 54.7400054932 0 rrcurveto
            138.800003052 hlineto
            return
          </CharString>
          <CharString index="153">
            121.559997559 9.44000244141 -191.759994507 -115.080001831 hvcurveto
            return
          </CharString>
          <CharString index="154">
            -269.800003052 hlineto
            -56.200012207 -48.8000030518 14.6799926758 75.9600067139 hvcurveto
            return
          </CharString>
          <CharString index="155">
            -149.66015625 -64.6796875 77.33984375 -132.3203125 115 16 rrcurveto
            44.3603515625 vlineto
            -96.6796875 0.2998046875 -8.7001953125 76.16015625 92.5205078125 60.1796875 rrcurveto
            return
          </CharString>
          <CharString index="156">
            9.63999938965 -134 39.0599975586 0 8.63999938965 134 0 67 -57.3399963379 0 rlineto
            return
          </CharString>
          <CharString index="157">
            -81.9599609375 18 -81.5400390625 158.299804688 vhcurveto
            130.479492188 hlineto
            76.900390625 24.1396484375 -39.98046875 -66.51953125 hvcurveto
            -68 vlineto
            -97.8603515625 -84.6201171875 -9.1396484375 -57.6591796875 vhcurveto
            -93 0 -110.540039062 5.2998046875 -41.3603515625 4 rrcurveto
            -44.7001953125 vlineto
            46 -8 149.900390625 -13.599609375 49 0 rrcurveto
            99 100.279296875 22 142 hvcurveto
            68 vlineto
            82 -25.0400390625 81.5 -133 vhcurveto
            -132.479492188 hlineto
            -70.8798828125 -46.419921875 11.080078125 95.419921875 hvcurveto
            66 vlineto
            0 107.139648438 57.396484375 17.126953125 81.9033203125 -3.2666015625 0 0 176.479492188 -5.3203125 64 -4 rrcurveto
            44.0205078125 vlineto
            -41.7392578125 6.01953125 -145.740234375 16.2802734375 -53 0 rrcurveto
            -112 -84.2998046875 -33 -145 hvcurveto
            return
          </CharString>
          <CharString index="158">
            117.33984375 -130 54.3408203125 0 113.51953125 130 -52.9794921875 0 -88.0400390625 -85.9599609375 -91.220703125 85.9599609375 rlineto
            return
          </CharString>
          <CharString index="159">
            224.200195312 -675 57 675 230.200195312 57 -511.400390625 hlineto
            return
          </CharString>
          <CharString index="160">
            482.799804688 57 -408.580078125 hlineto
            408.580078125 618 0 57 -482.799804688 0 0 -57 408.580078125 0 -408.580078125 -618 rlineto
            return
          </CharString>
          <CharString index="161">
            117.33984375 -130 54.33984375 0 113.520507812 130 -52.98046875 0 -88.0400390625 -85.9599609375 -91.2197265625 85.9599609375 rlineto
            return
          </CharString>
          <CharString index="162">
            -11.6201171875 8.30078125 -7.6396484375 11.6201171875 vhcurveto
            36.7392578125 hlineto
            11.6201171875 7.640625 6.6396484375 12.6201171875 hvcurveto
            56.720703125 vlineto
            11.619140625 -6.640625 8.9599609375 -12.6201171875 vhcurveto
            -36.7392578125 hlineto
            -13.2802734375 -6.640625 -7.9599609375 -12.619140625 hvcurveto
            return
          </CharString>
          <CharString index="163">
            -149.66015625 -64.6796875 77.33984375 -132.3203125 115 16 rrcurveto
            44.3603515625 vlineto
            -96.6796875 0.2998046875 -8.7001953125 76.16015625 92.51953125 60.1796875 rrcurveto
            return
          </CharString>
          <CharString index="164">
            -103 44 -21.2001953125 94 vhcurveto
            147.799804688 hlineto
            53.1806640625 19.8193359375 -27.1396484375 -39.7607421875 hvcurveto
            -49 vlineto
            -71.2197265625 -57.01953125 3.6201171875 -15.98046875 vhcurveto
            return
          </CharString>
          <CharString index="165">
            -263.799804688 -41.0595703125 hlineto
            return
          </CharString>
          <CharString index="166">
            38 -4 176.799804688 -11.9404296875 49 0 rrcurveto
            64 66 15.599609375 109 hvcurveto
            49 vlineto
            75 -46.7392578125 48.900390625 -83.2607421875 vhcurveto
            -147.799804688 hlineto
            -49.919921875 -31.080078125 1.66015625 65.5400390625 hvcurveto
            46 vlineto
            46.919921875 10.2001953125 27.3798828125 70.7998046875 vhcurveto
            return
          </CharString>
          <CharString index="167">
            250.799804688 42.3798828125 hlineto
            return
          </CharString>
          <CharString index="168">
            -52 5 -146.799804688 8.6201171875 -52 0 rrcurveto
            -103 -35 -48.2998046875 -82 hvcurveto
            return
          </CharString>
          <CharString index="169">
            117.340820312 -130 54.33984375 0 113.51953125 130 -52.9794921875 0 -88.0400390625 -85.9599609375 -91.220703125 85.9599609375 rlineto
            return
          </CharString>
          <CharString index="170">
            3.03999328613 -89.7799987793 10.6799926758 -88.4400024414 37.0200042725 45.5599975586 7.25999450684 111.220001221 -8.5 44.2200012207 rlineto
            return
          </CharString>
          <CharString index="171">
            324.399414062 0 -309.059570312 -416 0 -57 380.66015625 0 rlineto
            0 0 1 56 -1 1 rrcurveto
            -306.440429688 0 306.440429688 416 0 57 -396 0 rlineto
            return
          </CharString>
          <CharString index="172">
            -11.6201171875 8.2998046875 -7.6396484375 11.6201171875 vhcurveto
            36.7392578125 hlineto
            11.6201171875 7.640625 6.6396484375 12.6201171875 hvcurveto
            56.720703125 vlineto
            11.619140625 -6.640625 8.9599609375 -12.6201171875 vhcurveto
            -36.7392578125 hlineto
            -13.2802734375 -6.6396484375 -7.9599609375 -12.619140625 hvcurveto
            return
          </CharString>
          <CharString index="173">
            57 319.799804688 hlineto
            return
          </CharString>
          <CharString index="174">
            1.7001953125 -1.01953125 194.900390625 -11.2802734375 18.01953125 -0.33984375 rrcurveto
            156.720703125 -307.16015625 61.2998046875 0 -156.379882812 309.139648438 rlineto
            42.9599609375 3.3203125 94.919921875 17.0205078125 0 189.319335938 rrcurveto
            170.419921875 -81.8203125 42.7802734375 -89.5595703125 vhcurveto
            -299.760742188 hlineto
            return
          </CharString>
          <CharString index="175">
            305.879882812 242.760742188 vlineto
            54.8798828125 58.5 -16.3798828125 -138.8203125 -142.859375 -56.16015625 -7.8203125 -57.2197265625 hvcurveto
            return
          </CharString>
          <CharString index="176">
            -72 59 -42 55 55 61 38 76 vhcurveto
            -35.779296875 hlineto
            0 -47.4404296875 -35.080078125 -30.439453125 -45.140625 -0.33984375 -40.1396484375 -0.33984375 -38.080078125 33.439453125 0 45.1201171875 rrcurveto
            return
          </CharString>
          <CharString index="177">
            -113 70 -13 66 vhcurveto
            295.80078125 57 -295.80078125 hlineto
            -37.5 -41.5 2.740234375 66.259765625 hvcurveto
            606 -57 vlineto
            return
          </CharString>
          <CharString index="178">
            265.540039062 hlineto
            190.280273438 69.3798828125 197 166 150 -34.3193359375 219 -225.340820312 hvcurveto
            -265.540039062 hlineto
            return
          </CharString>
          <CharString index="179">
            616.01953125 208.540039062 vlineto
            126.880859375 75.779296875 -89.51953125 -221.48046875 -151.959960938 -58.759765625 -153.059570312 -143.900390625 hvcurveto
            return
          </CharString>
          <CharString index="180">
            57 417.599609375 hlineto
            77 37 44.740234375 24.740234375 83.060546875 0 29 0 28.919921875 -2.66015625 16.080078125 -3.6796875 rrcurveto
            56 vlineto
            -14.720703125 6.33984375 -30.279296875 1.66015625 -29 0 -84.720703125 0 -59.080078125 -38 -61 -35 rrcurveto
            return
          </CharString>
          <CharString index="181">
            -18.599609375 67 -38.400390625 0 rlineto
            return
          </CharString>
          <CharString index="182">
            -137.940429688 49.560546875 -51.0595703125 79.3798828125 vhcurveto
            80.8603515625 39.400390625 hlineto
            -7 -76.900390625 17.599609375 0 hvcurveto
            -32.6396484375 6.6396484375 -36.2607421875 14.560546875 0 110.799804688 rrcurveto
            594 -57 vlineto
            return
          </CharString>
          <CharString index="183">
            -233 75.66015625 -38 99 vhcurveto
            83 1 61.1396484375 5 81 23 rrcurveto
            42.400390625 vlineto
            0 -133.139648438 -14.400390625 -92 -76.7607421875 -40.8994140625 38.98046875 171.01953125 198.1796875 47.1201171875 18.8203125 70.5400390625 89 128.799804688 -9.400390625 0 vhcurveto
            40.400390625 vlineto
            -67.2802734375 13.33984375 -98.51953125 12.66015625 -52 0 rrcurveto
            -102 -72.66015625 -38 -232 hvcurveto
            return
          </CharString>
          <CharString index="184">
            -149.66015625 -64.6796875 77.3408203125 -132.3203125 115 16 rrcurveto
            44.3603515625 vlineto
            -96.6806640625 0.2998046875 -8.7001953125 76.16015625 92.5205078125 60.1796875 rrcurveto
            return
          </CharString>
          <CharString index="185">
            117.33984375 -130 54.33984375 0 113.51953125 130 -52.9794921875 0 -88.0400390625 -85.9599609375 -91.2197265625 85.9599609375 rlineto
            return
          </CharString>
          <CharString index="186">
            -57 46 -45 56 56 44.6591796875 45 57 57 -44.6591796875 46 -56 -56 -46 -46 -57 vhcurveto
            return
          </CharString>
          <CharString index="187">
            36.1201171875 30.1005859375 30.099609375 36.1201171875 36.119140625 28.7607421875 -30.099609375 -36.1201171875 -36.1201171875 -28.7607421875 -29.099609375 -36.119140625 -36.1201171875 -30.1005859375 29.099609375 36.1201171875 vhcurveto
            return
          </CharString>
          <CharString index="188">
            93.900390625 -285.6796875 hlineto
            -137.940429688 49.5595703125 -51.0595703125 79.3798828125 vhcurveto
            80.8603515625 39.3994140625 hlineto
            -7 -76.900390625 17.6005859375 0 hvcurveto
            -32.6396484375 6.6396484375 -36.259765625 14.5595703125 0 110.80078125 rrcurveto
            return
          </CharString>
          <CharString index="189">
            285.6796875 161.799804688 57 vlineto
            return
          </CharString>
          <CharString index="190">
            -161.799804688 148 -42.400390625 hlineto
            return
          </CharString>
          <CharString index="191">
            -93.900390625 -14.599609375 rlineto
            return
          </CharString>
          <CharString index="192">
            -158 31 -120 153 vhcurveto
            45 0 84.4600067139 13 64 26 rrcurveto
            -133 vlineto
            1.52587890625e-05 -78.9600067139 -47.9799957275 -34.3999938965 -53.6800079346 1.36000061035 rrcurveto
            -247.800003052 5.10000610352 0 -37.1000061035 247.800003052 -24 rlineto
            69.3199920654 -7 89.3399963379 51 0 124 rrcurveto
            621.399993896 vlineto
            -46.9999847412 4 -97.4600067139 15.6000061035 -106 0 rrcurveto
            -125 -59 -101 -168 hvcurveto
            return
          </CharString>
          <CharString index="193">
            92.2400054932 17.9600067139 119.759994507 109.039993286 vhcurveto
            193.460006714 -404.600006104 hlineto
            -82.9999847412 -21 -36.4600067139 -7.39999389648 -74 0 rrcurveto
            -114.679992676 -12.3200073242 103.740005493 117.259994507 hvcurveto
            return
          </CharString>
          <CharString index="194">
            376.679992676 57 -376.679992676 hlineto
            return
          </CharString>
          <CharString index="195">
            15.2200012207 -29.7799987793 rlineto
            36.6600036621 18.0800018311 18.7599945068 21.3600006104 41.9600067139 0.660003662109 rrcurveto
            return
          </CharString>
          <CharString index="196">
            34.9799957275 0.65998840332 27.2400054932 -45.9400024414 51.2399902344 -1.97999572754 42 -1.31999206543 36.9400024414 36.2599945068 33 27.7200012207 rrcurveto
            -16.5599975586 30.1000061035 rlineto
            -28.9400024414 -17.6800079346 -36.0199890137 -24.7599945068 -29.1000061035 0.65998840332 rrcurveto
            return
          </CharString>
          <CharString index="197">
            -29.3600006104 0.660003662109 -37.8399963379 45.2799987793 -46.2600097656 1.98001098633 rrcurveto
            -40.3199920654 0 -35.6399993896 -29.9800109863 -37.9600067139 -31.9799957275 rrcurveto
            return
          </CharString>
          <CharString index="198">
            -11.6201171875 8.2998046875 -7.6396484375 11.6201171875 vhcurveto
            38.7197265625 hlineto
            11.6201171875 8.9599609375 4.66015625 14.599609375 hvcurveto
            58.7001953125 vlineto
            12.9404296875 -5.9794921875 7.6396484375 -14.6005859375 vhcurveto
            -38.7197265625 hlineto
            -13.2802734375 -6.6396484375 -7.9599609375 -12.6201171875 hvcurveto
            return
          </CharString>
          <CharString index="199">
            -232.13999939 -8.63999938965 0 -43.0399932861 rlineto
            return
          </CharString>
          <CharString index="200">
            -289.5 0 -0.339996337891 -35.7799987793 rlineto
            return
          </CharString>
          <CharString index="201">
            26.5200042725 -32.9199981689 375.86000061 0 0 -193.5 57 0 0 193.5 rlineto
            return
          </CharString>
          <CharString index="202">
            90 15.9400024414 0 43.6999969482 rlineto
            return
          </CharString>
          <CharString index="203">
            -90 291.86000061 -29.8399963379 hlineto
            -27.1600036621 -75 0 -216.86000061 -315.960006714 0 297.740005493 476.86000061 -67.2599945068 0 rlineto
            return
          </CharString>
          <CharString index="204">
            -1.52587890625e-05 -310.919998169 79 -73.4199981689 109 -0.660003662109 rrcurveto
            138.800003052 hlineto
            94 67 37 112 hvcurveto
            124.199996948 vlineto
            79.3599853516 -25.6800079346 68.6199951172 -135.319992065 vhcurveto
            return
          </CharString>
          <CharString index="205">
            -74 0 -110.800003052 -7.59999084473 -85 -10 1.32000732422 93.5200042725 20.0399932861 184.899993896 103.240005493 0 rrcurveto
            return
          </CharString>
          <CharString index="206">
            -86.0800018311 10.9600067139 -104.720001221 4.63999938965 -101 0 rrcurveto
            -86.0599975586 -85.9400024414 -91.3800048828 -262.619995117 hvcurveto
            return
          </CharString>
          <CharString index="207">
            269.800003052 hlineto
            56.1999969482 48.8000030518 -14.6799926758 -75.9600067139 hvcurveto
            -120.919998169 vlineto
            -82.2200012207 -50.2600097656 -13.0599975586 -54.7399902344 vhcurveto
            -138.800003052 hlineto
            -121.560012817 -9.44000244141 191.759994507 115.080001831 hvcurveto
            return
          </CharString>
          <CharString index="208">
            -41 4 -113 172 vhcurveto
            134.800003052 hlineto
            64.0000152588 99 24 130 hvcurveto
            98 vlineto
            0.660003662109 49.8000030518 -22 66.7799987793 -59.4400024414 13.3999938965 66.5600128174 11.2600097656 14.879989624 72.879989624 -0.65998840332 32.8800048828 rrcurveto
            65 vlineto
            1.52587890625e-05 123 -55 50 -107 0 rrcurveto
            -135.800003052 hlineto
            -103 -73 -39 -134 hvcurveto
            -65 vlineto
            0 -53 18.6199951172 -65 71.4799957275 -19.6199951172 -39.6599884033 -8.58000183105 -50.4400024414 -25.7799987793 0 -74.6800079346 rrcurveto
            return
          </CharString>
          <CharString index="209">
            105 vlineto
            68.8000030518 62 20.6999969482 46 vhcurveto
            148.800003052 hlineto
            46.0400085449 56.9600067139 -15.8399963379 -73.6600036621 hvcurveto
            -105 vlineto
            1.52587890625e-05 -67.6199951172 -56.8800048828 -26.3800048828 -49.1199951172 0 rrcurveto
            -134.800003052 hlineto
            -77.0800018311 -41.9199981689 30.0399932861 63.9600067139 hvcurveto
            return
          </CharString>
          <CharString index="210">
            68 vlineto
            94.7599945068 39.6999969482 23.2400054932 79.3000030518 vhcurveto
            135.800003052 hlineto
            70.5600128174 34.4400024414 -31.7599945068 -86.2400054932 hvcurveto
            -68 vlineto
            1.52587890625e-05 -39.3999938965 -21.8400115967 -53.1000061035 -81.1599884033 0 rrcurveto
            -148.800003052 hlineto
            -44.8800048828 -63.1199951172 13.9400024414 78.5599975586 hvcurveto
            return
          </CharString>
          <CharString index="211">
            -11.6201171875 8.2998046875 -7.640625 11.6201171875 vhcurveto
            36.740234375 hlineto
            11.6201171875 7.6396484375 6.640625 12.6201171875 hvcurveto
            56.7197265625 vlineto
            11.6201171875 -6.6396484375 8.9599609375 -12.6201171875 vhcurveto
            -36.740234375 hlineto
            -13.279296875 -6.640625 -7.9599609375 -12.6201171875 hvcurveto
            return
          </CharString>
          <CharString index="212">
            53.640625 0 93.6396484375 85.9599609375 84.9404296875 -85.9599609375 52.9794921875 0 -109.439453125 130 -53.66015625 0 rlineto
            return
          </CharString>
          <CharString index="213">
            -72 59 -42 55 55 61 38 76 vhcurveto
            -35.7802734375 hlineto
            0 -47.4404296875 -35.080078125 -30.439453125 -45.1396484375 -0.33984375 -40.1396484375 -0.33984375 -38.080078125 33.439453125 0 45.1201171875 rrcurveto
            return
          </CharString>
          <CharString index="214">
            0 -210.299804688 25.900390625 -166.700195312 207 2 90 0 84.01953125 36.400390625 35.2802734375 19.2998046875 rrcurveto
            13.2802734375 -50.7001953125 41.7197265625 0 0 386 rlineto
            -24 2 -23 1 -21 0 rrcurveto
            return
          </CharString>
          <CharString index="215">
            -81 0 -51.640625 -9.240234375 -40 -11 rrcurveto
            -37.759765625 183.640625 -232.299804688 vlineto
            0 0 -130.620117188 -48.0205078125 -76.6796875 0.66015625 -135.240234375 1.3203125 -40.66015625 84.5 0 230.83984375 0 207.099609375 28 107.900390625 143.559570312 0 97.30078125 0 149 -15.400390625 6 0 rrcurveto
            45.400390625 vlineto
            -70 13 -130.30078125 14 -52 0 rrcurveto
            -199 -29.5595703125 -170 -200 hvcurveto
            return
          </CharString>
          <CharString index="216">
            -11.6201171875 8.2998046875 -7.6396484375 11.6201171875 vhcurveto
            36.740234375 hlineto
            11.6201171875 7.6396484375 6.6396484375 12.6201171875 hvcurveto
            56.720703125 vlineto
            11.619140625 -6.6396484375 8.9599609375 -12.6201171875 vhcurveto
            -36.740234375 hlineto
            -13.279296875 -6.640625 -7.9599609375 -12.619140625 hvcurveto
            return
          </CharString>
          <CharString index="217">
            53.640625 0 93.6396484375 85.9599609375 84.939453125 -85.9599609375 52.98046875 0 -109.440429688 130 -53.6591796875 0 rlineto
            return
          </CharString>
          <CharString index="218">
            0 -22.580078125 6.619140625 -27.0302734375 20.8603515625 -16.4296875 rrcurveto
            -30.4794921875 -78.6005859375 0 -88.0595703125 rlineto
            -102.299804688 64.6396484375 -51.7001953125 94 vhcurveto
            150 hlineto
            131 19 90.599609375 60 hvcurveto
            59.6005859375 vlineto
            81.6396484375 -47.7939453125 54.66015625 -86.646484375 vhcurveto
            -210.620117188 hlineto
            -24.1748046875 -30.0849609375 10.7197265625 30.7607421875 34.83984375 41.3203125 4.33984375 16 hvcurveto
            156 hlineto
            return
          </CharString>
          <CharString index="219">
            142 23 126.83984375 60 hvcurveto
            0 87.2802734375 -27.8203125 26.439453125 -13.3798828125 18.2802734375 rrcurveto
            return
          </CharString>
          <CharString index="220">
            91.2001953125 15.2802734375 0 41.7197265625 rlineto
            return
          </CharString>
          <CharString index="221">
            -312 hlineto
            -111.759765625 -60.900390625 -60.2998046875 -128.700195312 hvcurveto
            0 -55.0400390625 13.66015625 -65.6796875 54.2001953125 -28.6806640625 rrcurveto
            -46.9501953125 -5.9599609375 -20.8896484375 -39.9599609375 0 -31.9794921875 rrcurveto
            return
          </CharString>
          <CharString index="222">
            150.98046875 vlineto
            0 18.759765625 -15.140625 38.8203125 vhcurveto
            200.69921875 hlineto
            68.7861328125 17.234375 -31.859375 -51.080078125 hvcurveto
            -56.30078125 vlineto
            -62.9794921875 -30.259765625 -30.6201171875 -62.740234375 vhcurveto
            -150 hlineto
            -36.7001953125 -64.599609375 10.740234375 86.259765625 hvcurveto
            return
          </CharString>
          <CharString index="223">
            69.6201171875 20.740234375 62.3798828125 91.51953125 vhcurveto
            109.720703125 hlineto
            return
          </CharString>
          <CharString index="224">
            69.1396484375 0 27.5595703125 -47.0400390625 1.98046875 -84.9599609375 1.3203125 -56.1796875 -24.4404296875 -73.3203125 -89.51953125 0 rrcurveto
            -99.3603515625 hlineto
            -79.7197265625 -28.9404296875 61.1201171875 68.3798828125 hvcurveto
            return
          </CharString>
          <CharString index="225">
            -11.6201171875 8.2998046875 -7.6396484375 11.6201171875 vhcurveto
            36.7392578125 hlineto
            11.6201171875 7.640625 6.6396484375 12.6201171875 hvcurveto
            56.7197265625 vlineto
            11.6201171875 -6.640625 8.9599609375 -12.6201171875 vhcurveto
            -36.7392578125 hlineto
            -13.2802734375 -6.6396484375 -7.9599609375 -12.6201171875 hvcurveto
            return
          </CharString>
          <CharString index="226">
            -158 31 -120 153 vhcurveto
            45 0 84.4599609375 13 64 26 rrcurveto
            -133 vlineto
            0 -78.9599609375 -47.98046875 -34.400390625 -53.6796875 1.3603515625 rrcurveto
            -247.799804688 5.099609375 0 -37.099609375 247.799804688 -24 rlineto
            69.3203125 -7 89.33984375 51 0 124 rrcurveto
            621.400390625 vlineto
            -47 4 -97.4599609375 15.599609375 -106 0 rrcurveto
            -125 -59 -101 -168 hvcurveto
            return
          </CharString>
          <CharString index="227">
            92.240234375 17.9599609375 119.759765625 109.040039062 vhcurveto
            193.459960938 -404.599609375 hlineto
            -83 -21 -36.4599609375 -7.400390625 -74 0 rrcurveto
            -114.6796875 -12.3203125 103.740234375 117.259765625 hvcurveto
            return
          </CharString>
          <CharString index="228">
            -98.3200073242 -15.3000030518 rlineto
            return
          </CharString>
          <CharString index="229">
            -94.9199981689 -14.6199951172 rlineto
            return
          </CharString>
          <CharString index="230">
            -12.5458984375 8.064453125 -6.2822265625 10.4580078125 vhcurveto
            return
          </CharString>
          <CharString index="231">
            8.3701171875 -29.232421875 hlineto
            0 -8.3701171875 -0.900390625 -15.2275390625 -22.41015625 0.59375 rrcurveto
            -20.84375 vlineto
            0 66.2216796875 -13.4462890625 68.669921875 hvcurveto
            return
          </CharString>
          <CharString index="232">
            87.732421875 vlineto
            11.357421875 -4.4814453125 8.658203125 -13.4462890625 vhcurveto
            -33.353515625 hlineto
            -11.9521484375 -6.5703125 -6.5693359375 -13.4462890625 hvcurveto
            return
          </CharString>
          <CharString index="233">
            -29.3603515625 0.66015625 -37.83984375 45.2802734375 -46.259765625 1.9794921875 rrcurveto
            -40.3203125 0 -35.6396484375 -29.9794921875 -37.9609375 -31.98046875 rrcurveto
            return
          </CharString>
          <CharString index="234">
            8.3701171875 -29.232421875 hlineto
            0 -8.3701171875 -0.900390625 -15.2275390625 -22.41015625 0.59375 rrcurveto
            -20.84375 vlineto
            0 66.22265625 -13.4462890625 68.669921875 hvcurveto
            return
          </CharString>
          <CharString index="235">
            87.732421875 vlineto
            11.357421875 -4.482421875 8.658203125 -13.4462890625 vhcurveto
            -33.353515625 hlineto
            -11.9521484375 -6.5703125 -6.5693359375 -13.4462890625 hvcurveto
            return
          </CharString>
          <CharString index="236">
            278.399414062 46.6796875 -278.399414062 hlineto
            return
          </CharString>
          <CharString index="237">
            15.220703125 -29.779296875 rlineto
            36.6591796875 18.080078125 18.7607421875 21.359375 41.9599609375 0.66015625 rrcurveto
            return
          </CharString>
          <CharString index="238">
            -29.359375 0.66015625 -37.83984375 45.2802734375 -46.2607421875 1.9794921875 rrcurveto
            -40.3193359375 0 -35.640625 -29.9794921875 -37.9599609375 -31.98046875 rrcurveto
            return
          </CharString>
          <CharString index="239">
            -12.5458984375 8.0634765625 -6.2822265625 10.4580078125 vhcurveto
            return
          </CharString>
          <CharString index="240">
            8.3701171875 -29.232421875 hlineto
            0 -8.3701171875 -0.8994140625 -15.2275390625 -22.41015625 0.59375 rrcurveto
            -20.84375 vlineto
            0 66.2216796875 -13.4462890625 68.669921875 hvcurveto
            return
          </CharString>
          <CharString index="241">
            87.732421875 vlineto
            11.357421875 -4.482421875 8.658203125 -13.4453125 vhcurveto
            -33.3544921875 hlineto
            -11.9521484375 -6.5693359375 -6.5693359375 -13.4462890625 hvcurveto
            return
          </CharString>
          <CharString index="242">
            278.400390625 46.6796875 -278.400390625 hlineto
            return
          </CharString>
          <CharString index="243">
            -11.6201171875 8.2998046875 -7.640625 11.6201171875 vhcurveto
            36.7392578125 hlineto
            11.6201171875 7.640625 6.640625 12.6201171875 hvcurveto
            56.7197265625 vlineto
            11.6201171875 -6.640625 8.9599609375 -12.6201171875 vhcurveto
            -36.7392578125 hlineto
            -13.2802734375 -6.6396484375 -7.9599609375 -12.6201171875 hvcurveto
            return
          </CharString>
          <CharString index="244">
            34.9794921875 0.66015625 27.240234375 -45.9404296875 51.240234375 -1.9794921875 42 -1.3203125 36.939453125 36.259765625 33 27.7197265625 rrcurveto
            -16.5595703125 30.1005859375 rlineto
            -28.9404296875 -17.6796875 -36.01953125 -24.7607421875 -29.1005859375 0.66015625 rrcurveto
            return
          </CharString>
          <CharString index="245">
            -11.6201171875 8.2998046875 -7.6396484375 11.6201171875 vhcurveto
            36.740234375 hlineto
            11.619140625 7.640625 6.6396484375 12.6201171875 hvcurveto
            56.720703125 vlineto
            11.619140625 -6.640625 8.9599609375 -12.619140625 vhcurveto
            -36.740234375 hlineto
            -13.2802734375 -6.6396484375 -7.9599609375 -12.619140625 hvcurveto
            return
          </CharString>
          <CharString index="246">
            -85 29 -40 98 vhcurveto
            45.3399963379 hlineto
            101.000015259 28 40 85 hvcurveto
            62.3399963379 vlineto
            1.52587890625e-05 85 -29 40 -98 0 rrcurveto
            -45.3399963379 hlineto
            -101 -28 -40 -85 hvcurveto
            return
          </CharString>
          <CharString index="247">
            62.3399963379 vlineto
            59.9600067139 15.8600006104 17.0399932861 65.1399993896 vhcurveto
            45.3399963379 hlineto
            60.2600097656 18.7400054932 -18.1399993896 -58.8600006104 hvcurveto
            -62.3399963379 vlineto
            1.52587890625e-05 -59.9599914551 -16.5400085449 -17.0400085449 -64.4599914551 0 rrcurveto
            -45.3399963379 hlineto
            -57.5399932861 -21.4600067139 15.4199981689 61.5800018311 hvcurveto
            return
          </CharString>
          <CharString index="248">
            54 0 343.279998779 570 -54 0 rlineto
            return
          </CharString>
          <CharString index="249">
            -85 29 -40 98 vhcurveto
            45.3399963379 hlineto
            101 28 40 85 hvcurveto
            62.3399963379 vlineto
            85.0000152588 -29 40 -98 vhcurveto
            -45.3399963379 hlineto
            -101 1.52587890625e-05 -28 -40 0 -85 rrcurveto
            return
          </CharString>
          <CharString index="250">
            296.199996948 6.66000366211 0 45.0200042725 rlineto
            return
          </CharString>
          <CharString index="251">
            278.199996948 45.0200042725 hlineto
            return
          </CharString>
          <CharString index="252">
            -280.199996948 10.9799957275 rlineto
            -63.9999847412 -40 -30.6399993896 -59.3600006104 hvcurveto
            return
          </CharString>
          <CharString index="253">
            57 570 -57 hlineto
            return
          </CharString>
          <CharString index="254">
            1.52587890625e-05 -55 33 -31 53 0 rrcurveto
            292.600006104 57 -273.399993896 hlineto
            -29.1000061035 0 -19.7599945068 6.44000244141 0.660003662109 34.1600036621 rrcurveto
            472.399993896 -57 vlineto
            return
          </CharString>
          <CharString index="255">
            1.52587890625e-05 -249 82.8999938965 -36 161 0 rrcurveto
            168 76.8999938965 47 245 256 -81.2200012207 32 -163.679992676 -166 -77.8999938965 -51 -244 hvcurveto
            return
          </CharString>
          <CharString index="256">
            57 248.16015625 hlineto
            1 -2 149.680664062 -9.9599609375 30 -2 rrcurveto
            131.399414062 -234.200195312 65.2998046875 0 -137.359375 240.48046875 rlineto
            78.580078125 4.619140625 41.279296875 72.4599609375 0 91.7607421875 rrcurveto
            134 -93 27.6796875 -60 vhcurveto
            -263.879882812 hlineto
            return
          </CharString>
          <CharString index="257">
            222.799804688 206.879882812 vlineto
            23.66015625 72.33984375 -8.580078125 -97.099609375 -100.040039062 -57.599609375 -17.080078125 -35 hvcurveto
            return
          </CharString>
          <CharString index="258">
            -55 33 -31 53 vhcurveto
            292.600585938 57 -273.400390625 hlineto
            -29.099609375 0 -19.759765625 6.4404296875 0.6591796875 34.1591796875 rrcurveto
            472.400390625 -57 vlineto
            return
          </CharString>
          <CharString index="259">
            -96 44 -26.5 94 vhcurveto
            156.400390625 hlineto
            53.51953125 19.48046875 -20 -43.5 hvcurveto
            -70 vlineto
            -17 -18.060546875 -54 -54.939453125 -96 -176.400390625 4.01953125 0 vhcurveto
            -41.0595703125 vlineto
            37 -12 186.400390625 -7.9599609375 49 0 rrcurveto
            55 75 19 109 hvcurveto
            70 vlineto
            75 -43 45.5 -87 vhcurveto
            -156.400390625 hlineto
            -48.2197265625 -32.7802734375 -2.3203125 67.8203125 hvcurveto
            61.7197265625 vlineto
            48.2802734375 20.16015625 33 60.83984375 98 161.400390625 -4.6796875 0 vhcurveto
            42.3798828125 vlineto
            -67 9 -140.400390625 9.2998046875 -52 0 rrcurveto
            -103 -35 -55.2802734375 -82 hvcurveto
            return
          </CharString>
          <CharString index="260">
            -52 34 -33 50 vhcurveto
            return
          </CharString>
          <CharString index="261">
            300.200195312 12.98046875 0 44.01953125 rlineto
            return
          </CharString>
          <CharString index="262">
            -283.040039062 hlineto
            -17.939453125 -26.220703125 3.33984375 39.2001953125 hvcurveto
            0 157.959960938 rlineto
            return
          </CharString>
          <CharString index="263">
            296.200195312 6.66015625 0 45.01953125 rlineto
            return
          </CharString>
          <CharString index="264">
            -296.200195312 7.3203125 0 156.280273438 rlineto
            27.3994140625 5.740234375 16.8203125 43.259765625 vhcurveto
            return
          </CharString>
          <CharString index="265">
            278.200195312 45.01953125 hlineto
            return
          </CharString>
          <CharString index="266">
            -280.200195312 10.98046875 rlineto
            -64 -40 -30.6396484375 -59.3603515625 hvcurveto
            return
          </CharString>
          <CharString index="267">
            422.599609375 57 -344.399414062 hlineto
            344.399414062 456 0 57 -422.599609375 0 0 -57 348.059570312 0 -348.059570312 -456 rlineto
            return
          </CharString>
          <CharString index="268">
            62.2998046875 0 68.419921875 162.200195312 253.700195312 0 64.080078125 -162.200195312 62.2998046875 0 -217.399414062 570 -57 0 rlineto
            return
          </CharString>
          <CharString index="269">
            109.98046875 270.979492188 100.959960938 -270.979492188 rlineto
            return
          </CharString>
          <CharString index="270">
            34.9794921875 0.66015625 27.240234375 -45.9404296875 51.240234375 -1.9794921875 42 -1.3203125 36.9404296875 36.259765625 33 27.720703125 rrcurveto
            -16.560546875 30.099609375 rlineto
            -28.939453125 -17.6796875 -36.0205078125 -24.759765625 -29.099609375 0.6591796875 rrcurveto
            return
          </CharString>
          <CharString index="271">
            -138 23 -161 181 vhcurveto
            77 0 87.599609375 13.6201171875 58 11 rrcurveto
            42.3798828125 vlineto
            0 0 -149.599609375 -8 -73 -2 -119.419921875 1.3203125 -27.580078125 102.1796875 0 138.5 0 145 37.8603515625 81 109.139648438 0 65 0 142.599609375 -7 15 -3 rrcurveto
            43.7001953125 vlineto
            -51 12 -128.599609375 11.2998046875 -43 0 rrcurveto
            -170 -34 -138 -145 hvcurveto
            return
          </CharString>
          <CharString index="272">
            -11.6201171875 8.2998046875 -7.6396484375 11.6201171875 vhcurveto
            36.740234375 hlineto
            11.6201171875 7.6396484375 6.6396484375 12.6201171875 hvcurveto
            56.7197265625 vlineto
            11.6201171875 -6.6396484375 8.9599609375 -12.6201171875 vhcurveto
            -36.740234375 hlineto
            -13.2802734375 -6.6396484375 -7.9599609375 -12.6201171875 hvcurveto
            return
          </CharString>
          <CharString index="273">
            66.3200073242 -269.800003052 227.559997559 hlineto
            50.0999908447 164.940002441 0.339996337891 282.660003662 hvcurveto
            0 123 -41.6800079346 164.660003662 -170.059997559 0.679992675781 -16.5 0 -206.440002441 1.32000732422 -7.91999816895 -0.660003662109 rrcurveto
            -261.800003052 -66.3200073242 vlineto
            return
          </CharString>
          <CharString index="274">
            212.13999939 107.839996338 40.3999938965 -107.839996338 202.160003662 161.979995728 vlineto
            87.0599975586 1.52587890625e-05 72.299987793 -60.0599975586 0 -169.300003052 rrcurveto
            -126.220001221 -33.7399902344 -99.1199951172 -129.580001831 vhcurveto
            return
          </CharString>
          <CharString index="275">
            -12.546875 8.064453125 -6.28125 10.4580078125 vhcurveto
            return
          </CharString>
          <CharString index="276">
            87.732421875 vlineto
            11.357421875 -4.482421875 8.658203125 -13.4462890625 vhcurveto
            -33.353515625 hlineto
            -11.9521484375 -6.5703125 -6.5703125 -13.4453125 hvcurveto
            return
          </CharString>
          <CharString index="277">
            57 468.599609375 hlineto
            346.200195312 -468.599609375 53 0 0 571 -56 0 0 -465.620117188 -346.200195312 465.620117188 -54 0 rlineto
            return
          </CharString>
          <CharString index="278">
            278.399414062 46.6806640625 -278.399414062 hlineto
            return
          </CharString>
          <CharString index="279">
            -249 82.900390625 -36 161 168 76.8994140625 47 245 256 -81.2197265625 32 -163.6796875 -166 -77.900390625 -51 -244 vhcurveto
            return
          </CharString>
          <CharString index="280">
            0.33984375 221 71.5 12 115.060546875 0 133.080078125 0 52.779296875 -14.2998046875 2.0400390625 -216.700195312 1.7001953125 -211.559570312 -70.4404296875 -23.4404296875 -119.159179688 0 -132.940429688 0 -54.2998046875 26.83984375 0.33984375 206.16015625 rrcurveto
            return
          </CharString>
          <CharString index="281">
            -1 -239 103.015625 -26 133.584960938 0 rrcurveto
            120.354492188 110.245117188 32 233 hvcurveto
            310 -58 -310 vlineto
            -169.139648438 -61.62890625 -38.8603515625 -110.970703125 vhcurveto
            -125.823242188 0 -52.4375 36.48046875 0.66015625 171.51953125 rrcurveto
            310 -58 vlineto
            return
          </CharString>
          <CharString index="282">
            217.099609375 -380 0 -191 57 0 0 191 215.100585938 380 -63.3203125 0 -179.620117188 -319.6796875 -182.939453125 319.6796875 rlineto
            return
          </CharString>
          <CharString index="283">
            -1.52587890625e-05 -17.2599945068 11.620010376 -7.63999938965 13.2799987793 0 rrcurveto
            return
          </CharString>
          <CharString index="284">
            -17.2599945068 10.9599914551 -7.63999938965 13.2799987793 vhcurveto
            return
          </CharString>
          <CharString index="285">
            -17.2599945068 12.2799987793 -7.63999938965 13.2799987793 vhcurveto
            return
          </CharString>
          <CharString index="286">
            196.200195312 -513 57 513 196.200195312 57 -449.400390625 hlineto
            return
          </CharString>
          <CharString index="287">
            -11.6201171875 8.2998046875 -7.6396484375 11.6201171875 vhcurveto
            36.740234375 hlineto
            11.6201171875 7.6396484375 6.6396484375 12.6201171875 hvcurveto
            56.720703125 vlineto
            11.619140625 -6.6396484375 8.9599609375 -12.6201171875 vhcurveto
            -36.740234375 hlineto
            -13.2802734375 -6.6396484375 -7.9599609375 -12.619140625 hvcurveto
            return
          </CharString>
          <CharString index="288">
            -72 59 -42 55 55 61 38 76 vhcurveto
            -35.7802734375 hlineto
            0 -47.4404296875 -35.080078125 -30.439453125 -45.1396484375 -0.33984375 -40.140625 -0.33984375 -38.080078125 33.439453125 0 45.1201171875 rrcurveto
            return
          </CharString>
          <CharString index="289">
            240.200195312 hlineto
            60 159 1 282 hvcurveto
            0 123 -43 164 -176 2 rrcurveto
            -240.200195312 hlineto
            return
          </CharString>
          <CharString index="290">
            0 -50 6 -244 207 1 60 0 76.7802734375 20.400390625 53 34 rrcurveto
            return
          </CharString>
          <CharString index="291">
            13.2998046875 -47.400390625 41.7197265625 0 0 308 rlineto
            -24 2 -22 1 -21 0 rrcurveto
            return
          </CharString>
          <CharString index="292">
            -81 0 -42.580078125 -10.259765625 -51.2197265625 -9.640625 rrcurveto
            -37.099609375 184.799804688 -149.599609375 vlineto
            -22 -17 -84.7998046875 -38.060546875 -81 0 rrcurveto
            -117 -39 127.66015625 111 183.8203125 43.4404296875 50.1796875 112.559570312 hvcurveto
            91.2802734375 0 77.51953125 -7.6796875 62 -6 rrcurveto
            45.6796875 vlineto
            -61.0595703125 12.7001953125 -126.740234375 12.2998046875 -43 0 rrcurveto
            -172 -41 -109 -184 hvcurveto
            return
          </CharString>
          <CharString index="293">
            -11.6201171875 8.2998046875 -7.640625 11.6201171875 vhcurveto
            36.740234375 hlineto
            11.6201171875 7.6396484375 6.640625 12.6201171875 hvcurveto
            56.7197265625 vlineto
            11.6201171875 -6.6396484375 8.9599609375 -12.6201171875 vhcurveto
            -36.740234375 hlineto
            -13.2802734375 -6.6396484375 -7.9599609375 -12.6201171875 hvcurveto
            return
          </CharString>
          <CharString index="294">
            -11.6201171875 8.30078125 -7.6396484375 11.6201171875 vhcurveto
            36.7392578125 hlineto
            11.6201171875 7.640625 6.6396484375 12.6201171875 hvcurveto
            56.7197265625 vlineto
            11.6201171875 -6.640625 8.9599609375 -12.6201171875 vhcurveto
            -36.7392578125 hlineto
            -13.2802734375 -6.640625 -7.9599609375 -12.6201171875 hvcurveto
            return
          </CharString>
          <CharString index="295">
            258.69921875 -732 60.400390625 0 126.780273438 381.48046875 144.819335938 -381.48046875 60.400390625 0 237.5 732 -61.6201171875 0 -207.740234375 -642.66015625 -143.19921875 385.879882812 79.8994140625 256.780273438 -64.2802734375 0 -202.759765625 -638.700195312 -226.599609375 638.700195312 rlineto
            return
          </CharString>
          <CharString index="296">
            201.970703125 -531 62.1796875 0 96.5703125 274.51953125 123.609375 -274.51953125 58.16015625 0 205.969726562 531 -61.859375 0 -175.200195312 -448.0703125 -122.599609375 268.5 60.599609375 179.5703125 -61.51953125 0 -155.490234375 -448.0703125 -169.870117188 448.0703125 rlineto
            return
          </CharString>
          <CharString index="297">
            -11.6201171875 8.2998046875 -7.6396484375 11.6201171875 vhcurveto
            36.740234375 hlineto
            11.6201171875 7.6396484375 6.6396484375 12.6201171875 hvcurveto
            56.7197265625 vlineto
            11.6201171875 -6.6396484375 8.9599609375 -12.6201171875 vhcurveto
            -36.740234375 hlineto
            -13.279296875 -6.640625 -7.9599609375 -12.6201171875 hvcurveto
            return
          </CharString>
          <CharString index="298">
            215.66015625 -570 58.9599609375 0 109.240234375 305.580078125 119.51953125 -305.580078125 56.3203125 0 207.01953125 570 -58.33984375 0 -176.51953125 -485.48046875 -118.16015625 299.640625 65.2998046875 185.83984375 -61.6396484375 0 -173.880859375 -485.48046875 -180.83984375 485.48046875 rlineto
            return
          </CharString>
          <CharString index="299">
            57.66015625 646.700195312 hlineto
            0 36.7197265625 42.48046875 6.7001953125 12.099609375 -31.3203125 rrcurveto
            255.940429688 -609.120117188 rlineto
            37.2802734375 -93.66015625 126.0390625 32.6005859375 0 90.3798828125 rrcurveto
            653 -57 -649.059570312 vlineto
            -0.6796875 -32 -40.8203125 -11.4404296875 -13.439453125 35.33984375 rrcurveto
            -253.959960938 605.16015625 rlineto
            -36.2802734375 87.01953125 -129.3203125 -13.01953125 0 -102 rrcurveto
            return
          </CharString>
          <CharString index="300">
            57 444.299804688 hlineto
            89 33 42.80078125 5.7001953125 71 0 rrcurveto
            62.8994140625 44.1005859375 -42.580078125 -70.419921875 hvcurveto
            -370 57 370 vlineto
            88 -58 82 -106 vhcurveto
            -108 0 -40.80078125 -13 -111 -44 rrcurveto
            return
          </CharString>
          <CharString index="301">
            57 444.299804688 hlineto
            99 37 80.4599609375 8.7197265625 101.340820312 -9.6796875 rrcurveto
            57.66015625 vlineto
            -163 14 -70.7607421875 -25.419921875 -104.040039062 -43.580078125 rrcurveto
            return
          </CharString>
          <CharString index="302">
            -113 75.66015625 -18 61 vhcurveto
            133.799804688 hlineto
            106 49 52 104 hvcurveto
            109.400390625 vlineto
            0 204.259765625 -35.66015625 66.33984375 -140 1 -99 1 -68.1796875 -16.259765625 -71.9599609375 -11.33984375 rrcurveto
            -41.720703125 vlineto
            89.1796875 5.33984375 75.2998046875 5.98046875 72 0 73.9404296875 0.66015625 47.0400390625 -16.560546875 0 -147.099609375 rrcurveto
            -231.459960938 hlineto
            -96 -40.66015625 -45 -77 hvcurveto
            return
          </CharString>
          <CharString index="303">
            64 vlineto
            0 47.6201171875 27.16015625 15.0400390625 52.5 3 rrcurveto
            231.459960938 13.9599609375 0 -118.620117188 rlineto
            -56.5400390625 -12.8203125 -42.4599609375 -84.83984375 vhcurveto
            -133.799804688 hlineto
            -63.1201171875 -16.5400390625 28.3798828125 45.6201171875 hvcurveto
            return
          </CharString>
          <CharString index="304">
            -88 58 -82 106 vhcurveto
            108 0 54.66015625 5.080078125 97.1396484375 32.1201171875 rrcurveto
            502.799804688 -57 -460.799804688 vlineto
            -61.2802734375 -15.8408203125 -70.51953125 -6.359375 -71 0 rrcurveto
            -62.900390625 -44.099609375 42.580078125 70.419921875 hvcurveto
            370 -57 vlineto
            return
          </CharString>
          <CharString index="305">
            -168 59 -101 125 vhcurveto
            106 0 96.7799987793 13.9000091553 47.6800079346 5.36000061035 rrcurveto
            776.720001221 -57 -287.979995728 vlineto
            -63.9999847412 26 -84.4600067139 13 -45 0 rrcurveto
            -153 -31 -120 -158 hvcurveto
            return
          </CharString>
          <CharString index="306">
            112.160003662 9.60000610352 108.839996338 117.399993896 vhcurveto
            74 0 36.4600067139 -6.03999328613 83 -21 rrcurveto
            -405.960006714 -193.460006714 vlineto
            -111.419998169 -15.5800018311 123.839996338 88.1600036621 hvcurveto
            return
          </CharString>
          <CharString index="307">
            -1.52587890625e-05 -141 55 -48 78.0200042725 0 rrcurveto
            82.8999938965 39.3999938965 hlineto
            -7 -76.8999938965 17.6000061035 0 hvcurveto
            -47.9400024414 9.02000427246 -27.0800018311 28.8399963379 0 94.1399993896 rrcurveto
            285 171.660003662 57 -171.660003662 148 -57 vlineto
            return
          </CharString>
        <CharString name=".notdef">
          195 0 13 505 13 hstem
          106.800003052 14 530 14 vstem
          650.800003052 506 rmoveto
          0 -481 -252 241 rlineto
          -264.999984741 -253 rmoveto
          254 243 253 -243 rlineto
          -519.999984741 9 rmoveto
          0 485 256 -241 rlineto
          265.000015259 252 rmoveto
          -254 -242 -257 242 rlineto
          -23.9999847412 -518 rmoveto
          558 531 -558 hlineto
          endchar
        </CharString>
        <CharString name="A">
          90 21 -21 21 -21 220.660003662 57 454.339996338 -20 hstemhm
          hintmask 10110000
          50.4400024414 hmoveto
          68.8999938965 0 75.5200042725 220.660003662 305.940002441 0 72.5200042725 -220.660003662 66.9199981689 0 -258.699996948 732 -60.3999938965 0 rlineto
          -105.400009155 -454.339996338 rmoveto
          134.940002441 371.600006104 129.899993896 -371.600006104 rlineto
          endchar
        </CharString>
        <CharString name="AE">
          349 -4.32000732422 60.3000030518 -45.6799926758 45.0200042725 180.179992676 57 36.7200012207 60.3000030518 -52 43.6999969482 293.119995117 57.6600036621 -57.6600036621 43.6999969482 hstemhm
          451.039993286 57 hintmask 10100001
          33.3999938965 hmoveto
          63.6600036621 0 127.660003662 235.5 226.320007324 0 0 -114.5 rlineto
          -1.52587890625e-05 -113 70.6800079346 -15.6399993896 65.3199920654 3.31999206543 rrcurveto
          hintmask 01100001
          290.339996338 14.6199951172 0 45.0200042725 rlineto
          hintmask 10110001
          -290.339996338 0.660003662109 rlineto
          -37.8400115967 -1.52587890625e-05 -41.1600036621 -0.559997558594 0 66.2599945068 rrcurveto
          0 207.539993286 rlineto
          hintmask 00101001
          330 8.30000305176 0 43.6999969482 rlineto
          hintmask 00110101
          -330 8.30000305176 0 210.399993896 rlineto
          1.31999206543 43.3199920654 -4.75999450684 31.0999908447 71.1199951172 0 rrcurveto
          hintmask 00100011
          302.320007324 43.6999969482 hlineto
          hintmask 10100101
          -302.320007324 13.9600067139 rlineto
          -92.1800079346 1.69999694824 -56.6799926758 -5.75999450684 -68.9400024414 -128.699996948 rrcurveto
          -103.339996338 -306.740005493 rmoveto
          196.460006714 361.199996948 0 -361.199996948 rlineto
          endchar
        </CharString>
        <CharString name="Aacute">
          90 0 21 199.660003662 57 434.339996338 20 65 133 hstem
          326.190002441 183.300003052 vstem
          326.190429688 797 rmoveto
          -38 callsubr
          -387.509765625 -930 rmoveto
          -40 callsubr
          -105.399414062 -454.33984375 rmoveto
          -39 callsubr
          endchar
        </CharString>
        <CharString name="Abreve">
          90 0 21 199.660003662 57 434.339996338 20 65 35.7799987793 hstem
          239.059997559 35.7799987793 158.440002441 35.7799987793 vstem
          239.059570312 911 rmoveto
          69 callsubr
          -224.399414062 -911 rmoveto
          -40 callsubr
          -105.399414062 -454.33984375 rmoveto
          -39 callsubr
          endchar
        </CharString>
        <CharString name="Acircumflex">
          90 0 21 199.660003662 57 434.339996338 20 65 130 hstem
          208.740005493 285.199996948 vstem
          208.740234375 797 rmoveto
          -37 callsubr
          0 vmoveto
          53.66015625 hmoveto
          -334.059570312 -927 rmoveto
          -40 callsubr
          -105.399414062 -454.33984375 rmoveto
          -39 callsubr
          endchar
        </CharString>
        <CharString name="Adieresis">
          90 0 21 199.660003662 57 434.339996338 20 65 78.5599975586 hstem
          184.729995728 78.2200012207 176.440002441 78.5599975586 vstem
          184.73046875 836.780273438 rmoveto
          -34 callsubr
          254.659179688 hmoveto
          -33 callsubr
          -388.94921875 -836.780273438 rmoveto
          -40 callsubr
          -105.399414062 -454.33984375 rmoveto
          -39 callsubr
          endchar
        </CharString>
        <CharString name="Agrave">
          90 0 21 199.660003662 57 434.339996338 20 65 133 hstem
          193.190002441 183.300003052 vstem
          193.190429688 930 rmoveto
          -41 callsubr
          -214.290039062 -930 rmoveto
          -40 callsubr
          -105.399414062 -454.33984375 rmoveto
          -39 callsubr
          endchar
        </CharString>
        <CharString name="Amacron">
          90 0 21 199.660003662 57 434.339996338 20 65 46.6799926758 hstem
          212.13999939 278.399993896 vstem
          212.139648438 797 rmoveto
          135 callsubr
          -161.69921875 -843.6796875 rmoveto
          -40 callsubr
          -105.399414062 -454.33984375 rmoveto
          -39 callsubr
          endchar
        </CharString>
        <CharString name="Aogonek">
          90 -180.973449707 44.3600006104 116.63999939 20 -0.0265502929688 21 199.660003662 57 434.339996338 20 hstemhm
          hintmask 11000000
          594.080078125 0.0263671875 rmoveto
          48 callsubr
          hintmask 00111000
          -573.459960938 -0.0263671875 rmoveto
          -40 callsubr
          -105.399414062 -454.33984375 rmoveto
          -39 callsubr
          endchar
        </CharString>
        <CharString name="Aring">
          90 0 21 199.660003662 57 434.339996338 20 -1.83299255371 36.7799987793 131.439987183 36.7799987793 hstemhm
          250.009994507 35.7799987793 131.100006104 35.7799987793 hintmask 00011110
          250.009765625 832.166992188 rmoveto
          -32 callsubr
          35.7802734375 hmoveto
          -31 callsubr
          hintmask 11100000
          -235.349609375 -832.166992188 rmoveto
          -40 callsubr
          -105.399414062 -454.33984375 rmoveto
          -39 callsubr
          endchar
        </CharString>
        <CharString name="Atilde">
          90 0 21 199.660003662 57 434.339996338 20 65.6600036621 50.9799957275 -3.7200012207 51.6399993896 hstemhm
          hintmask 00001000
          182.33984375 834.599609375 rmoveto
          15.2197265625 -29.779296875 rlineto
          36.66015625 18.080078125 18.7607421875 21.359375 41.9599609375 0.66015625 rrcurveto
          hintmask 00010000
          -36 callsubr
          hintmask 00001000
          -35 callsubr
          hintmask 11100000
          -131.899414062 -834.599609375 rmoveto
          -40 callsubr
          -105.399414062 -454.33984375 rmoveto
          -39 callsubr
          endchar
        </CharString>
        <CharString name="B">
          21 0 57.3399963379 297.160003662 57 263.5 57 hstem
          89.5200042725 57.6600036621 351.13999939 57 vstem
          89.5200042725 hmoveto
          272.13999939 hlineto
          154 39.6600036621 102 102 hvcurveto
          0 114 -64.2400054932 53.3600006104 -44 10 68.2799987793 16.8999938965 36.3000030518 64.6399993896 0 81.4800109863 rrcurveto
          90.5 -43.3200073242 97.1199951172 -146.679992676 vhcurveto
          -272.13999939 hlineto
          57.6600036621 -674.660003662 rmoveto
          297.160003662 214.479995728 vlineto
          86.7200012207 0.679992675781 49.9400024414 -69.0599975586 0 -80.1199951172 rrcurveto
          -129.539993286 -78.120010376 -19.120010376 -58.5399932861 vhcurveto
          -214.480010986 354.160003662 rmoveto
          263.5 214.479995728 vlineto
          70.6999969482 0 63.6600036621 -26.4799957275 -1.36000061035 -104.13999939 -1.02000427246 -87.4400024414 -50.8600006104 -45.4400024414 -81.1199951172 0 rrcurveto
          endchar
        </CharString>
        <CharString name="C">
          -1 -6 57 632 57 hstem
          61.4600067139 57 vstem
          61.4600067139 368 rmoveto
          1.52587890625e-05 -215 58.6599884033 -159 185 0 52 0 111.800003052 9 70 13 rrcurveto
          43.6999969482 vlineto
          -1.52587890625e-05 -1.52587890625e-05 -128.459991455 -8.69999694824 -105 0 rrcurveto
          -139.460006714 -47.5399932861 129.240005493 185.759994507 255.580001831 54.1799926758 61.4199981689 132.479995728 hvcurveto
          92 0 140.800003052 -11.3600006104 1 0 rrcurveto
          43.6999969482 vlineto
          -70.0000152588 13 -111.800003052 11.6600036621 -52 0 rrcurveto
          -200.36000061 -43.299987793 -139.36000061 -232.63999939 hvcurveto
          endchar
        </CharString>
        <CharString name="Cacute">
          -1 -6 57 632 57 60 133 hstem
          61.4600067139 57 183.689987183 183.300003052 vstem
          302.150390625 800 rmoveto
          -38 callsubr
          -352.450195312 -565 rmoveto
          -29 callsubr
          endchar
        </CharString>
        <CharString name="Ccaron">
          -1 -6 57 632 57 60 130 hstem
          61.4600067139 57 74.6399993896 285.199996948 vstem
          193.099609375 930 rmoveto
          62 callsubr
          64.380859375 -130 rmoveto
          54.33984375 hmoveto
          -303.3203125 -432 rmoveto
          -29 callsubr
          endchar
        </CharString>
        <CharString name="Ccedilla">
          -1 -172 26.8000030518 139.199996948 57 632 57 hstem
          61.4600067139 57 192.699996948 50 vstem
          216.299804688 -145.200195312 rmoveto
          -30 callsubr
          -200.700195312 501.599609375 rmoveto
          -29 callsubr
          endchar
        </CharString>
        <CharString name="Ccircumflex">
          -1 -6 57 632 57 60 130 hstem
          61.4600067139 57 69.6399993896 285.199996948 vstem
          188.099609375 800 rmoveto
          105 callsubr
          0 vmoveto
          53.66015625 hmoveto
          -302.400390625 -562 rmoveto
          -29 callsubr
          endchar
        </CharString>
        <CharString name="Cdotaccent">
          -1 -6 57 632 57 61.3200073242 96.5601043701 hstem
          61.4600067139 57 184.969985962 75.9199981689 vstem
          303.4296875 820.580078125 rmoveto
          -11.6201171875 8.30078125 -7.6396484375 11.619140625 vhcurveto
          36.740234375 hlineto
          11.6201171875 7.6396484375 6.6396484375 12.6201171875 hvcurveto
          56.7197265625 vlineto
          11.6201171875 -6.6396484375 8.9599609375 -12.6201171875 vhcurveto
          -36.740234375 hlineto
          -13.279296875 -6.640625 -7.9599609375 -12.6201171875 hvcurveto
          -241.969726562 -509.299804688 rmoveto
          -29 callsubr
          endchar
        </CharString>
        <CharString name="D">
          85 0 58.9799957275 616.020004272 57 hstem
          89.5200042725 57 411.199996948 57 vstem
          89.5200042725 hmoveto
          265.539993286 hlineto
          190.279998779 69.3800048828 197 166 150 -34.3200073242 219 -225.339996338 hvcurveto
          -265.539993286 hlineto
          57.0000152588 -673.020004272 rmoveto
          616.020004272 208.539993286 vlineto
          126.880004883 75.7799987793 -89.5200042725 -221.479995728 -151.960006714 -58.7599945068 -153.059997559 -143.900009155 hvcurveto
          endchar
        </CharString>
        <CharString name="Dcaron">
          85 0 58.9799957275 616.020004272 57 60 130 hstem
          89.5200042725 57 42.1399993896 285.199996948 83.8600006104 57 vstem
          188.66015625 922 rmoveto
          54 callsubr
          64.3798828125 -130 rmoveto
          54.33984375 hmoveto
          -270.8203125 -792 rmoveto
          71 callsubr
          57 -673.01953125 rmoveto
          72 callsubr
          endchar
        </CharString>
        <CharString name="Dcroat">
          85 0 58.9799957275 293.820007324 40.3999938965 277.839996338 60.9600067139 hstem
          89.5200042725 57 405.819992065 58.9799957275 vstem
          24.51953125 352.799804688 rmoveto
          65 -352.799804688 262.80078125 hlineto
          190.279296875 68.720703125 197 166 150 -33.66015625 219 -225.33984375 -39.6005859375 -223.200195312 0 -0.66015625 hvcurveto
          -338.139648438 -65 vlineto
          122 -334.219726562 rmoveto
          293.819335938 145.80078125 40.400390625 -145.80078125 277.83984375 vlineto
          205.80078125 0.66015625 rlineto
          121.599609375 78.419921875 -88.8603515625 -218.83984375 -151.959960938 -56.1201171875 -153.059570312 -143.899414062 hvcurveto
          endchar
        </CharString>
        <CharString name="E">
          -4 -3 57 -42.3800048828 42.3800048828 278.520004272 60.3000030518 -52 43.6999969482 290.479995728 57 -57 43.0399932861 hstemhm
          89.5200042725 57 hintmask 10000010
          89.5200042725 123 rmoveto
          1.52587890625e-05 -113 69.9909973145 -16.4222717285 66.0090026855 3.42227172852 rrcurveto
          hintmask 01000010
          299.539993286 14.6199951172 0 42.3800048828 rlineto
          hintmask 10100010
          -299.539993286 hlineto
          -37.8399963379 0 -40.5 2.74000549316 -0.65998840332 66.2599945068 rrcurveto
          0 209.520004272 rlineto
          hintmask 00010010
          -77 callsubr
          hintmask 00101010
          -76 callsubr
          hintmask 00000110
          -75 callsubr
          hintmask 10001010
          -74 callsubr
          endchar
        </CharString>
        <CharString name="Eacute">
          -4 -3 57 -42.3800048828 42.3800048828 278.520004272 60.3000030518 -52 43.6999969482 290.479995728 43.0399932861 -43.0399932861 57 60 133 hstemhm
          89.5200042725 57 155.779998779 183.300003052 hintmask 0000001010000000
          302.299804688 792 rmoveto
          -38 callsubr
          hintmask 1000000100000000
          -324.540039062 -802 rmoveto
          -28 callsubr
          hintmask 0100000100000000
          -27 callsubr
          hintmask 1010000100000000
          -26 callsubr
          hintmask 0001000100000000
          -25 callsubr
          hintmask 0010010100000000
          -24 callsubr
          hintmask 0000100100000000
          -23 callsubr
          hintmask 1000010100000000
          -22 callsubr
          endchar
        </CharString>
        <CharString name="Ecaron">
          -4 -3 57 -42.3800048828 42.3800048828 278.520004272 60.3000030518 -52 43.6999969482 290.479995728 43.0399932861 -43.0399932861 57 60 130 hstemhm
          89.5200042725 57 34.7200012207 285.199996948 hintmask 0000001010000000
          181.240234375 922 rmoveto
          54 callsubr
          64.3798828125 -130 rmoveto
          54.33984375 hmoveto
          hintmask 1000000100000000
          -263.400390625 -669 rmoveto
          -28 callsubr
          hintmask 0100000100000000
          -27 callsubr
          hintmask 1010000100000000
          -26 callsubr
          hintmask 0001000100000000
          -25 callsubr
          hintmask 0010010100000000
          -24 callsubr
          hintmask 0000100100000000
          -23 callsubr
          hintmask 1000010100000000
          -22 callsubr
          endchar
        </CharString>
        <CharString name="Ecircumflex">
          -4 -3 57 -42.3800048828 42.3800048828 278.520004272 60.3000030518 -52 43.6999969482 290.479995728 43.0399932861 -43.0399932861 57 65 130 hstemhm
          89.5200042725 57 33.6799926758 285.199996948 hintmask 0000001010000000
          180.200195312 797 rmoveto
          -21 callsubr
          0 vmoveto
          53.66015625 hmoveto
          hintmask 1000000100000000
          -266.440429688 -804 rmoveto
          -28 callsubr
          hintmask 0100000100000000
          -27 callsubr
          hintmask 1010000100000000
          -26 callsubr
          hintmask 0001000100000000
          -25 callsubr
          hintmask 0010010100000000
          -24 callsubr
          hintmask 0000100100000000
          -23 callsubr
          hintmask 1000010100000000
          -22 callsubr
          endchar
        </CharString>
        <CharString name="Edieresis">
          -4 -3 57 -42.3800048828 42.3800048828 278.520004272 60.3000030518 -52 43.6999969482 290.479995728 43.0399932861 -43.0399932861 57 71.2200012207 78.5599975586 hstemhm
          89.5200042725 57 6.08000183105 78.2200012207 176.439987183 78.5599975586 hintmask 0000001011000000
          152.599609375 843 rmoveto
          -20 callsubr
          254.66015625 hmoveto
          -19 callsubr
          hintmask 1000000100000000
          -317.740234375 -720 rmoveto
          -28 callsubr
          hintmask 0100000100000000
          -27 callsubr
          hintmask 1010000100000000
          -26 callsubr
          hintmask 0001000100000000
          -25 callsubr
          hintmask 0010010100000000
          -24 callsubr
          hintmask 0000100100000000
          -23 callsubr
          hintmask 1000010100000000
          -22 callsubr
          endchar
        </CharString>
        <CharString name="Edotaccent">
          -4 -3 57 -42.3800048828 42.3800048828 278.520004272 60.3000030518 -52 43.6999969482 290.479995728 43.0399932861 -43.0399932861 57 63.0200042725 96.5601043701 hstemhm
          89.5200042725 57 140.673995972 75.9199981689 hintmask 0000001010000000
          287.194335938 814.280273438 rmoveto
          136 callsubr
          hintmask 1000000100000000
          -197.674804688 -748 rmoveto
          -28 callsubr
          hintmask 0100000100000000
          -27 callsubr
          hintmask 1010000100000000
          -26 callsubr
          hintmask 0001000100000000
          -25 callsubr
          hintmask 0010010100000000
          -24 callsubr
          hintmask 0000100100000000
          -23 callsubr
          hintmask 1000010100000000
          -22 callsubr
          endchar
        </CharString>
        <CharString name="Egrave">
          -4 -3 57 -42.3800048828 42.3800048828 278.520004272 60.3000030518 -52 43.6999969482 290.479995728 43.0399932861 -43.0399932861 57 60 133 hstemhm
          89.5200042725 57 37.6399993896 183.300003052 hintmask 0000001010000000
          184.16015625 925 rmoveto
          -41 callsubr
          hintmask 1000000100000000
          -166.180664062 -802 rmoveto
          -28 callsubr
          hintmask 0100000100000000
          -27 callsubr
          hintmask 1010000100000000
          -26 callsubr
          hintmask 0001000100000000
          -25 callsubr
          hintmask 0010010100000000
          -24 callsubr
          hintmask 0000100100000000
          -23 callsubr
          hintmask 1000010100000000
          -22 callsubr
          endchar
        </CharString>
        <CharString name="Emacron">
          -4 -3 57 -42.3800048828 42.3800048828 278.520004272 60.3000030518 -52 43.6999969482 290.479995728 43.0399932861 -43.0399932861 57 63 46.6799926758 hstemhm
          89.5200042725 57 38.379989624 278.399993896 hintmask 0000001010000000
          184.900390625 795 rmoveto
          129 callsubr
          hintmask 1000000100000000
          -95.380859375 -718.6796875 rmoveto
          -28 callsubr
          hintmask 0100000100000000
          -27 callsubr
          hintmask 1010000100000000
          -26 callsubr
          hintmask 0001000100000000
          -25 callsubr
          hintmask 0010010100000000
          -24 callsubr
          hintmask 0000100100000000
          -23 callsubr
          hintmask 1000010100000000
          -22 callsubr
          endchar
        </CharString>
        <CharString name="Eng">
          97 -257 43.7400054932 234.259994507 -21 21 -21 732 -20 hstemhm
          89.5200042725 57.3399963379 407 57 hintmask 11011100
          89.5200042725 hmoveto
          57.3399963379 0 1.32000732422 624.600006104 rlineto
          hintmask 10111100
          405.679992676 -624.600006104 0 -75.1000061035 rlineto
          1.52587890625e-05 -130.539993286 -72.4799957275 6.33999633789 -67.5200042725 -13.9599914551 rrcurveto
          -43.7400054932 vlineto
          118.000015259 79 21 152 hvcurveto
          0 84 0 732 -57 0 0 -618 -405.679992676 618 -58.6600036621 0 rlineto
          endchar
        </CharString>
        <CharString name="Eogonek">
          -4 -169.248901367 44.3600006104 116.63999939 20 -14.7510986328 57 -42.3800048828 42.3800048828 278.520004272 60.3000030518 -52 43.6999969482 290.479995728 43.0399932861 -43.0399932861 57 hstemhm
          89.5200042725 57 hintmask 1100000000000000
          495.129882812 11.7509765625 rmoveto
          48 callsubr
          hintmask 0010000010000000
          -435.430664062 111.249023438 rmoveto
          -28 callsubr
          hintmask 0001000010000000
          -27 callsubr
          hintmask 0010100010000000
          -26 callsubr
          hintmask 0000010010000000
          -25 callsubr
          hintmask 0000100110000000
          -24 callsubr
          hintmask 0000001010000000
          -23 callsubr
          hintmask 0010000110000000
          -22 callsubr
          endchar
        </CharString>
        <CharString name="Eth">
          85 0 58.9799957275 293.820007324 40.3999938965 277.839996338 60.9600067139 hstem
          89.5200042725 57 405.819992065 58.9799957275 vstem
          24.5200042725 352.800003052 rmoveto
          65 -352.800003052 262.800003052 hlineto
          190.279998779 68.7200012207 197 166 150 -33.6600036621 219 -225.339996338 -39.6000061035 -223.199996948 0 -0.660003662109 hvcurveto
          -338.13999939 -65 vlineto
          122.000015259 -334.220016479 rmoveto
          293.820007324 145.800003052 40.3999938965 -145.800003052 277.839996338 vlineto
          205.800003052 0.660003662109 rlineto
          121.599990845 -1.52587890625e-05 78.4199981689 -88.8600006104 0 -218.839996338 rrcurveto
          -151.960006714 -56.1199951172 -153.059997559 -143.899993896 vhcurveto
          endchar
        </CharString>
        <CharString name="Euro">
          29 -6 57 209.779998779 35.7799987793 126.540008545 32.8000030518 227.099990845 57 hstem
          110.380004883 57 vstem
          22.3800048828 260.779998779 rmoveto
          88 -5.97999572754 rlineto
          -225.999984741 157 -34.8000030518 77 vhcurveto
          83.6799926758 0 74.1199951172 8.60000610352 81 21.6399993896 rrcurveto
          42.0599975586 vlineto
          0 1.52587890625e-05 -137.719985962 -16.3200073242 -101.080001831 1.02000427246 -107.940002441 1.02000427246 -70.0800018311 68.4400024414 1.02000427246 134.339996338 -3 2 254 3.63999938965 0 0 rrcurveto
          0 35.7799987793 -251 5.97999572754 0 114.600006104 251 5.63999938965 0 35.1199951172 -251 5.63999938965 rlineto
          -0.34001159668 123.799987793 15.4200134277 95.6600036621 161.919998169 0.339996337891 82.3399963379 0.339996337891 152.459991455 -13.6399993896 0 0 rrcurveto
          43.6999969482 vlineto
          -70 13 -112.799987793 13.6000061035 -52 0 rrcurveto
          -244 10 -204.800003052 -72 hvcurveto
          -88 -7.30000305176 0 -32.8000030518 88 -6.30000305176 0 -114.600006104 -88 -5.63999938965 rlineto
          endchar
        </CharString>
        <CharString name="Euro.smcp">
          -63 -5 58.9799957275 150.800003052 34.4199981689 82.5800018311 32.1000061035 166.119995117 57 hstem
          86.0399932861 57.6600036621 vstem
          18.0399932861 204.779998779 rmoveto
          68 -6 rlineto
          -1.52587890625e-05 -167.160003662 124.960006714 -36.6199951172 68.0399932861 0 65 0 69.200012207 10 63 18 rrcurveto
          45 vlineto
          1.52587890625e-05 0 -117.200012207 -14.0200042725 -80 0 -78.9199981689 0 -56.4199981689 43.3200073242 0 101.479995728 -2 2 187.339996338 4 0 0 rrcurveto
          0 35.1000061035 -185.339996338 5 0 70.8999938965 185.339996338 5 0 34.1000061035 -185.339996338 6 rlineto
          -1.52587890625e-05 73.2399902344 9.82000732422 85.8800048828 125.519989014 0 rrcurveto
          64 130.200012207 -11 0 hvcurveto
          45 vlineto
          -54.9999847412 10 -98.200012207 13 -41 0 rrcurveto
          -190 -3 -160.119995117 -56 hvcurveto
          -68 -7 0 -32.1000061035 68 -6 0 -70.8999938965 -68 -5.67999267578 rlineto
          endchar
        </CharString>
        <CharString name="F">
          -4 21 -21 21 -21 332.520004272 60.3000030518 -52 43.6999969482 290.479995728 57 -57 43.0399932861 hstemhm
          89.5200042725 57 hintmask 10100010
          89.5200042725 hmoveto
          57 332.520004272 hlineto
          hintmask 00010010
          -77 callsubr
          hintmask 00101010
          -76 callsubr
          hintmask 00000110
          -75 callsubr
          hintmask 10101010
          -74 callsubr
          endchar
        </CharString>
        <CharString name="G">
          40 -5 56.3399963379 279.660003662 58 -58 37.7599945068 314.240005493 57 hstemhm
          61.4600067139 57 383.199996948 57 -41.7200012207 41.7200012207 hintmask 11011010
          61.4600067139 370 rmoveto
          1.52587890625e-05 -210.300003052 25.8999938965 -166.699996948 207 2 90 0 84.0200042725 36.3999938965 35.2799987793 19.3000030518 rrcurveto
          13.2799987793 -50.6999969482 41.7200012207 0 0 386 rlineto
          -24 2 -23 1 -21 0 rrcurveto
          hintmask 10111100
          -81 0 -51.6399993896 -9.24000549316 -40 -11 rrcurveto
          -37.7599945068 183.63999939 -232.300003052 vlineto
          0 -1.52587890625e-05 -130.620010376 -48.0200042725 -76.6799926758 0.660003662109 -135.240005493 1.32000732422 -40.6599884033 84.5 0 230.839996338 0 207.100006104 28 107.899993896 143.559997559 0 97.3000030518 0 149 -15.3999938965 6 0 rrcurveto
          45.3999938965 vlineto
          -70 13 -130.300003052 14 -52 0 rrcurveto
          -199 -29.5599975586 -170 -200 hvcurveto
          endchar
        </CharString>
        <CharString name="Gbreve">
          40 -5 56.3399963379 279.660003662 37.7599945068 -37.7599945068 58 294 57 60 35.7799987793 hstemhm
          61.4600067139 57 104.579986572 35.7799987793 158.440002441 35.7799987793 48.620010376 57 -41.7200012207 41.7200012207 hintmask 0000101100000000
          223.040039062 914 rmoveto
          106 callsubr
          hintmask 1011010001000000
          -197.360351562 -544 rmoveto
          107 callsubr
          hintmask 1101010010000000
          108 callsubr
          endchar
        </CharString>
        <CharString name="Gcircumflex">
          40 -5 56.3399963379 279.660003662 37.7599945068 -37.7599945068 58 294 57 60 130 hstemhm
          61.4600067139 57 71.879989624 285.199996948 26.120010376 57 -41.7200012207 41.7200012207 hintmask 0000101000000000
          190.33984375 800 rmoveto
          110 callsubr
          0 vmoveto
          53.6591796875 hmoveto
          hintmask 1011010010000000
          -304.639648438 -560 rmoveto
          107 callsubr
          hintmask 1101010100000000
          108 callsubr
          endchar
        </CharString>
        <CharString name="Gcommaaccent">
          40 -232.880004883 20.8439941406 207.036010742 56.3399963379 279.660003662 37.7599945068 -37.7599945068 58 294 57 hstemhm
          61.4600067139 57 171.163986206 69.8040008545 -42.9119873047 42.9120025635 142.231994629 57 -41.7200012207 41.7200012207 hintmask 0000000000000000
          hintmask 1000001000000000
          289.624023438 -140.971679688 rmoveto
          123 callsubr
          hintmask 1000000100000000
          8.369140625 -29.232421875 hlineto
          0 -8.3701171875 -0.8994140625 -15.2275390625 -22.41015625 0.59375 rrcurveto
          -20.84375 vlineto
          0 66.2216796875 -13.4462890625 68.669921875 hvcurveto
          hintmask 1000001000000000
          125 callsubr
          hintmask 0101110001000000
          -228.1640625 459.923828125 rmoveto
          107 callsubr
          hintmask 0110110010000000
          108 callsubr
          endchar
        </CharString>
        <CharString name="Gdotaccent">
          40 -5 56.3399963379 279.660003662 37.7599945068 -37.7599945068 58 294 57 60 96.5601043701 hstemhm
          61.4600067139 57 176.009994507 75.9199981689 131.270004272 57 -41.7200012207 41.7200012207 hintmask 0000101000000000
          294.469726562 819.259765625 rmoveto
          109 callsubr
          hintmask 1011010010000000
          -233.009765625 -505.98046875 rmoveto
          107 callsubr
          hintmask 1101010100000000
          108 callsubr
          endchar
        </CharString>
        <CharString name="H">
          70 21 -21 21 -21 325.5 57 349.5 -20 hstemhm
          89.5200042725 57 380.599990845 57 hintmask 10111100
          89.5200042725 hmoveto
          57 325.5 380.600006104 -325.5 57 732 -57 -349.5 -380.600006104 349.5 -57 hlineto
          endchar
        </CharString>
        <CharString name="Hbar">
          84 21 -21 21 -21 325.5 57 140.63999939 40.7400054932 168.119995117 -20 hstemhm
          89.5200042725 57 380.599990845 57 hintmask 10111110
          27.1600036621 523.13999939 rmoveto
          62.3600006104 -523.13999939 hlineto
          hintmask 01111110
          57 325.5 380.600006104 hlineto
          hintmask 10111110
          -325.5 57 523.13999939 61.0399932861 40.7400054932 -61.0399932861 168.119995117 -57 -168.119995117 -380.600006104 168.119995117 -57 -168.119995117 -62.3600006104 vlineto
          119.36000061 -181.380004883 rmoveto
          140.63999939 380.600006104 -140.63999939 vlineto
          endchar
        </CharString>
        <CharString name="Hcircumflex">
          70 0 21 304.5 57 329.5 20 65 130 hstem
          89.5200042725 57 47.6999969482 285.199996948 47.6999969482 57 vstem
          194.219726562 797 rmoveto
          105 callsubr
          0 vmoveto
          53.66015625 hmoveto
          -280.4609375 -927 rmoveto
          57 325.5 380.600585938 -325.5 57 732 -57 -349.5 -380.600585938 349.5 -57 hlineto
          endchar
        </CharString>
        <CharString name="I">
          -367 21 -21 21 -21 732 -20 hstemhm
          89.5200042725 57 hintmask 10110000
          89.5200042725 hmoveto
          -73 callsubr
          endchar
        </CharString>
        <CharString name="Iacute">
          -367 0 21 691 20 65 133 hstemhm
          89.5200042725 57 -53.6500091553 183.300003052 hintmask 00101000
          92.8701171875 797 rmoveto
          -38 callsubr
          hintmask 11010000
          -115.110351562 -930 rmoveto
          -73 callsubr
          endchar
        </CharString>
        <CharString name="Icircumflex">
          -367 0 21 691 20 65 130 hstemhm
          -24.5800018311 285.199996948 -171.099990845 57 hintmask 00110000
          -24.580078125 797 rmoveto
          -21 callsubr
          0 vmoveto
          53.66015625 hmoveto
          hintmask 11001000
          -61.66015625 -927 rmoveto
          -73 callsubr
          endchar
        </CharString>
        <CharString name="Idieresis">
          -367 0 21 691 20 65 78.5599975586 hstem
          -48.5899963379 78.2200012207 59.8899993896 57 59.5500030518 78.5599975586 vstem
          -48.58984375 836.780273438 rmoveto
          -18 callsubr
          254.66015625 hmoveto
          -17 callsubr
          -116.55078125 -836.780273438 rmoveto
          -73 callsubr
          endchar
        </CharString>
        <CharString name="Idotaccent">
          -367 0 21 691 20 65 96.5601043701 hstemhm
          80.0599975586 75.9199981689 -66.4599914551 57 hintmask 00110000
          80.0595703125 816.259765625 rmoveto
          55 callsubr
          hintmask 11001000
          9.4599609375 -872.98046875 rmoveto
          -73 callsubr
          endchar
        </CharString>
        <CharString name="Idotaccent.smcp">
          -378 21 -21 21 -21 650.220001221 96.5601043701 hstemhm
          70.0399932861 75.9199981689 -67.9399871826 57 hintmask 10101000
          78.0200042725 hmoveto
          146 callsubr
          hintmask 00110000
          -7.97994995117 99.48046875 rmoveto
          186 callsubr
          endchar
        </CharString>
        <CharString name="Igrave">
          -367 0 21 691 20 65 133 hstemhm
          -40.1300048828 183.300003052 -53.6499938965 57 hintmask 00110000
          -40.1298828125 930 rmoveto
          -41 callsubr
          hintmask 11001000
          58.109375 -930 rmoveto
          -73 callsubr
          endchar
        </CharString>
        <CharString name="Imacron">
          -367 0 21 691 20 65 46.6799926758 hstemhm
          -21.1799926758 278.399993896 -167.699996948 57 hintmask 00110000
          -21.1796875 797 rmoveto
          129 callsubr
          hintmask 11001000
          110.69921875 -843.6796875 rmoveto
          -73 callsubr
          endchar
        </CharString>
        <CharString name="Iogonek">
          -367 -180.973449707 44.3600006104 116.63999939 20 -0.0265502929688 21 691 20 hstemhm
          89.5200042725 57 hintmask 11000000
          105.099609375 0.0263671875 rmoveto
          -149.659179688 -64.6796875 77.33984375 -132.3203125 115 16 rrcurveto
          44.3603515625 vlineto
          -96.6806640625 0.2998046875 -8.69921875 76.16015625 92.51953125 60.1796875 rrcurveto
          hintmask 00111000
          -45.400390625 -0.0263671875 rmoveto
          -73 callsubr
          endchar
        </CharString>
        <CharString name="Itilde">
          -367 0 21 691 20 65.6600036621 50.9799957275 -3.7200012207 51.6399993896 hstemhm
          89.5200042725 57 hintmask 00010000
          -50.98046875 834.599609375 rmoveto
          -16 callsubr
          hintmask 00100000
          -15 callsubr
          hintmask 00010000
          126 callsubr
          hintmask 11001000
          140.5 -834.599609375 rmoveto
          -73 callsubr
          endchar
        </CharString>
        <CharString name="J">
          -221 732 -20 hstem
          235.880004883 57 vstem
          39.0800018311 21 rmoveto
          52.0000152588 -34 100.199996948 -2.32000732422 49.6000061035 33.3200073242 48.299987793 32.3399963379 3.70001220703 67.6600036621 0 47 rrcurveto
          567 -57 -567 vlineto
          -0.660003662109 -150.899993896 -113.380004883 26.2399902344 -78.7599945068 21.0599975586 rrcurveto
          endchar
        </CharString>
        <CharString name="Jcircumflex">
          -221 712 20 65 130 hstemhm
          121.779998779 285.199996948 -171.099990845 57 hintmask 01100000
          121.780273438 797 rmoveto
          -37 callsubr
          0 vmoveto
          53.66015625 hmoveto
          hintmask 10010000
          -258.459960938 -906 rmoveto
          52 -34 100.200195312 -2.3203125 49.599609375 33.3203125 48.2998046875 32.33984375 3.7001953125 67.66015625 0 47 rrcurveto
          567 -57 -567 vlineto
          -0.66015625 -150.900390625 -113.379882812 26.240234375 -78.759765625 21.060546875 rrcurveto
          endchar
        </CharString>
        <CharString name="K">
          15 21 -21 21 -21 338.5 57 336.5 -20 hstemhm
          89.5200042725 58 hintmask 10111000
          89.5200042725 hmoveto
          58 338.5 104.460006714 hlineto
          233.740005493 -338.5 69.6000061035 0 -250.63999939 367 250.63999939 365 -69.2599945068 0 -233.740005493 -336.5 -105.800003052 0 0 336.5 -57 0 rlineto
          endchar
        </CharString>
        <CharString name="Kcommaaccent">
          15 -228.220001221 20.8439941406 207.37600708 21 317.5 57 316.5 20 hstemhm
          89.5200042725 58 128.804000854 69.8040008545 -42.9120025635 42.9120025635 hintmask 00000000
          hintmask 10000100
          276.32421875 -136.311523438 rmoveto
          -12.546875 8.0634765625 -6.28125 10.4580078125 vhcurveto
          hintmask 10000010
          133 callsubr
          hintmask 10000100
          87.732421875 vlineto
          11.357421875 -4.4814453125 8.658203125 -13.4462890625 vhcurveto
          -33.3544921875 hlineto
          -11.9521484375 -6.5693359375 -6.5703125 -13.4453125 hvcurveto
          hintmask 01111000
          -186.8046875 85.263671875 rmoveto
          58 338.5 104.4609375 hlineto
          233.739257812 -338.5 69.6005859375 0 -250.640625 367 250.640625 365 -69.2607421875 0 -233.739257812 -336.5 -105.80078125 0 0 336.5 -57 0 rlineto
          endchar
        </CharString>
        <CharString name="L">
          -19 0 57 675 -20 hstem
          89.5200042725 57 vstem
          89.5200042725 126 rmoveto
          1.52587890625e-05 -113 70 -13 66 0 rrcurveto
          295.800003052 57 -295.800003052 hlineto
          -37.4999847412 -41.5 2.74000549316 66.2599945068 hvcurveto
          606 -57 vlineto
          endchar
        </CharString>
        <CharString name="Lacute">
          -19 0 57 655 20 63.3000030518 133 hstemhm
          89.5200042725 57 -52.2900085449 183.300003052 hintmask 00101000
          94.23046875 795.299804688 rmoveto
          -38 callsubr
          hintmask 11010000
          -116.470703125 -802.299804688 rmoveto
          70 callsubr
          endchar
        </CharString>
        <CharString name="Lcaron">
          -19 0 57 675 -20 hstem
          89.5200042725 57 79.7200012207 57.3399963379 vstem
          89.5200042725 126 rmoveto
          1.52587890625e-05 -113 69.9949951172 -13 66.0050048828 0 rrcurveto
          295.800003052 57 -295.800003052 hlineto
          -37.4999847412 -41.5 2.74000549316 66.2599945068 hvcurveto
          606 -57 vlineto
          136.720016479 -27 rmoveto
          49 callsubr
          endchar
        </CharString>
        <CharString name="Lcommaaccent">
          -19 -227.880004883 20.8439941406 207.036010742 57 655 20 hstemhm
          89.5200042725 57 131.783996582 69.8040008545 -42.9120025635 42.9120025635 hintmask 00000000
          hintmask 10001000
          278.303710938 -135.971679688 rmoveto
          123 callsubr
          hintmask 10000100
          127 callsubr
          hintmask 10001000
          128 callsubr
          hintmask 01110000
          -188.784179688 210.923828125 rmoveto
          70 callsubr
          endchar
        </CharString>
        <CharString name="Lslash">
          -19 0 57 675 -20 hstem
          89.5200042725 57 vstem
          6.86000061035 333.600006104 rmoveto
          82.6600036621 36 0 -243.600006104 rlineto
          1.52587890625e-05 -113 69.9949951172 -13 66.0050048828 0 rrcurveto
          295.800003052 57 -295.800003052 hlineto
          -37.4999847412 -41.5 2.74000549316 66.2599945068 hvcurveto
          0 268.460006714 132.539993286 57.9400024414 0.660003662109 46.3999938965 -133.199996948 -57.2799987793 0 290.479995728 -57 0 0 -315 -82.6600036621 -36 rlineto
          endchar
        </CharString>
        <CharString name="M">
          223 21 -21 21 -21 732 -20 hstemhm
          hintmask 10100000
          61.4600067139 hmoveto
          57 0 52.5800018311 633.699996948 201.479995728 -633.699996948 59.3399963379 0 196.160003662 633.699996948 57.2400054932 -633.699996948 57 0 -65.5200042725 732 -79.5800018311 0 -195.800003052 -636.880004883 -201.119995117 636.880004883 -79.5599975586 0 rlineto
          endchar
        </CharString>
        <CharString name="M.salt">
          227 21 -21 21 -21 hstemhm
          hintmask 10000000
          61.4600067139 hmoveto
          56 0 42 650.779998779 rlineto
          2.02000427246 31.2799987793 37.6800079346 10.0800018311 10.0999908447 -33.3399963379 rrcurveto
          123.63999939 -409 rlineto
          22.6399993896 -73.9199829102 103.060012817 2.36000061035 19.299987793 71.5599975586 rrcurveto
          110.320007324 410 rlineto
          8.41999816895 31.6400146484 40.3399963379 -7.02000427246 1.69999694824 -32.9799957275 rrcurveto
          50.6600036621 -651.440002441 57 0 -49 652.679992676 rlineto
          -2.7200012207 102.340011597 -133.099990845 14.6199951172 -26.6600036621 -88.6399993896 rrcurveto
          -110.979995728 -411 rlineto
          -6.04000854492 -22.8200073242 -23.5199890137 -4.33999633789 -8.38000488281 27.1600036621 rrcurveto
          -123.320007324 410 rlineto
          -27 90 -134.159988403 -16 0 -102 rrcurveto
          endchar
        </CharString>
        <CharString name="N">
          98 21 -21 21 -21 732 -20 hstemhm
          89.5200042725 57.6600036621 407.999984741 57 hintmask 10111000
          89.5200042725 hmoveto
          57.6600036621 625.279998779 hlineto
          408 -625.279998779 57 0 0 732 -57 0 0 -625.279998779 -407 625.279998779 -58.6600036621 0 rlineto
          endchar
        </CharString>
        <CharString name="N.salt">
          107 21 -21 21 -21 732 -20 hstemhm
          89.5200042725 57.6600036621 416.839996338 57 hintmask 10111000
          89.5200042725 hmoveto
          57.6600036621 646.699996948 hlineto
          0 36.7199859619 42.4800109863 6.69999694824 12.0999908447 -31.3199920654 rrcurveto
          255.940002441 -609.119995117 rlineto
          37.2799835205 -93.6599884033 126.040008545 32.5999908447 0 90.3800048828 rrcurveto
          653 -57 -649.059997559 vlineto
          -0.679992675781 -32 -40.8199920654 -11.4400024414 -13.4400024414 35.3399963379 rrcurveto
          -253.960006714 605.160003662 rlineto
          -36.2799987793 87.0200042725 -129.319992065 -13.0200042725 0 -102 rrcurveto
          endchar
        </CharString>
        <CharString name="Nacute">
          98 0 21 691 20 65 133 hstem
          89.5200042725 57.6600036621 187.499984741 183.300003052 37.1999969482 57 vstem
          334.6796875 797 rmoveto
          -5 callsubr
          -356.920898438 -930 rmoveto
          -13 callsubr
          endchar
        </CharString>
        <CharString name="Nacute.salt">
          107 0 21 691 20 65 133 hstem
          89.5200042725 57.6600036621 201.699996948 183.300003052 31.8399963379 57 vstem
          348.879882812 797 rmoveto
          -38 callsubr
          -371.120117188 -930 rmoveto
          192 callsubr
          endchar
        </CharString>
        <CharString name="Ncaron">
          98 0 21 691 20 65 130 hstem
          89.5200042725 57.6600036621 67.6699981689 285.199996948 55.129989624 57 vstem
          214.849609375 927 rmoveto
          62 callsubr
          64.380859375 -130 rmoveto
          54.33984375 hmoveto
          -297.010742188 -797 rmoveto
          -13 callsubr
          endchar
        </CharString>
        <CharString name="Ncaron.salt">
          107 0 21 691 20 65 130 hstem
          89.5200042725 57.6600036621 81.7599945068 285.199996948 49.8800048828 57 vstem
          228.940429688 927 rmoveto
          78 callsubr
          64.3798828125 -130 rmoveto
          54.33984375 hmoveto
          -311.100585938 -797 rmoveto
          192 callsubr
          endchar
        </CharString>
        <CharString name="Ncommaaccent">
          98 -229.580001831 20.8439941406 208.73600769 21 691 20 hstemhm
          89.5200042725 57.6600036621 168.743988037 69.8040008545 -42.9120025635 42.9120025635 169.45199585 57 hintmask 00000000
          hintmask 10001000
          315.923828125 -137.671875 rmoveto
          123 callsubr
          hintmask 10000100
          8.3701171875 -29.232421875 hlineto
          0 -8.369140625 -0.900390625 -15.228515625 -22.41015625 0.59375 rrcurveto
          -20.84375 vlineto
          0 66.2216796875 -13.4462890625 68.669921875 hvcurveto
          hintmask 10001000
          87.732421875 vlineto
          11.3583984375 -4.4814453125 8.6572265625 -13.4462890625 vhcurveto
          -33.353515625 hlineto
          -11.9521484375 -6.5703125 -6.5693359375 -13.4462890625 hvcurveto
          hintmask 01110010
          -226.404296875 86.6240234375 rmoveto
          -13 callsubr
          endchar
        </CharString>
        <CharString name="Ncommaaccent.salt">
          107 -234.539993286 20.8439941406 213.695999146 21 691 20 hstemhm
          89.5200042725 57.6600036621 158.143997192 69.8040008545 -42.9120025635 42.9120025635 188.891998291 57 hintmask 00000000
          hintmask 10001000
          305.32421875 -142.631835938 rmoveto
          132 callsubr
          hintmask 10000100
          8.3701171875 -29.232421875 hlineto
          0 -8.369140625 -0.8994140625 -15.228515625 -22.41015625 0.59375 rrcurveto
          -20.84375 vlineto
          0 66.2216796875 -13.4462890625 68.669921875 hvcurveto
          hintmask 10001000
          87.732421875 vlineto
          11.3583984375 -4.4814453125 8.6572265625 -13.4462890625 vhcurveto
          -33.3544921875 hlineto
          -11.9521484375 -6.5693359375 -6.5693359375 -13.4462890625 hvcurveto
          hintmask 01110010
          -215.8046875 91.583984375 rmoveto
          192 callsubr
          endchar
        </CharString>
        <CharString name="Ntilde">
          98 0 21 691 20 65.6600036621 50.9799957275 -3.7200012207 51.6399993896 hstemhm
          89.5200042725 57.6600036621 407.999984741 57 hintmask 00010000
          181.849609375 834.599609375 rmoveto
          -16 callsubr
          hintmask 00100000
          -15 callsubr
          hintmask 00010000
          -14 callsubr
          hintmask 11001100
          -92.330078125 -834.599609375 rmoveto
          -13 callsubr
          endchar
        </CharString>
        <CharString name="Ntilde.salt">
          107 0 21 691 20 69.0599975586 50.9799957275 -3.71998596191 51.6399993896 hstemhm
          89.5200042725 57.6600036621 416.839996338 57 hintmask 00010000
          197.099609375 838 rmoveto
          15.220703125 -29.7802734375 rlineto
          36.66015625 18.080078125 18.759765625 21.3603515625 41.9599609375 0.66015625 rrcurveto
          hintmask 00100000
          34.9794921875 0.66015625 27.240234375 -45.9404296875 51.240234375 -1.98046875 42 -1.3193359375 36.939453125 36.259765625 33 27.7197265625 rrcurveto
          -16.5595703125 30.1005859375 rlineto
          -28.9404296875 -17.6806640625 -36.01953125 -24.759765625 -29.099609375 0.66015625 rrcurveto
          hintmask 00010000
          -14 callsubr
          hintmask 11001100
          -107.580078125 -838 rmoveto
          192 callsubr
          endchar
        </CharString>
        <CharString name="O">
          99 -4 57 627 57 hstem
          72.8200073242 57 441.799987793 57 vstem
          72.8200073242 361 rmoveto
          -333 98.5599975586 -32 180 180 97.2399902344 42 323 343 -104.239990234 33 -173 -169.36000061 -109.199996948 -33 -343 vhcurveto
          57 hmoveto
          311.919998169 83.4599914551 7.08000183105 138.100006104 144.159988403 76.0800018311 -11.5 -307.5 -264.979995728 -59.1399993896 -43.0200042725 -161.099990845 -165.13999939 -56.4199981689 37.0599975586 270.940002441 vhcurveto
          endchar
        </CharString>
        <CharString name="OE">
          478 -4 57 -41.3800048828 42.3800048828 278.520004272 60.3000030518 -52 43.6999969482 290.479995728 43.0399932861 -38.0399932861 57 hstemhm
          72.8200073242 57 441.459991455 57 hintmask 10000111
          129.820007324 361 rmoveto
          311.919998169 82.799987793 7.08000183105 138.100006104 146.539993286 74.0200042725 -15.2400054932 -300.699996948 -262.940002441 -53 -48.1199951172 -167.559997559 vhcurveto
          -165.13999939 -55.7599945068 37.0599975586 270.940002441 hvcurveto
          -57 hmoveto
          -333 97.8999938965 -32 180 vhcurveto
          105.199996948 0 76.0400085449 14.7200012207 44.5999908447 79.0800018311 13.1999969482 -82.0599975586 57.3800048828 -13.7400054932 60.1399993896 3 rrcurveto
          hintmask 01100011
          290 14.6199951172 0 42.3800048828 -290 0 rlineto
          -37.8399963379 0 -40.5 2.74000549316 -0.660003662109 66.2599945068 rrcurveto
          0 0.339996337891 184.020004272 25.5 hvcurveto
          hintmask 00010011
          328.660003662 8.30000305176 0 43.6999969482 rlineto
          hintmask 00101011
          -328.660003662 8.30000305176 rlineto
          -0.339996337891 25.1599884033 0 184.020004272 0 0 rrcurveto
          43.3200073242 13.6000061035 29.6799926758 55.3999938965 vhcurveto
          300 43.0399932861 hlineto
          -300 13.9600067139 rlineto
          -57.1199951172 3 -49.7400054932 -26.4600067139 -12.5399932861 -69.3399963379 rrcurveto
          hintmask 10000111
          -45.6000061035 85.7600097656 -78.3800048828 12.0399932861 -103.179992676 0 rrcurveto
          -169.36000061 -108.539993286 -33 -343 hvcurveto
          endchar
        </CharString>
        <CharString name="Oacute">
          99 -4 57 627 57 60 133 hstem
          72.8200073242 57 196.409988403 183.300003052 62.0899963379 57 vstem
          326.23046875 797 rmoveto
          -38 callsubr
          -365.169921875 -569 rmoveto
          -11 callsubr
          57 hmoveto
          -10 callsubr
          endchar
        </CharString>
        <CharString name="Ocircumflex">
          99 -4 57 627 57 60 130 hstem
          72.8200073242 57 78.9599914551 285.199996948 77.6399993896 57 vstem
          208.780273438 797 rmoveto
          -37 callsubr
          0 vmoveto
          53.66015625 hmoveto
          -311.719726562 -566 rmoveto
          -11 callsubr
          57 hmoveto
          -10 callsubr
          endchar
        </CharString>
        <CharString name="Odieresis">
          99 -4 57 627 57 60 78.5599975586 hstem
          72.8200073242 57 54.9499969482 78.2200012207 176.439987183 78.5599975586 53.6300048828 57 vstem
          184.76953125 836.780273438 rmoveto
          -8 callsubr
          254.66015625 hmoveto
          -33 callsubr
          -366.609375 -475.780273438 rmoveto
          -11 callsubr
          57 hmoveto
          -10 callsubr
          endchar
        </CharString>
        <CharString name="Ograve">
          99 -4 57 627 57 60 133 hstem
          72.8200073242 57 63.4099884033 183.300003052 195.089996338 57 vstem
          193.23046875 930 rmoveto
          -12 callsubr
          -191.94921875 -569 rmoveto
          -11 callsubr
          57 hmoveto
          -10 callsubr
          endchar
        </CharString>
        <CharString name="Ohungarumlaut">
          99 -4 57 627 57 60 133 hstemhm
          72.8200073242 57 128.229995728 319.660003662 -6.09001159668 57 hintmask 00101000
          258.049804688 797 rmoveto
          -38 callsubr
          24.6005859375 -133 rmoveto
          -38 callsubr
          hintmask 11010100
          -433.349609375 -569 rmoveto
          -11 callsubr
          57 hmoveto
          -10 callsubr
          endchar
        </CharString>
        <CharString name="Omacron">
          99 -4 57 627 57 60 46.6799926758 hstem
          72.8200073242 57 82.3599853516 278.399993896 81.0400085449 57 vstem
          212.1796875 797 rmoveto
          135 callsubr
          -139.359375 -482.6796875 rmoveto
          -11 callsubr
          57 hmoveto
          -10 callsubr
          endchar
        </CharString>
        <CharString name="Omega">
          207 0 48.3000030518 633.699996948 57 hstem
          72.1399993896 57 519.800003052 57 vstem
          72.1399993896 388 rmoveto
          -1.52587890625e-05 -112.679992676 2.83999633789 -110.780014038 153.160003662 -104.899993896 rrcurveto
          -150 -10.6799926758 0 -48.9600067139 220 0 0 59.6399993896 rlineto
          -148.000015259 115.999984741 -21 66.5800018311 0 137.779998779 rrcurveto
          159.559997559 53.7200012207 142.440002441 209.179992676 209.180007935 47.7200012207 -142.479995728 -154.520004272 vhcurveto
          0 -132.660003662 -24 -98.6999969482 -142 -94 rrcurveto
          -59.6399993896 228 48.3000030518 vlineto
          -148.399993896 10.3399963379 rlineto
          122.419998169 86.0599822998 20.9799957275 121.300003052 0 117 rrcurveto
          182 -65.9000091553 174 -248 -262 -57.8999938965 -197 -154 vhcurveto
          endchar
        </CharString>
        <CharString name="Oslash">
          99 -4 57 627 57 hstem
          72.8200073242 57 441.799987793 57 vstem
          72.8200073242 361 rmoveto
          0 -153.080001831 20.3399963379 -88.6799926758 39.6799926758 -52.3200073242 rrcurveto
          -42.6199951172 -66.9199981689 46.3800048828 0 25.0599975586 38.4199981689 rlineto
          45.9799957275 -36.0800170898 63.0200042725 -6.33999633789 80.0599975586 0 180 0 97.8999938965 42 0 323 0 159.039993286 -22.6599884033 92.3400115967 -41.6600036621 53.6599884033 rrcurveto
          42.6399993896 65.9600067139 -46.3800048828 0 -24.7400054932 -38.1199951172 rlineto
          -46.3200073242 37.0999908447 -62.6999969482 6.02000427246 -76.0800018311 0 -172 0 -105.899993896 -33 0 -343 rrcurveto
          57 hmoveto
          311.919998169 82.799987793 7.08000183105 138.100006104 vhcurveto
          65.8000030518 0 51.7599945068 -2.38000488281 36.3800048828 -32.1399993896 rrcurveto
          -336.36000061 -523.880004883 rlineto
          -27.0999908447 45.0399932861 -11.379989624 73.4400024414 0 120.919998169 rrcurveto
          64.3199920654 -271.199996948 rmoveto
          337.020004272 523.539993286 rlineto
          27.0800018311 -46.0399932861 13.379989624 -76.7600097656 0 -129.539993286 0 -264.979995728 -59.799987793 -43.0200042725 -161.100006104 0 -71.4600067139 0 -50.0800018311 7.36000061035 -35.0399932861 29.4400024414 rrcurveto
          endchar
        </CharString>
        <CharString name="Otilde">
          99 -4 57 627 57 60.6600036621 50.9799957275 -3.7200012207 51.6399993896 hstemhm
          72.8200073242 57 441.799987793 57 hintmask 00010000
          182.379882812 834.599609375 rmoveto
          -9 callsubr
          hintmask 00100000
          -36 callsubr
          hintmask 00010000
          -35 callsubr
          hintmask 11001100
          -109.559570312 -473.599609375 rmoveto
          -11 callsubr
          57 hmoveto
          -10 callsubr
          endchar
        </CharString>
        <CharString name="P">
          6 21 -21 21 -21 306.5 57 -40.3999938965 40.3999938965 310.5 58 hstemhm
          67.1399993896 57 352.839996338 58 hintmask 10011110
          67.1399993896 hmoveto
          57 323.100006104 hlineto
          hintmask 10101110
          4.99998474121 -3 190.5 -13.6000061035 40 0 rrcurveto
          74 101.339996338 10.2799987793 207.300003052 179 -96.3399963379 28.9199981689 -79 hvcurveto
          -292.5 hlineto
          hintmask 00011110
          56.9999847412 -368.5 rmoveto
          310.5 235.5 vlineto
          48.9399871826 0 67.0800018311 -11.1000061035 1.31999206543 -138.819992065 rrcurveto
          hintmask 00101110
          0.68000793457 -141.839996338 -56.8399963379 -18.7400054932 -61.1800079346 0 rrcurveto
          endchar
        </CharString>
        <CharString name="Q">
          99 -4 57 627 57 hstem
          72.8200073242 57 441.799987793 57 vstem
          72.8200073242 361 rmoveto
          -333 97.2399902344 -32 180 180 98.5599975586 42 323 343 -105.559997559 33 -173 -172 -105.239990234 -33 -343 vhcurveto
          57 hmoveto
          311.919998169 82.1399993896 7.08000183105 138.099990845 144.160003662 77.3999938965 -11.5 -307.5 -264.979995728 -60.4599914551 -43.0200042725 -161.100006104 -165.13999939 -55.0999908447 37.0599975586 270.940002441 vhcurveto
          197.719985962 -394 rmoveto
          -72 callsubr
          endchar
        </CharString>
        <CharString name="R">
          10 21 -21 21 -21 307.160003662 60.9600067139 -48.3200073242 48.3200073242 305.879989624 58 hstemhm
          67.1399993896 57 356.13999939 58 hintmask 10011110
          67.1399993896 hmoveto
          57 319.800003052 hlineto
          hintmask 10101110
          1.69998168945 -1.01998901367 194.900009155 -11.2799987793 18.0199890137 -0.339996337891 rrcurveto
          156.720001221 -307.160003662 61.3000030518 0 -156.380004883 309.13999939 rlineto
          42.9600067139 3.31999206543 94.9199981689 17.0199890137 0 189.320007324 rrcurveto
          170.419998169 -81.8199920654 42.7799987793 -89.5600128174 vhcurveto
          -299.759994507 hlineto
          hintmask 00011110
          56.9999847412 -363.880004883 rmoveto
          305.880004883 242.759994507 vlineto
          54.8800048828 58.5 -16.3800048828 -138.819992065 -142.86000061 -56.1600036621 -7.82000732422 -57.2200012207 hvcurveto
          endchar
        </CharString>
        <CharString name="Racute">
          10 0 21 286.160003662 60.9600067139 -48.3200073242 48.3200073242 305.879989624 58 60 133 hstemhm
          67.1399993896 57 140.36000061 183.300003052 32.4799957275 58 hintmask 00001010
          264.5 792 rmoveto
          -38 callsubr
          hintmask 10110101
          -309.120117188 -925 rmoveto
          66 callsubr
          hintmask 11010101
          67 callsubr
          hintmask 00110101
          57 -363.879882812 rmoveto
          68 callsubr
          endchar
        </CharString>
        <CharString name="Rcaron">
          10 0 21 286.160003662 60.9600067139 -48.3200073242 48.3200073242 305.879989624 58 63.3000030518 130 hstemhm
          67.1399993896 57 24 285.199996948 46.9400024414 58 hintmask 00001010
          148.139648438 925.299804688 rmoveto
          62 callsubr
          64.380859375 -130 rmoveto
          54.33984375 hmoveto
          hintmask 10110101
          -252.680664062 -795.299804688 rmoveto
          66 callsubr
          hintmask 11010101
          67 callsubr
          hintmask 00110101
          57 -363.879882812 rmoveto
          68 callsubr
          endchar
        </CharString>
        <CharString name="Rcommaaccent">
          10 -227.880004883 20.8439941406 207.036010742 21 286.160003662 60.9600067139 -48.3200073242 48.3200073242 305.879989624 58 hstemhm
          67.1399993896 57 137.363998413 69.8040008545 -42.9120025635 42.9120025635 148.972000122 58 hintmask 0000000000000000
          hintmask 1000001000000000
          261.50390625 -135.971679688 rmoveto
          123 callsubr
          hintmask 1000000100000000
          124 callsubr
          hintmask 1000001000000000
          125 callsubr
          hintmask 0101110010000000
          -194.364257812 84.923828125 rmoveto
          66 callsubr
          hintmask 0110110010000000
          67 callsubr
          hintmask 0001110010000000
          57 -363.879882812 rmoveto
          68 callsubr
          endchar
        </CharString>
        <CharString name="S">
          8 -8 57 281.5 57 293.5 57 hstem
          72.8200073242 57 350.819992065 57 vstem
          72.8200073242 494 rmoveto
          -81.9600067139 18 -81.5399932861 158.299987793 vhcurveto
          130.479995728 hlineto
          76.8999938965 24.1399993896 -39.9799957275 -66.5200042725 hvcurveto
          -68 vlineto
          -1.52587890625e-05 -97.8600006104 -84.6199951172 -9.13999938965 -57.6600036621 0 -93 0 -110.539993286 5.30000305176 -41.3600006104 4 rrcurveto
          -44.6999969482 vlineto
          46.0000152588 -8 149.899993896 -13.6000061035 49 0 rrcurveto
          99 100.279998779 22 142 hvcurveto
          68 vlineto
          -1.52587890625e-05 82 -25.0399932861 81.5 -133 0 rrcurveto
          -132.479995728 hlineto
          -70.879989624 -46.4199981689 11.0800018311 95.4199981689 hvcurveto
          66 vlineto
          0 107.13999939 57.396987915 17.1269989014 81.9029998779 -3.26699829102 0 0 176.480010986 -5.32000732422 64 -4 rrcurveto
          44.0200042725 vlineto
          -41.7400054932 6.01998901367 -145.740005493 16.2799987793 -53 0 rrcurveto
          -112 -84.299987793 -33 -145 hvcurveto
          endchar
        </CharString>
        <CharString name="Sacute">
          8 -8 57 281.5 57 293.5 57 60 133 hstem
          72.8200073242 57 152.719985962 183.300003052 14.8000030518 57 vstem
          282.540039062 798 rmoveto
          -38 callsubr
          -321.479492188 -437 rmoveto
          50 callsubr
          endchar
        </CharString>
        <CharString name="Scaron">
          8 -8 57 281.5 57 293.5 57 60 130 hstem
          72.8200073242 57 38.3599853516 285.199996948 27.2600097656 57 vstem
          168.1796875 928 rmoveto
          51 callsubr
          64.3798828125 -130 rmoveto
          54.3408203125 hmoveto
          -267.040039062 -304 rmoveto
          50 callsubr
          endchar
        </CharString>
        <CharString name="Scedilla">
          8 -181 26.8000030518 146.199996948 57 281.5 57 293.5 57 hstem
          72.8200073242 57 165.119995117 50 135.699996948 57 vstem
          200.080078125 -154.200195312 rmoveto
          -30 callsubr
          -173.120117188 636.599609375 rmoveto
          50 callsubr
          endchar
        </CharString>
        <CharString name="Scircumflex">
          8 -8 57 281.5 57 293.5 57 60 130 hstem
          72.8200073242 57 38.1999969482 285.199996948 27.4199981689 57 vstem
          168.01953125 798 rmoveto
          105 callsubr
          0 vmoveto
          53.66015625 hmoveto
          -270.959960938 -434 rmoveto
          50 callsubr
          endchar
        </CharString>
        <CharString name="T">
          10 21 -21 21 -21 675 57 hstemhm
          269.880004883 57 hintmask 10110000
          45.6799926758 675 rmoveto
          224.199996948 -675 57 675 230.199996948 57 -511.399993896 hlineto
          endchar
        </CharString>
        <CharString name="Tbar">
          10 21 -21 21 -21 396.800003052 40.3999938965 237.800003052 57 hstemhm
          263.279998779 57 hintmask 10111000
          39.0800018311 675 rmoveto
          224.199996948 -237.800003052 -123.399993896 -40.3999938965 123.399993896 -396.800003052 57 396.800003052 130.199996948 40.3999938965 -130.199996948 237.800003052 230.199996948 57 -511.399993896 hlineto
          endchar
        </CharString>
        <CharString name="Tcaron">
          10 0 21 654 57 65 130 hstemhm
          152.179992676 285.199996948 -167.499984741 57 hintmask 00110000
          152.1796875 927 rmoveto
          51 callsubr
          64.3798828125 -130 rmoveto
          54.3408203125 hmoveto
          hintmask 11001000
          -278.180664062 -122 rmoveto
          52 callsubr
          endchar
        </CharString>
        <CharString name="Tcommaaccent">
          10 -183.63999939 26.8000030518 156.839996338 21 654 57 hstemhm
          269.880004883 57 -54.6600036621 50 hintmask 10001000
          177.360351562 -156.83984375 rmoveto
          -26.7998046875 43.859375 vlineto
          81.0205078125 19.9794921875 34.6796875 101.3203125 hvcurveto
          -50 hlineto
          0.6806640625 -61.80078125 -13.1806640625 -25.1591796875 -36.5 -10.640625 rrcurveto
          hintmask 01110000
          -177.540039062 820.240234375 rmoveto
          52 callsubr
          endchar
        </CharString>
        <CharString name="Thorn">
          -21 21 -21 21 -21 149 57 -41.0599975586 41.0599975586 324.339996338 57.6600036621 hstemhm
          67.1399993896 57 322.13999939 57.6600036621 hintmask 10011110
          67.1399993896 hmoveto
          57 164.940002441 hlineto
          hintmask 10101110
          96.379989624 -17.5400085449 58.8399963379 1.94000244141 48.5800018311 -0.339996337891 74 0 102 22 0 204 0 179 -97 33.3399963379 -79 0.660003662109 rrcurveto
          -203.800003052 141 -57 hlineto
          hintmask 00011110
          56.9999847412 -523 rmoveto
          324.339996338 203.800003052 vlineto
          45.5399932861 -0.339996337891 71.4800109863 -11.1199951172 1.31999206543 -141.880004883 rrcurveto
          hintmask 00101110
          0 -141.160003662 -52.0599975586 -30.5 -66.2799987793 0.660003662109 rrcurveto
          endchar
        </CharString>
        <CharString name="U">
          103 -5 57 680 -20 hstem
          89.5200042725 57 412.13999939 57.6600036621 vstem
          89.5200042725 320 rmoveto
          1.52587890625e-05 -331.63999939 129.899993896 6.63999938965 136 0 rrcurveto
          121 139.900009155 2 323 hvcurveto
          412 -57.6600036621 -412 vlineto
          -261.240005493 -95.4000091553 -6.75999450684 -107.839996338 -123.459991455 -85.4400024414 -3.2799987793 271.279998779 vhcurveto
          412 -57 vlineto
          endchar
        </CharString>
        <CharString name="Uacute">
          103 -5 57 660 20 65 133 hstem
          89.5200042725 57 181.25 183.300003052 47.5899963379 57.6600036621 vstem
          327.76953125 797 rmoveto
          -5 callsubr
          -350.010742188 -610 rmoveto
          -6 callsubr
          endchar
        </CharString>
        <CharString name="Ubreve">
          103 -5 57 660 20 65 35.7799987793 hstem
          89.5200042725 57 91.3999938965 35.7799987793 158.440002441 35.7799987793 90.7400054932 57.6600036621 vstem
          237.919921875 911 rmoveto
          106 callsubr
          -184.180664062 -591 rmoveto
          -6 callsubr
          endchar
        </CharString>
        <CharString name="Ucircumflex">
          103 -5 57 660 20 65 130 hstem
          89.5200042725 57 63.8000030518 285.199996948 63.1399993896 57.6600036621 vstem
          210.3203125 797 rmoveto
          -4 callsubr
          0 vmoveto
          53.66015625 hmoveto
          -296.560546875 -607 rmoveto
          -6 callsubr
          endchar
        </CharString>
        <CharString name="Udieresis">
          103 -5 57 660 20 65 78.5599975586 hstem
          89.5200042725 57 39.7899932861 78.2200012207 176.440002441 78.5599975586 39.1300048828 57.6600036621 vstem
          186.309570312 836.780273438 rmoveto
          -8 callsubr
          254.66015625 hmoveto
          -33 callsubr
          -351.450195312 -516.780273438 rmoveto
          -6 callsubr
          endchar
        </CharString>
        <CharString name="Ugrave">
          103 -5 57 660 20 65 133 hstem
          89.5200042725 57 48.25 183.300003052 180.589996338 57.6600036621 vstem
          194.76953125 930 rmoveto
          -7 callsubr
          -176.790039062 -610 rmoveto
          -6 callsubr
          endchar
        </CharString>
        <CharString name="Uhungarumlaut">
          103 -5 57 660 20 65 133 hstemhm
          89.5200042725 57 113.069992065 319.660003662 -20.5899963379 57.6600036621 hintmask 00101000
          259.58984375 797 rmoveto
          -38 callsubr
          24.6005859375 -133 rmoveto
          -38 callsubr
          hintmask 11010100
          -418.190429688 -610 rmoveto
          -6 callsubr
          endchar
        </CharString>
        <CharString name="Umacron">
          103 -5 57 660 20 65 46.6799926758 hstem
          89.5200042725 57 67.1999969482 278.399993896 66.5400085449 57.6600036621 vstem
          213.719726562 797 rmoveto
          135 callsubr
          -124.200195312 -523.6796875 rmoveto
          -6 callsubr
          endchar
        </CharString>
        <CharString name="Uogonek">
          103 -185 44.3600006104 116.63999939 20 -1 57 660 20 hstemhm
          89.5200042725 57 412.13999939 57.6600036621 hintmask 11000000
          336.540039062 -4 rmoveto
          48 callsubr
          hintmask 00111100
          -276.840820312 324 rmoveto
          -6 callsubr
          endchar
        </CharString>
        <CharString name="Uring">
          103 -5 57 660 20 65 36.7799987793 131.440002441 36.7799987793 hstem
          89.5200042725 57 105.069992065 35.7799987793 131.100006104 35.7799987793 104.410003662 57.6600036621 vstem
          251.58984375 899 rmoveto
          -32 callsubr
          35.7802734375 hmoveto
          -31 callsubr
          -197.850585938 -579 rmoveto
          -6 callsubr
          endchar
        </CharString>
        <CharString name="Utilde">
          103 -5 57 660 20 62.3600006104 50.9799957275 -3.7200012207 51.6399993896 hstemhm
          89.5200042725 57 412.13999939 57.6600036621 hintmask 00010000
          183.58984375 831.299804688 rmoveto
          15.2197265625 -29.7802734375 rlineto
          36.66015625 18.080078125 18.7607421875 21.3603515625 41.9599609375 0.66015625 rrcurveto
          hintmask 00100000
          137 callsubr
          hintmask 00010000
          -35 callsubr
          hintmask 11001100
          -94.0703125 -511.299804688 rmoveto
          -6 callsubr
          endchar
        </CharString>
        <CharString name="V">
          90 21 -21 21 -21 732 -20 hstemhm
          hintmask 10100000
          50.4400024414 732 rmoveto
          258.699996948 -732 60.3999938965 0 270.699996948 732 -62.3000030518 0 -237.940002441 -645.960006714 -227.259994507 645.960006714 rlineto
          endchar
        </CharString>
        <CharString name="W">
          389 21 -21 21 -21 732 -20 hstemhm
          hintmask 10100000
          50.4400024414 732 rmoveto
          258.699996948 -732 60.3999938965 0 126.779998779 381.479995728 144.820007324 -381.479995728 60.3999938965 0 237.5 732 -61.6199951172 0 -207.740005493 -642.660003662 -143.199996948 385.880004883 79.8999938965 256.779998779 -64.2799987793 0 -202.759994507 -638.699996948 -226.600006104 638.699996948 rlineto
          endchar
        </CharString>
        <CharString name="Wacute">
          389 0 21 691 20 61.6999969482 133 hstem
          476.520004272 183.300003052 vstem
          476.51953125 793.700195312 rmoveto
          -5 callsubr
          -537.83984375 -194.700195312 rmoveto
          188 callsubr
          endchar
        </CharString>
        <CharString name="Wcircumflex">
          389 0 21 691 20 61.6999969482 130 hstem
          358.740005493 285.199996948 vstem
          358.740234375 793.700195312 rmoveto
          -37 callsubr
          0 vmoveto
          53.66015625 hmoveto
          -484.059570312 -191.700195312 rmoveto
          188 callsubr
          endchar
        </CharString>
        <CharString name="Wdieresis">
          389 0 21 691 20 61.6999969482 78.5599975586 hstem
          334.729995728 78.2200012207 176.440002441 78.5599975586 vstem
          334.73046875 833.48046875 rmoveto
          -21.880859375 17.5595703125 -17.8994140625 21.8798828125 21.8798828125 16.900390625 17.8994140625 21.880859375 21.8798828125 -16.900390625 16.8994140625 -21.8798828125 -21.8798828125 -17.5595703125 -16.8994140625 -21.8798828125 vhcurveto
          254.659179688 hmoveto
          -21.880859375 17.900390625 -17.8994140625 21.8798828125 21.8798828125 16.900390625 17.8994140625 21.880859375 21.8798828125 -16.900390625 16.8994140625 -21.8798828125 -21.8798828125 -17.900390625 -16.8994140625 -21.8798828125 vhcurveto
          -538.94921875 -101.48046875 rmoveto
          188 callsubr
          endchar
        </CharString>
        <CharString name="Wgrave">
          389 0 21 691 20 61.6999969482 133 hstem
          342.86000061 183.300003052 vstem
          342.860351562 926.700195312 rmoveto
          -41 callsubr
          -363.959960938 -194.700195312 rmoveto
          188 callsubr
          endchar
        </CharString>
        <CharString name="X">
          9 21 -21 21 -21 732 -20 hstemhm
          hintmask 10100000
          50.4400024414 732 rmoveto
          215.399993896 -363.720001221 -212.399993896 -368.279998779 64 0 185.839996338 317.86000061 187.160003662 -317.86000061 64 0 -213.380004883 368.279998779 218.380004883 363.720001221 -64 0 -192.160003662 -319.580001831 -188.839996338 319.580001831 rlineto
          endchar
        </CharString>
        <CharString name="X.salt">
          33 21 -21 21 -21 732 -20 hstemhm
          hintmask 10100000
          22.3800048828 hmoveto
          65.6399993896 0 181.899993896 284 rlineto
          42.7199859619 64.9600067139 -22.0200042725 75.3999938965 -41.0399932861 62.6399993896 rrcurveto
          -161.899993896 245 -65.3000030518 0 176.160003662 -268.539993286 rlineto
          39.3999938965 -58.6399841309 12.3800048828 -43.2400054932 -38.0400085449 -59.9799957275 rrcurveto
          127.759994507 -17.6000061035 rmoveto
          181.899993896 -284 65.6399993896 0 -189.899993896 301.600006104 rlineto
          -38.0399932861 59.9799957275 12.3800048828 43.2400054932 39.3999938965 58.6399993896 rrcurveto
          176.160003662 268.539993286 -65.3000030518 0 -161.899993896 -245 rlineto
          -41.0400085449 -62.6399993896 -22.0199890137 -75.3999938965 42.7199859619 -64.9600067139 rrcurveto
          endchar
        </CharString>
        <CharString name="Y">
          50 21 -21 21 -21 732 -20 hstemhm
          286.839996338 57 hintmask 10110000
          50.4400024414 732 rmoveto
          236.399993896 -472 0 -260 57 0 0 260 256.399993896 472 -62.6399993896 0 -222.259994507 -403.380004883 -202.259994507 403.380004883 rlineto
          endchar
        </CharString>
        <CharString name="Yacute">
          50 0 21 691 20 65 133 hstemhm
          286.839996338 57 -43.6499938965 183.300003052 hintmask 00101000
          300.190429688 797 rmoveto
          -38 callsubr
          hintmask 11010000
          -361.509765625 -198 rmoveto
          -3 callsubr
          endchar
        </CharString>
        <CharString name="Ycircumflex">
          50 0 21 691 20 61.6999969482 130 hstemhm
          176.13999939 285.199996948 -174.5 57 hintmask 00110000
          176.139648438 793.700195312 rmoveto
          105 callsubr
          0 vmoveto
          53.66015625 hmoveto
          hintmask 11001000
          -301.459960938 -191.700195312 rmoveto
          -3 callsubr
          endchar
        </CharString>
        <CharString name="Ydieresis">
          50 0 21 691 20 65 78.5599975586 hstem
          158.729995728 78.2200012207 49.8899993896 57 69.5500030518 78.5599975586 vstem
          158.73046875 836.780273438 rmoveto
          -34 callsubr
          254.659179688 hmoveto
          -33 callsubr
          -362.94921875 -104.780273438 rmoveto
          -3 callsubr
          endchar
        </CharString>
        <CharString name="Ygrave">
          50 0 21 691 20 65 133 hstemhm
          167.190002441 183.300003052 -63.6500091553 57 hintmask 00110000
          167.190429688 930 rmoveto
          -41 callsubr
          hintmask 11001000
          -188.290039062 -198 rmoveto
          -3 callsubr
          endchar
        </CharString>
        <CharString name="Z">
          -18 0 57 618 57 hstem
          39.0800018311 hmoveto
          482.800003052 57 -408.580001831 hlineto
          408.580001831 618 0 57 -482.800003052 0 0 -57 408.580001831 0 -408.580001831 -618 rlineto
          endchar
        </CharString>
        <CharString name="Zacute">
          -18 0 57 618 57 65 133 hstem
          262.130004883 183.300003052 vstem
          262.129882812 797 rmoveto
          -38 callsubr
          -334.809570312 -930 rmoveto
          53 callsubr
          endchar
        </CharString>
        <CharString name="Zcaron">
          -18 0 57 618 57 65 130 hstem
          137.880004883 285.199996948 vstem
          137.879882812 927 rmoveto
          54 callsubr
          64.3798828125 -130 rmoveto
          54.33984375 hmoveto
          -270.479492188 -797 rmoveto
          53 callsubr
          endchar
        </CharString>
        <CharString name="Zdotaccent">
          -18 0 57 618 57 65 96.5601043701 hstem
          242.520004272 75.9199981689 vstem
          242.51953125 816.259765625 rmoveto
          55 callsubr
          -203.439453125 -872.98046875 rmoveto
          53 callsubr
          endchar
        </CharString>
        <CharString name="a">
          -57 -6 57 435 55 hstemhm
          44.7599945068 57 304.800003052 57 -41.3999938965 41.3999938965 hintmask 11110000
          44.7599945068 126 rmoveto
          -1.52587890625e-05 -85 60 -47 73 0 93.3800048828 0 133.419998169 70 2 0 rrcurveto
          hintmask 11101000
          15.6000061035 -64 41.3999938965 0 rlineto
          hintmask 11110000
          387 vlineto
          0 110 -70 45 -83 -1 -99.3399963379 -1 -83.2200012207 -11.3800048828 -66.2400054932 -17.9599914551 rrcurveto
          -40.3999938965 vlineto
          94.9599914551 9.37998962402 79.5200042725 6.69999694824 72 -0.339996337891 67.3399963379 -0.339996337891 30.9799957275 -34.9400024414 0 -63.7200012207 1 -1 -1 -66 0 0 rrcurveto
          -1 -228.800003052 1 0 -82.6599884033 -50.3400115967 -51.3000030518 -81.6999969482 vhcurveto
          57 -56 rmoveto
          52.0399932861 vlineto
          -1.52587890625e-05 41.8599853516 20.0800018311 34.4400024414 55.9199981689 3.66000366211 rrcurveto
          228.800003052 13.9600067139 0 -171.899993896 rlineto
          0 0 -148.800003052 -54.7399902344 -80 0.679992675781 -39.0999908447 0.339996337891 -36.9000091553 19.0800018311 0 60.5800018311 rrcurveto
          endchar
        </CharString>
        <CharString name="a.salt">
          -39 0 57 217.619995117 42.3800048828 163 57 hstem
          56.1199951172 57 311.120010376 57.3399963379 vstem
          56.1199951172 131 rmoveto
          -113 75.6600036621 -18 61 vhcurveto
          133.800003052 hlineto
          106.000015259 49 52 104 hvcurveto
          109.399993896 vlineto
          1.52587890625e-05 204.260009766 -35.6600036621 66.3399963379 -140 1 -99 1 -68.1799926758 -16.2599945068 -71.9600067139 -11.3400115967 rrcurveto
          -41.7200012207 vlineto
          89.1800079346 5.34001159668 75.299987793 5.97999572754 72 0 73.9400024414 0.660003662109 47.0400085449 -16.5599975586 0 -147.100006104 rrcurveto
          -231.460006714 hlineto
          -96 -40.6600036621 -45 -77 hvcurveto
          57 -64 rmoveto
          64 vlineto
          0 47.6199951172 27.1600036621 15.0400085449 52.5 3 rrcurveto
          231.460006714 13.9600067139 0 -118.619995117 rlineto
          1.52587890625e-05 -56.5399932861 -12.8200073242 -42.4600067139 -84.8399963379 0 rrcurveto
          -133.800003052 hlineto
          -63.1199951172 -16.5400085449 28.3800048828 45.6199951172 hvcurveto
          endchar
        </CharString>
        <CharString name="a.smcp">
          10 21 -21 21 -21 162.199996948 57 hstemhm
          hintmask 10100000
          39.0800018311 hmoveto
          62.3000030518 0 68.4199981689 162.199996948 253.699996948 0 64.0800018311 -162.199996948 62.3000030518 0 -217.399993896 570 -57 0 rlineto
          -82.1400146484 -350.800003052 rmoveto
          109.979995728 270.979995728 100.960006714 -270.979995728 rlineto
          endchar
        </CharString>
        <CharString name="a.superior">
          -207 374 47.0399932861 273.560012817 44.3999938965 hstemhm
          34.7400054932 47.0399932861 197.720001221 47.0399932861 -30.4799957275 30.4799957275 hintmask 11101000
          34.7400054932 463 rmoveto
          1.52587890625e-05 -58 48 -31 52 0 61.0399932861 0 82.7200012207 56.3999938965 2 0 rrcurveto
          15.5599975586 -52.3999938965 30.4799957275 0 rlineto
          hintmask 11110000
          258 vlineto
          -1.52587890625e-05 73 -53 31 -62 -1 -74.3399963379 -2.32000732422 -36.2200012207 -4 -54.2399902344 -13.2799987793 rrcurveto
          -31.8000030518 vlineto
          66.1600036621 5.33999633789 39.0200042725 1.66000366211 54 0 47.1800079346 0 26.3999938965 -18.4400024414 0 -45.1600036621 1 -1 -1 -30 0 0 rrcurveto
          -1 -144.759994507 0 0 -62 -38 -36 -54 vhcurveto
          47.0399932861 -37.7599945068 rmoveto
          33.8000030518 vlineto
          0 29.5199890137 18.8000030518 19.3600006104 37.7799987793 2.66000366211 rrcurveto
          141.13999939 10.9600067139 0 -104.020004272 rlineto
          1.52587890625e-05 -80.8000030518 -42.4800109863 -60 -30.0800018311 -26.8399963379 13.4000091553 36.8000030518 vhcurveto
          endchar
        </CharString>
        <CharString name="aacute">
          -57 -6 57 435 55 60 133 hstemhm
          44.7599945068 57 135.779998779 183.300003052 -14.2799987793 57 -41.3999938965 41.3999938965 hintmask 00101000
          237.540039062 601 rmoveto
          -38 callsubr
          hintmask 11010100
          -304.540039062 -608 rmoveto
          -2 callsubr
          hintmask 11010010
          -1 callsubr
          hintmask 11010100
          0 callsubr
          57 -56 rmoveto
          1 callsubr
          endchar
        </CharString>
        <CharString name="aacute.salt">
          -39 0 57 217.619995117 42.3800048828 163 57 60.0258026123 133 hstemhm
          56.1199951172 57 135.769012451 183.300003052 -7.94900512695 57.3399963379 hintmask 00010100
          248.888671875 597.025390625 rmoveto
          -5 callsubr
          hintmask 11101010
          -304.529296875 -599.025390625 rmoveto
          195 callsubr
          57 -64 rmoveto
          196 callsubr
          endchar
        </CharString>
        <CharString name="aacute.smcp">
          10 0 21 141.199996948 57 410.800003052 133 hstem
          278.830001831 183.300003052 vstem
          278.830078125 630 rmoveto
          -38 callsubr
          -351.509765625 -763 rmoveto
          161 callsubr
          -82.140625 -350.799804688 rmoveto
          162 callsubr
          endchar
        </CharString>
        <CharString name="abreve">
          -57 -6 57 435 55 60.0054931641 35.7799987793 hstemhm
          44.7599945068 57 55.3380126953 35.7799987793 158.439987183 35.7799987793 19.4620056152 57 -41.3999938965 41.3999938965 hintmask 00101100
          157.09765625 715.005859375 rmoveto
          -72 59 -42 55 55 61 38 76 vhcurveto
          -35.779296875 hlineto
          0 -47.4404296875 -35.080078125 -30.439453125 -45.140625 -0.3408203125 -40.1396484375 -0.33984375 -38.080078125 33.4404296875 0 45.1201171875 rrcurveto
          hintmask 11010010
          -148.118164062 -589.005859375 rmoveto
          -2 callsubr
          hintmask 11010001
          -1 callsubr
          hintmask 11010010
          0 callsubr
          57 -56 rmoveto
          1 callsubr
          endchar
        </CharString>
        <CharString name="abreve.salt">
          -39 0 57 217.619995117 42.3800048828 163 57 60.0258026123 35.7799987793 hstem
          56.1199951172 57 44.8290100098 35.7799987793 158.440002441 35.7799987793 36.2910003662 57.3399963379 vstem
          157.94921875 711.025390625 rmoveto
          -72 59 -42 55 55 61 38 76 vhcurveto
          -35.7802734375 hlineto
          0 -47.439453125 -35.080078125 -30.4404296875 -45.1396484375 -0.33984375 -40.140625 -0.33984375 -38.080078125 33.4404296875 0 45.119140625 rrcurveto
          -137.608398438 -580.025390625 rmoveto
          195 callsubr
          57 -64 rmoveto
          196 callsubr
          endchar
        </CharString>
        <CharString name="abreve.smcp">
          10 0 21 141.199996948 57 410.800003052 35.7799987793 hstem
          188.979995728 35.7799987793 158.440002441 35.7799987793 vstem
          188.98046875 744 rmoveto
          181 callsubr
          -185.6796875 -744 rmoveto
          161 callsubr
          -82.140625 -350.799804688 rmoveto
          162 callsubr
          endchar
        </CharString>
        <CharString name="acircumflex">
          -57 -6 57 435 55 60 130 hstemhm
          44.7599945068 57 20.6800079346 285.199996948 -1.08000183105 57 -41.3999938965 41.3999938965 hintmask 00101000
          122.440429688 601 rmoveto
          -4 callsubr
          0 vmoveto
          53.66015625 hmoveto
          hintmask 11010100
          -253.440429688 -605 rmoveto
          -2 callsubr
          hintmask 11010010
          -1 callsubr
          hintmask 11010100
          0 callsubr
          57 -56 rmoveto
          1 callsubr
          endchar
        </CharString>
        <CharString name="acircumflex.salt">
          -39 0 57 217.619995117 42.3800048828 163 57 60.0258026123 130 hstem
          56.1199951172 57 18.6491088867 285.199996948 7.27090454102 57.3399963379 vstem
          131.76953125 597.025390625 rmoveto
          -4 callsubr
          0 vmoveto
          53.66015625 hmoveto
          -251.409179688 -596.025390625 rmoveto
          195 callsubr
          57 -64 rmoveto
          196 callsubr
          endchar
        </CharString>
        <CharString name="acircumflex.smcp">
          10 0 21 141.199996948 57 410.800003052 130 hstem
          161.380004883 285.199996948 vstem
          161.379882812 630 rmoveto
          7 callsubr
          0 vmoveto
          53.6591796875 hmoveto
          -298.059570312 -760 rmoveto
          161 callsubr
          -82.140625 -350.799804688 rmoveto
          162 callsubr
          endchar
        </CharString>
        <CharString name="acute">
          -348 531 133 hstem
          22.3800048828 183.300003052 vstem
          22.3800048828 531 rmoveto
          -46 callsubr
          endchar
        </CharString>
        <CharString name="acute.smcp">
          -348 531 133 hstem
          22.3800048828 183.300003052 vstem
          22.3800048828 531 rmoveto
          -46 callsubr
          endchar
        </CharString>
        <CharString name="adieresis">
          -57 -6 57 435 55 71.2308044434 78.5599975586 hstemhm
          44.7599945068 57 -4.59039306641 78.2200012207 176.440002441 78.5599975586 -23.8296051025 57 -41.3999938965 41.3999938965 hintmask 00101100
          97.169921875 652.010742188 rmoveto
          3 callsubr
          254.66015625 hmoveto
          4 callsubr
          hintmask 11010010
          -307.0703125 -526.010742188 rmoveto
          -2 callsubr
          hintmask 11010001
          -1 callsubr
          hintmask 11010010
          0 callsubr
          57 -56 rmoveto
          1 callsubr
          endchar
        </CharString>
        <CharString name="adieresis.salt">
          -39 0 57 217.619995117 42.3800048828 163 57 60.0258026123 78.5599975586 hstemhm
          56.1199951172 57 -5.56089782715 78.2200012207 176.440002441 78.5599975586 -16.5390930176 57.3399963379 hintmask 00010110
          107.559570312 636.805664062 rmoveto
          3 callsubr
          254.659179688 hmoveto
          -19 callsubr
          hintmask 11101001
          -306.098632812 -505.805664062 rmoveto
          195 callsubr
          57 -64 rmoveto
          196 callsubr
          endchar
        </CharString>
        <CharString name="adieresis.smcp">
          10 0 21 141.199996948 57 410.800003052 78.5599975586 hstem
          137.369995117 78.2200012207 176.440002441 78.5599975586 vstem
          137.370117188 669.780273438 rmoveto
          -18 callsubr
          254.66015625 hmoveto
          -17 callsubr
          -352.950195312 -669.780273438 rmoveto
          161 callsubr
          -82.140625 -350.799804688 rmoveto
          162 callsubr
          endchar
        </CharString>
        <CharString name="ae">
          301 -2.03999328613 57 186.579986572 56 184.080001831 57 -48.6599884033 55 hstemhm
          44.7599945068 57 304.800003052 58 310.800003052 57 hintmask 11101110
          44.7599945068 129.960006714 rmoveto
          -1.52587890625e-05 -84.9999847412 60 -47 73 0 93.3800048828 0 153.039993286 70.3199920654 2 0 27.1600036621 -34.5200042725 27.6000061035 -35.1399993896 101.619995117 0 83 0 75.8000030518 5 81 23 rrcurveto
          42.3999938965 vlineto
          -74.9999847412 -10.9999847412 -72.8000030518 -2.74000549316 -92 0.339996337891 -104.86000061 0.68000793457 -13.8199920654 38.1399993896 0.679992675781 147.099990845 rrcurveto
          230.800003052 hlineto
          92.6000213623 -1.52587890625e-05 44.3999938965 35.8200073242 0 77.6799926758 0 176 -79.3600006104 7.58000183105 -123.63999939 0 -91.7599945068 0 -61.6800079346 -11.7399902344 -31.2200012207 -56.2400054932 rrcurveto
          hintmask 11011110
          -24.5999908447 52.5599975586 -50.7600097656 22.7600097656 -58.7799987793 -1 -99.3399963379 -1 -86.5200042725 -10.0600128174 -62.9400024414 -19.2799987793 rrcurveto
          -40.3999938965 vlineto
          96.9399871826 9.38000488281 77.5400085449 6.69999694824 72 -0.339996337891 67.3399963379 -0.34001159668 30.9799957275 -34.9400024414 0 -63.7199859619 1 -1 -1 -90.7400054932 0 0 rrcurveto
          -1 -228.800003052 1 0 -82.6599884033 -50.3400115967 -51.3000030518 -81.6999969482 vhcurveto
          57 -31.2599945068 rmoveto
          31.2599945068 vlineto
          -1.52587890625e-05 41.8600006104 20.0800018311 34.7799987793 55.9199981689 3.31999206543 rrcurveto
          228.800003052 12.6000061035 0 -147.380004883 rlineto
          0 0 -148.800003052 -57.1199951172 -80 0.68000793457 -39.0999908447 0.339996337891 -36.9000091553 19.0800018311 0 60.5800018311 rrcurveto
          362.800003052 162.579986572 rmoveto
          hintmask 11101110
          0.68000793457 170.499984741 40.2200012207 13.5800018311 124.899993896 0 rrcurveto
          113.440002441 31.5599975586 -6.2799987793 -120.300003052 -45.5799865723 -29.5399932861 -11.9200134277 -50.4600067139 hvcurveto
          endchar
        </CharString>
        <CharString name="ae.smcp">
          218 -3.69999694824 57 -44.6800079346 44.0200042725 123.039993286 57 17.8200073242 59 -51.6799926758 45.0200042725 209.799987793 56 -56 45.0200042725 hstemhm
          371.740005493 57.6600036621 hintmask 10100001
          25.7200012207 hmoveto
          64.6399993896 0 101.399993896 175.679992676 179.979995728 0 0 -95.6999969482 rlineto
          1.52587890625e-05 -52.700012207 32.6799926758 -32.3000030518 56.6000061035 1.32000732422 rrcurveto
          hintmask 01100001
          287.559997559 12.3200073242 0 44.0200042725 rlineto
          hintmask 10110001
          -273.699996948 0.660003662109 rlineto
          -18.6000061035 1.52587890625e-05 -26.8800048828 2.02000427246 0 39.8599853516 rrcurveto
          0 155.320007324 rlineto
          hintmask 00101001
          288.179992676 7.32000732422 0 45.0200042725 rlineto
          hintmask 00110101
          -288.179992676 6.66000366211 0 159.580001831 rlineto
          1.32000732422 32.2200164795 5.08000183105 11.3399963379 43.9199981689 0 rrcurveto
          hintmask 00100011
          268.86000061 45.0200042725 hlineto
          hintmask 10100101
          -270.86000061 10.9799957275 rlineto
          -94.3399963379 -2.36001586914 -44.7200012207 -10.3199920654 -41.4000091553 -73.9600067139 rrcurveto
          -76.299987793 -249.320007324 rmoveto
          150.779998779 264.839996338 0 -264.839996338 rlineto
          endchar
        </CharString>
        <CharString name="afii61289">
          -180 -0.339996337891 39.3999938965 -18.3999938965 -21 hstemhm
          90.7400054932 56.6600036621 hintmask 01100000
          33.3999938965 248 rmoveto
          19.8800048828 -25.1999969482 rlineto
          10.6600036621 5.6600189209 16.4599914551 10.0799865723 10.3400115967 9.38000488281 rrcurveto
          -59.2599945068 vlineto
          1.52587890625e-05 -137.040008545 37.0399932861 -51.299987793 90.1999969482 -0.660003662109 rrcurveto
          hintmask 10100000
          0 0 83.2200012207 -0.660003662109 -0.660003662109 0.660003662109 rrcurveto
          39.3999938965 vlineto
          -3.04000854492 -0.660003662109 -80.8600006104 17.6000061035 0 0.660003662109 -47.3999938965 9.31999206543 -21.1800079346 11.4400024414 -0.660003662109 111.240005493 rrcurveto
          105.339996338 vlineto
          100 90 78.6399993896 114.300003052 0.700012207031 99.6999969482 0.360000610352 75 -43.700012207 66 -80 0 -61 0 -50.6599884033 -40 -1 -67 rrcurveto
          -328 vlineto
          -18.9999847412 -20 -19.3400115967 -19 -19 -17 rrcurveto
          114 124.199996948 rmoveto
          253.800003052 vlineto
          0 75.3600006104 98.9200134277 -5.2200012207 16.0799865723 -56.1399993896 26.700012207 -88.3999938965 -79.0200042725 -102.200012207 -62.6800079346 -77.1999969482 rrcurveto
          endchar
        </CharString>
        <CharString name="afii61352">
          498 21 -21 21 -21 381 47.0399932861 256.920013428 50.0399932861 hstemhm
          80.5 57.3399963379 420 57 85 47.0399932861 235.920013428 47.0399932861 hintmask 10111111
          80.5 hmoveto
          57.3399963379 645 hlineto
          0 36.3800048828 41.8000030518 10.4400024414 13.8000030518 -34.3800048828 rrcurveto
          257.740005493 -608.440002441 rlineto
          38.6400146484 -94.6799926758 125.019989014 36.6799926758 0 88 rrcurveto
          491 vlineto
          70 30.1600036621 44.9600067139 61.8399963379 72 113 -0.660003662109 0 vhcurveto
          53.7400054932 -1.32000732422 37.2200012207 -8.7200012207 0 -121.259994507 rrcurveto
          -102 -33.3600006104 -22.9600067139 -55.9000091553 vhcurveto
          -57.7400054932 hlineto
          -58.2799835205 -1.52587890625e-05 -30.6399993896 20.9600067139 0 166 rrcurveto
          -47.0399932861 hlineto
          -176 29 -58 103 vhcurveto
          66 hlineto
          103 29 65 107 hvcurveto
          0 121 -30 57.3399963379 -102 3 rrcurveto
          0 -140.160003662 0.660003662109 -48.8399963379 -87.9199981689 -63.0800018311 -45 -122 vhcurveto
          -482 vlineto
          -1.69999694824 -36.0800018311 -40.1399993896 -8.7200012207 -13.1000061035 32.9600067139 rrcurveto
          -256.100006104 605.839996338 rlineto
          -35.9599914551 86.6799926758 -130.339996338 -13.3599853516 0 -102 rrcurveto
          endchar
        </CharString>
        <CharString name="agrave">
          -57 -6 57 435 55 60 133 hstemhm
          44.7599945068 57 8.12001037598 183.300003052 113.379989624 57 -41.3999938965 41.3999938965 hintmask 00101000
          109.879882812 734 rmoveto
          -41 callsubr
          hintmask 11010100
          -136.66015625 -608 rmoveto
          -2 callsubr
          hintmask 11010010
          -1 callsubr
          hintmask 11010100
          0 callsubr
          57 -56 rmoveto
          1 callsubr
          endchar
        </CharString>
        <CharString name="agrave.salt">
          -39 0 57 217.619995117 42.3800048828 163 57 60.0258026123 133 hstem
          56.1199951172 57 17.2890014648 183.300003052 110.531005859 57.3399963379 vstem
          130.409179688 730.025390625 rmoveto
          -41 callsubr
          -145.829101562 -599.025390625 rmoveto
          195 callsubr
          57 -64 rmoveto
          196 callsubr
          endchar
        </CharString>
        <CharString name="agrave.smcp">
          10 0 21 141.199996948 57 411.13999939 133 hstem
          128.119995117 183.300003052 vstem
          128.120117188 763.33984375 rmoveto
          -41 callsubr
          -160.580078125 -763.33984375 rmoveto
          161 callsubr
          -82.140625 -350.799804688 rmoveto
          162 callsubr
          endchar
        </CharString>
        <CharString name="amacron">
          -57 -6 57 435 55 60.0054931641 46.6799926758 hstemhm
          44.7599945068 57 29.4383087158 278.399993896 -3.03829956055 57 -41.3999938965 41.3999938965 hintmask 00101000
          131.198242188 601.005859375 rmoveto
          135 callsubr
          hintmask 11010100
          -86.4384765625 -521.685546875 rmoveto
          -2 callsubr
          hintmask 11010010
          -1 callsubr
          hintmask 11010100
          0 callsubr
          57 -56 rmoveto
          1 callsubr
          endchar
        </CharString>
        <CharString name="amacron.salt">
          -39 0 57 217.619995117 42.3800048828 163 57 60.0258026123 46.6799926758 hstem
          56.1199951172 57 21.9491119385 278.399993896 10.770904541 57.3399963379 vstem
          135.069335938 597.025390625 rmoveto
          171 callsubr
          -78.94921875 -512.706054688 rmoveto
          195 callsubr
          57 -64 rmoveto
          196 callsubr
          endchar
        </CharString>
        <CharString name="amacron.smcp">
          10 0 21 141.199996948 57 410.800003052 46.6799926758 hstem
          164.779998779 278.399993896 vstem
          164.780273438 630 rmoveto
          129 callsubr
          -125.700195312 -676.6796875 rmoveto
          161 callsubr
          -82.140625 -350.799804688 rmoveto
          162 callsubr
          endchar
        </CharString>
        <CharString name="ampersand">
          66 21 -21 21 -21 677 37.7599945068 hstemhm
          hintmask 10100000
          82.4199981689 82 rmoveto
          74.7399902344 -102.36000061 137.599990845 -10.6399993896 80.6600036621 75 rrcurveto
          72 67 82 -111 68.6199951172 0 -109.179992676 150.759994507 53.5800018311 54.8600006104 57.1199951172 99.8600006104 -18.2400054932 18.5599975586 -127.600006104 -129.199996948 -253.36000061 343.160003662 rlineto
          -73.4199829102 99.1199951172 58.7599945068 39.8800048828 88.7200012207 0 rrcurveto
          203 37.7599945068 hlineto
          -72.0000152588 13.2599945068 -98.0599975586 12.3000030518 -96.2799987793 -12.0200042725 -71.3600006104 -10.7400054932 -77.3000030518 -86.5599975586 79 -107 rrcurveto
          63 -85 -86 -73 rlineto
          -87.0000152588 -74 -25.0200042725 -113.300003052 76.0200042725 -96.6999969482 rrcurveto
          48.0400085449 31.5 rmoveto
          -52.799987793 68.8600006104 -2.16000366211 75.1799926758 83.3999938965 69.0600128174 rrcurveto
          78 65 175.380004883 -235.199996948 -78.3000030518 -73.3000030518 rlineto
          -61.4800109863 -57.8000030518 -94.5599975586 26.3199920654 -47.4799957275 61.8800048828 rrcurveto
          endchar
        </CharString>
        <CharString name="ampersand.salt">
          367 0 57 104.160003662 56.3399963379 117.5 57 83 57 -40.3999938965 39.0800018311 hstemhm
          49.1000061035 57 84 57 309.799987793 57 94 57 -41.7200012207 41.7200012207 hintmask 1111011110000000
          49.1000061035 286 rmoveto
          -95 81 -29.1799926758 60 vhcurveto
          -141.140014648 77 -20.6799926758 111 vhcurveto
          153.800003052 hlineto
          103 130 30.8600006104 156.13999939 hvcurveto
          0 288 rlineto
          hintmask 1110111101000000
          155 16.6000061035 0 39.0800018311 -155 0 0 149.320007324 -41.7200012207 0 rlineto
          hintmask 1111011110000000
          -15.2799987793 -148 -447.800003052 0 rlineto
          -134 -77 -20 -137 hvcurveto
          57 -89 rmoveto
          89 vlineto
          94.2599945068 47.1399993896 5.74000549316 106.86000061 vhcurveto
          447.800003052 -288 hlineto
          -101.399993896 -85.1799926758 -28.6000061035 -90.8200073242 vhcurveto
          -153.800003052 hlineto
          -71.0200042725 1.97999572754 -59.3200073242 0.880004882812 -0.65998840332 101.300003052 rrcurveto
          233.199996948 hlineto
          94.9000091553 38.6999969482 18.2599945068 96.6800079346 112.619995117 -72.5999908447 3.2799987793 -61 hvcurveto
          -129 hlineto
          -110.999984741 -50.1999969482 -55.8600006104 -118.63999939 hvcurveto
          -38.1399993896 0.339996337891 -45.8600006104 13.620010376 0 54.5399932861 rrcurveto
          141 -68.5 rmoveto
          104.300003052 40.7799987793 13.1999969482 63.4199981689 vhcurveto
          129 hlineto
          63.120010376 13.4799957275 -8.02000427246 -50.879989624 -55.5 -18.0599975586 -3.10000610352 -58.5399932861 hvcurveto
          endchar
        </CharString>
        <CharString name="ampersand.smcp">
          -26 21 -21 21 -21 518 39.0599975586 hstemhm
          hintmask 10100000
          72.3999938965 62 rmoveto
          62 -87 106 1 63 58 rrcurveto
          66.5800018311 63.8800048828 77.8800048828 -97.8800048828 67.2599945068 0 -104.059997559 135 27.0800018311 27.4199981689 48.8600006104 84.3600006104 -17.8800048828 19.8800048828 -92.8600006104 -86.5800018311 -191.899993896 241.479995728 rlineto
          -41.7399902344 52.4600067139 5.10000610352 43.9799957275 81.6399993896 0 rrcurveto
          177.800003052 39.0599975586 hlineto
          -101.900009155 17.2799987793 -66.5599975586 3.62001037598 -59.3399963379 -8.96000671387 -61.6800079346 -10.0200042725 -54.9599914551 -72.9599914551 67.6399993896 -87.0200042725 rrcurveto
          44 -55.6999969482 -70.9600067139 -58.3000030518 rlineto
          -76.6599884033 -63 -12.3400115967 -82 58 -78 rrcurveto
          46.7200012207 32.4799957275 rmoveto
          -29.8600006104 38.6199951172 -12.4799957275 56.7399902344 65.7599945068 53.1000061035 rrcurveto
          68.5800018311 55.6199951172 124.059997559 -157.259994507 -66.2799987793 -63.2400054932 rlineto
          -50.7200012207 -50.6999969482 -67.879989624 26.5200042725 -31.1800079346 40.5999908447 rrcurveto
          endchar
        </CharString>
        <CharString name="aogonek">
          -43 -181 44.3600006104 116.63999939 20 -6 57 435 55 hstemhm
          51.2200012207 57 304.800003052 57 -41.4000091553 41.3999938965 hintmask 11000000
          435.448242188 hmoveto
          56 callsubr
          hintmask 00111100
          -414.047851562 126 rmoveto
          -2 callsubr
          hintmask 00111010
          -1 callsubr
          hintmask 00111100
          0 callsubr
          57 -56 rmoveto
          1 callsubr
          endchar
        </CharString>
        <CharString name="aogonek.salt">
          -18 -160.720001221 44.3600006104 116.36000061 57 -56.7200012207 20 254.339996338 42.3800048828 163 57 hstemhm
          64.2799987793 57 311.119995117 57.3399963379 hintmask 10100000
          396.8203125 20.2802734375 rmoveto
          -149.66015625 -64.6806640625 77.33984375 -132.319335938 115 16 rrcurveto
          44.359375 vlineto
          -96.6796875 0.30078125 -8.7001953125 76.1591796875 92.51953125 60.1806640625 rrcurveto
          hintmask 01011110
          -362.359375 110.719726562 rmoveto
          195 callsubr
          57 -64 rmoveto
          196 callsubr
          endchar
        </CharString>
        <CharString name="aogonek.smcp">
          32 -181 44.3600006104 116.63999939 20 0 21 141.199996948 57 hstemhm
          hintmask 11000000
          511.919921875 hmoveto
          48 callsubr
          hintmask 00110000
          -496.879882812 hmoveto
          62.2998046875 0 68.419921875 162.200195312 253.700195312 0 64.080078125 -162.200195312 62.2998046875 0 -217.400390625 570 -57 0 rlineto
          -82.1396484375 -350.799804688 rmoveto
          109.979492188 270.979492188 100.959960938 -270.979492188 rlineto
          endchar
        </CharString>
        <CharString name="approxequal">
          -65 212.740005493 54.9400024414 -5.04000854492 54.2799987793 72.4799957275 54.9400024414 -5.03999328613 54.2799987793 hstemhm
          hintmask 01000000
          56.1199951172 250.339996338 rmoveto
          15.2200012207 -29.7799987793 rlineto
          43.9199981689 18.7400054932 26.0200042725 23.3399963379 46.5800018311 0 rrcurveto
          hintmask 10000000
          50.8199920654 0 36.4800109863 -49.8999938965 53.879989624 0 53.8800048828 0 35.6199951172 39.5599975586 36.9600067139 29.0399932861 rrcurveto
          -16.5599975586 30.1000061035 rlineto
          -38.8399963379 -18.3399963379 -25.4600067139 -25.4200134277 -44.2799987793 0 rrcurveto
          hintmask 01000000
          -50.4799957275 0 -37.8400115967 49.2400054932 -52.8600006104 0 rrcurveto
          -55.5 0 -39.5999908447 -34.5999908447 -37.9600067139 -31.9800109863 rrcurveto
          0 176.660003662 rmoveto
          15.2200012207 -29.7799987793 rlineto
          hintmask 00010000
          43.9199981689 18.7400054932 26.0200042725 23.3399963379 46.5800018311 0 rrcurveto
          hintmask 00100000
          50.8199920654 0 36.4800109863 -49.9000091553 53.879989624 0 53.8800048828 0 35.6199951172 39.5600128174 36.9600067139 29.0399932861 rrcurveto
          -16.5599975586 30.1000061035 rlineto
          -38.8399963379 -18.3400115967 -25.4600067139 -25.4199981689 -44.2799987793 0 rrcurveto
          hintmask 00010000
          -50.4799957275 0 -37.8400115967 49.2400054932 -52.8600006104 0 -55.5 0 -39.5999908447 -34.6000061035 -37.9600067139 -31.9799957275 rrcurveto
          endchar
        </CharString>
        <CharString name="aring">
          -57 -6 57 435 55 30 36.7799987793 131.440002441 36.7799987793 hstemhm
          44.7599945068 57 59.9199981689 35.7799987793 131.100006104 35.7799987793 42.2200012207 57 -41.3999938965 41.3999938965 hintmask 0011011000000000
          161.6796875 673 rmoveto
          -32 callsubr
          35.7802734375 hmoveto
          -31 callsubr
          hintmask 1100100100000000
          -152.700195312 -547 rmoveto
          -2 callsubr
          hintmask 1100100010000000
          -1 callsubr
          hintmask 1100100100000000
          0 callsubr
          57 -56 rmoveto
          1 callsubr
          endchar
        </CharString>
        <CharString name="aring.salt">
          -39 0 57 217.619995117 42.3800048828 163 57 60.0496063232 36.7799987793 131.440002441 36.7799987793 hstem
          56.1199951172 57 60.1979980469 35.7799987793 131.100006104 35.7799987793 48.262008667 57.3399963379 vstem
          173.318359375 699.049804688 rmoveto
          79 callsubr
          35.779296875 hmoveto
          36.1201171875 30.1005859375 30.099609375 36.1201171875 36.1201171875 28.759765625 -30.099609375 -36.1201171875 -36.1201171875 -28.759765625 -29.099609375 -36.1201171875 -36.1201171875 -30.1005859375 29.099609375 36.1201171875 vhcurveto
          -152.977539062 -568.049804688 rmoveto
          195 callsubr
          57 -64 rmoveto
          196 callsubr
          endchar
        </CharString>
        <CharString name="aring.smcp">
          10 0 21 141.199996948 57 346.839996338 36.7799987793 131.440002441 36.7799987793 hstem
          203.63999939 35.7799987793 131.100006104 35.7799987793 vstem
          203.639648438 668.040039062 rmoveto
          -32 callsubr
          35.7802734375 hmoveto
          -31 callsubr
          -200.33984375 -668.040039062 rmoveto
          161 callsubr
          -82.140625 -350.799804688 rmoveto
          162 callsubr
          endchar
        </CharString>
        <CharString name="asciicircum">
          -179 531 130 hstem
          56.1199951172 285.199996948 vstem
          56.1199951172 531 rmoveto
          53.6399993896 0 94.3000030518 85.9600067139 84.2799987793 -85.9600067139 52.9799957275 0 -109.440002441 130 -53.6600036621 0 rlineto
          0 hmoveto
          53.6600036621 hmoveto
          endchar
        </CharString>
        <CharString name="asciitilde">
          -127 534.399993896 54.2799987793 -6.35998535156 54.2799987793 hstemhm
          hintmask 01000000
          56.1199951172 572 rmoveto
          15.2200012207 -29.7799987793 rlineto
          36 18.0800018311 21.4000091553 22.0200042725 38.6599884033 0 rrcurveto
          hintmask 10000000
          36.9600067139 0 33.8399963379 -47.9200134277 43.9799957275 0 49.2600097656 0 33.6399993896 40.8800048828 29.0399932861 27.7200012207 rrcurveto
          -16.5599975586 30.1000061035 rlineto
          -24.9799957275 -17.0200042725 -31.4000091553 -27.4000091553 -39 0 rrcurveto
          hintmask 01000000
          -37.2799987793 0 -33.2200012207 47.9200134277 -42.299987793 0 rrcurveto
          -48.2400054932 0 -27.0599975586 -32.620010376 -37.9600067139 -31.9799957275 rrcurveto
          endchar
        </CharString>
        <CharString name="asterisk">
          -127 531.199996948 -20 63.6399993896 31.1600036621 hstem
          56.1199951172 574.839996338 rmoveto
          143.320007324 -5.33999633789 -3.30000305176 57 -140.020004272 -20.5 rlineto
          72.0800018311 -193.699996948 rmoveto
          28.8399963379 -9.2799987793 54.5800018311 131.36000061 -56.3600006104 12.5800018311 rlineto
          30.9399871826 172.080001831 rmoveto
          49.3999938965 -131.979995728 53.0399932861 24.1999969482 -72.2799987793 119.699996948 rlineto
          2.18000793457 -248.499984741 rmoveto
          127.279998779 -64.3999938965 16.5800018311 24.8600006104 -112.720001221 88.2799987793 rlineto
          12.200012207 33.3399810791 rmoveto
          37.8000030518 -43.4199981689 94.7400054932 94.6199951172 -15.2599945068 27.1799926758 rlineto
          endchar
        </CharString>
        <CharString name="asterisk.smcp">
          -128 422.960006714 31.1600036621 hstem
          56.1199951172 422.960006714 rmoveto
          142.660003662 -5.33999633789 -2.63999938965 57 -140.020004272 -20.5 rlineto
          71.4199981689 -193.699996948 rmoveto
          28.8399963379 -9.2799987793 55.2400054932 131.36000061 -56.3600006104 12.5800018311 rlineto
          30.9399871826 172.08001709 rmoveto
          49.3999938965 -131.320007324 53.0399932861 23.5399932861 -72.2799987793 119.699996948 rlineto
          2.18000793457 -248.499984741 rmoveto
          127.279998779 -64.3999938965 16.5800018311 24.8600006104 -112.720001221 88.9400024414 rlineto
          12.200012207 33.3399963379 rmoveto
          37.8000030518 -44.0800018311 94.7400054932 94.6199951172 -15.9199981689 27.1799926758 rlineto
          endchar
        </CharString>
        <CharString name="at">
          275 -178 58 111 57 -27 -21 21 -21 455 57 131 57 -57 35.7799987793 hstemhm
          72.8200073242 57 97.8999938965 57 263.319992065 55.6799926758 -42.3999786377 42.3999938965 95.8999938965 57 hintmask 1001110111010000
          72.8200073242 hmoveto
          -81 callsubr
          hintmask 1000101111010000
          -80 callsubr
          hintmask 1001110111010000
          398.899993896 hlineto
          75.620010376 44.379989624 -48.2200012207 -82.7799987793 hvcurveto
          -512 vlineto
          -79.5599975586 -30.8600006104 -40.4400024414 -89.1399993896 vhcurveto
          -338.800003052 hlineto
          -49.5200042725 -61.4799957275 20.4799957275 99.5200042725 hvcurveto
          348 vlineto
          87.8200073242 50.0799865723 19.1799926758 60.9200134277 vhcurveto
          206.899993896 hlineto
          62.8399963379 37.4799957275 -20.1600036621 -64.8399963379 hvcurveto
          1 -0.339996337891 -1 -75.6600036621 0 0 rrcurveto
          -1 -116.86000061 1 -74.4599914551 -83 -46 -53 -80 vhcurveto
          -53 vlineto
          hintmask 1100100110110000
          -1 -68 55 -51 74 2 91 0 100.979995728 73 2 0 rrcurveto
          hintmask 1010100110110000
          -79 callsubr
          hintmask 1001110111010000
          -78 callsubr
          211.899993896 -234 rmoveto
          -0.339996337891 1 0 43 0.339996337891 1 -0.660003662109 56.4199981689 37.6600036621 22.2200012207 40 3.32000732422 rrcurveto
          186.320007324 13.9600067139 0 -149.86000061 rlineto
          hintmask 1100100111010000
          -50.0000152588 -24 -76.3199920654 -34.0599975586 -59 1 -44.8999938965 -0.660003662109 -33.1000061035 32.4000091553 0 34.2599945068 rrcurveto
          endchar
        </CharString>
</ttFont>
